<svg width="534" height="327" viewBox="0 0 534 327" fill="none" xmlns="http://www.w3.org/2000/svg">
<path d="M524.726 77.0511L516.376 114.827L511 109.929L501.855 116.025L494.866 107.916L479.194 118.56L465.799 97.6384L450.86 105.813L444.935 98.1845L425.965 108.168L420.258 96.7501L433.556 36.5938L504.848 50.3431L524.726 77.0511Z" fill="#EBEBEB"/>
<path d="M504.848 50.3438L524.726 77.0518L499.996 72.284L504.848 50.3438Z" fill="#DBDBDB"/>
<path d="M514.594 122.374L502.351 177.795L406.32 159.278L418.476 104.305L424.183 115.715L443.162 105.731L449.078 113.36L464.026 105.193L477.412 126.115L493.092 115.47L500.073 123.572L509.227 117.483L514.594 122.374Z" fill="#EBEBEB"/>
<path d="M377.15 115.879L279.287 121.535L271.512 4.20548L344.183 0L370.858 20.9052L377.15 115.879Z" fill="#EBEBEB"/>
<path d="M344.184 0L370.859 20.9052L345.658 22.364L344.184 0Z" fill="#DBDBDB"/>
<path d="M317.089 78.9491L316.705 76.3003C315.719 70.8153 317.324 64.6782 322.429 58.264C327.036 52.5589 329.532 48.4838 329.253 43.8545C328.939 38.6384 325.23 35.3458 318.328 35.6066C314.383 35.7979 310.594 37.1055 307.464 39.3556L304.453 33.0556C307.944 30.4068 314.052 28.4507 319.855 28.1655C332.446 27.5135 338.572 34.4737 339.052 42.2408C339.471 49.1929 335.614 54.4171 330.71 60.5216C326.207 66.0882 324.733 70.6767 325.37 75.8684L325.64 78.5253L317.089 78.9491ZM315.535 93.383C315.308 89.6014 317.883 86.7977 321.713 86.6021C325.544 86.4065 328.336 88.9168 328.563 92.7066C328.773 96.2845 326.425 99.1697 322.377 99.3816C318.511 99.5853 315.718 96.961 315.5 93.383H315.535Z" fill="#DBDBDB"/>
<path d="M72.3042 58.9909L62.4612 54.8262L61.0912 57.638C60.8889 58.0398 60.5733 58.3826 60.1782 58.6296C59.7831 58.8765 59.3234 59.0184 58.8486 59.0398C58.3077 59.0564 57.7685 59.1054 57.2343 59.1865C56.7654 59.2515 56.2863 59.1964 55.8483 59.0271C55.4103 58.8577 55.0298 58.5804 54.7473 58.2248L52.8189 55.7064L44.0317 61.5908L45.9602 64.1092C46.2284 64.4727 46.3862 64.8972 46.417 65.3378C46.4477 65.7783 46.3501 66.2184 46.1347 66.6113C45.8859 67.0595 45.6616 67.5192 45.4628 67.9887C45.2899 68.4026 44.9995 68.7648 44.6229 69.0362C44.2462 69.3076 43.7975 69.478 43.3249 69.5291L40.0352 69.8306L41.091 79.8798L44.3982 79.5701C44.8725 79.5347 45.3481 79.6207 45.774 79.8188C46.1999 80.017 46.5599 80.3198 46.8153 80.6948C46.9549 80.9067 47.1033 81.1104 47.2604 81.3142C47.4174 81.5179 47.5745 81.7135 47.7403 81.9091C48.0414 82.2514 48.2351 82.6648 48.2998 83.1037C48.3645 83.5425 48.2977 83.9895 48.1068 84.3949L46.7281 87.2312L56.5798 91.4041L57.9498 88.576C58.154 88.1745 58.4715 87.8326 58.8682 87.587C59.2648 87.3415 59.7257 87.2015 60.2011 87.1823C60.736 87.1617 61.2691 87.1127 61.798 87.0356C62.2669 86.9706 62.7459 87.0257 63.1839 87.1951C63.6219 87.3644 64.0025 87.6417 64.2849 87.9973L66.2134 90.5157L75.0093 84.6313L73.0808 82.1129C72.8043 81.7527 72.6415 81.3274 72.6106 80.8852C72.5798 80.4429 72.6822 80.0014 72.9063 79.6108C73.1494 79.1652 73.3678 78.7081 73.5608 78.2416C73.7286 77.8246 74.0175 77.4595 74.3952 77.1874C74.7728 76.9153 75.2242 76.747 75.6987 76.7012L79.0058 76.3915L77.9413 66.3424L74.6341 66.6439C74.1627 66.6826 73.6891 66.5987 73.2656 66.4017C72.8422 66.2046 72.4852 65.902 72.2344 65.5273C72.086 65.3154 71.9377 65.1117 71.7806 64.9079C71.6236 64.7042 71.4665 64.5004 71.3007 64.313C71.0016 63.9665 70.8094 63.5504 70.7448 63.1095C70.6802 62.6686 70.7457 62.2196 70.9342 61.8109L72.3042 58.9909ZM66.7195 68.2902C67.7399 69.6202 68.3152 71.203 68.3724 72.8384C68.4297 74.4737 67.9664 76.0882 67.0412 77.4777C66.116 78.8671 64.7704 79.9691 63.1746 80.6442C61.5788 81.3193 59.8045 81.5373 58.0761 81.2705C56.3477 81.0037 54.7428 80.2642 53.4644 79.1454C52.186 78.0267 51.2915 76.579 50.8941 74.9854C50.4967 73.3918 50.6142 71.724 51.2317 70.1927C51.8492 68.6615 52.9391 67.3358 54.3634 66.3831C56.2728 65.1059 58.6471 64.5894 60.9643 64.9471C63.2814 65.3047 65.3515 66.5072 66.7195 68.2902Z" fill="#EBEBEB"/>
<path d="M517.247 192.326L510.685 195.863L511.845 197.738C512.018 198.007 512.105 198.317 512.094 198.631C512.083 198.944 511.976 199.248 511.784 199.506C511.583 199.8 511.391 200.101 511.217 200.419C511.074 200.7 510.847 200.937 510.564 201.102C510.281 201.267 509.953 201.352 509.62 201.348H507.316V208.431H509.638C509.971 208.427 510.299 208.513 510.581 208.677C510.864 208.842 511.091 209.079 511.234 209.36C511.409 209.678 511.601 209.979 511.802 210.273C511.993 210.531 512.101 210.835 512.111 211.149C512.122 211.462 512.036 211.772 511.863 212.041L510.702 213.916L517.264 217.453L518.433 215.57C518.603 215.303 518.848 215.086 519.143 214.942C519.437 214.798 519.769 214.733 520.1 214.755H521.217C521.548 214.734 521.879 214.799 522.174 214.943C522.468 215.087 522.714 215.304 522.884 215.57L524.053 217.461L530.606 213.924L529.446 212.041C529.281 211.771 529.2 211.463 529.212 211.152C529.224 210.841 529.33 210.539 529.516 210.281C529.716 209.988 529.908 209.678 530.083 209.368C530.226 209.087 530.453 208.85 530.736 208.685C531.019 208.521 531.346 208.435 531.68 208.439H534.001V201.357H531.662C531.329 201.36 531.001 201.275 530.718 201.11C530.435 200.946 530.209 200.709 530.065 200.427C529.891 200.118 529.699 199.808 529.498 199.515C529.312 199.256 529.207 198.955 529.195 198.644C529.182 198.333 529.263 198.025 529.428 197.754L530.589 195.871L524.036 192.334L522.866 194.193C522.697 194.46 522.451 194.677 522.157 194.821C521.863 194.965 521.531 195.03 521.2 195.008H520.641H520.083C519.75 195.028 519.418 194.963 519.123 194.82C518.827 194.676 518.58 194.459 518.407 194.193L517.247 192.326ZM520.641 199.091C521.871 199.089 523.073 199.428 524.096 200.065C525.119 200.702 525.917 201.609 526.388 202.669C526.86 203.73 526.983 204.897 526.744 206.024C526.504 207.15 525.912 208.185 525.043 208.997C524.174 209.809 523.066 210.362 521.86 210.586C520.654 210.809 519.404 210.694 518.268 210.253C517.133 209.813 516.162 209.068 515.48 208.113C514.798 207.157 514.435 206.034 514.437 204.886C514.436 204.124 514.595 203.37 514.907 202.666C515.218 201.962 515.675 201.322 516.251 200.783C516.827 200.244 517.512 199.816 518.265 199.525C519.018 199.233 519.826 199.083 520.641 199.083V199.091Z" fill="#EBEBEB"/>
<path d="M92.217 28.8758L86.2047 33.1791L87.5921 34.8988C87.7991 35.1438 87.9264 35.4392 87.9588 35.7498C87.9913 36.0605 87.9277 36.3733 87.7754 36.6511C87.6084 36.9683 87.4627 37.295 87.3391 37.6291C87.2315 37.9235 87.0381 38.1839 86.7807 38.3812C86.5232 38.5785 86.2119 38.7047 85.8818 38.7457L83.5781 39.0228L84.5555 46.0401L86.8591 45.763C87.1945 45.7193 87.5362 45.765 87.845 45.8948C88.1537 46.0245 88.4169 46.2331 88.6044 46.4965C88.8145 46.78 89.0417 47.0521 89.285 47.3115C89.5098 47.5424 89.6589 47.8287 89.7146 48.1365C89.7703 48.4442 89.7302 48.7604 89.5991 49.0475L88.7265 51.0524L95.7074 53.7664L96.58 51.7615C96.7099 51.4739 96.9234 51.226 97.1964 51.0459C97.4693 50.8658 97.7909 50.7608 98.1245 50.7427L98.683 50.6856L99.2327 50.6041C99.5556 50.5473 99.8891 50.5742 100.197 50.682C100.504 50.7898 100.775 50.9743 100.978 51.2154L102.4 52.9514L108.413 48.6481L107.008 46.9284C106.805 46.68 106.68 46.3836 106.648 46.0726C106.615 45.7616 106.677 45.4483 106.824 45.168C106.99 44.8529 107.136 44.529 107.261 44.1981C107.368 43.9038 107.562 43.6433 107.819 43.446C108.077 43.2488 108.388 43.1225 108.718 43.0816L111.022 42.8044L110.044 35.7872L107.741 36.0643C107.406 36.1088 107.065 36.0643 106.756 35.936C106.448 35.8077 106.184 35.6008 105.995 35.3389C105.777 35.0455 105.55 34.7684 105.306 34.5239C105.103 34.288 104.971 34.0054 104.925 33.7057C104.879 33.406 104.92 33.1002 105.044 32.8205L105.917 30.8156L98.936 28.1016L98.0634 30.1065C97.9319 30.393 97.7179 30.6399 97.4453 30.8197C97.1727 30.9996 96.852 31.1053 96.5189 31.1253L95.9604 31.1742L95.4456 31.1905C95.1227 31.2473 94.7892 31.2204 94.4815 31.1126C94.1739 31.0048 93.9037 30.8204 93.7004 30.5792L92.217 28.8758ZM96.5189 35.1759C97.7344 35.03 98.969 35.2235 100.067 35.7322C101.165 36.2408 102.077 37.0417 102.688 38.0339C103.299 39.0261 103.582 40.1651 103.501 41.3073C103.419 42.4494 102.978 43.5435 102.232 44.4515C101.486 45.3595 100.468 46.0408 99.3079 46.4094C98.1477 46.778 96.8965 46.8175 95.7123 46.5227C94.5281 46.228 93.4639 45.6123 92.6539 44.7533C91.844 43.8943 91.3245 42.8304 91.1611 41.696C91.052 40.939 91.1043 40.1693 91.3149 39.4312C91.5255 38.6931 91.8903 38.0012 92.3882 37.3952C92.8861 36.7893 93.5074 36.2813 94.2163 35.9004C94.9252 35.5195 95.7078 35.2733 96.5189 35.1759Z" fill="#EBEBEB"/>
<path d="M47.2941 212.76C47.6219 204.881 47.5054 196.992 46.9451 189.125C45.6965 172.879 43.0439 156.755 39.0131 140.908C36.7966 131.992 34.0741 123.222 31.2294 114.461C31.1421 114.192 30.6884 114.265 30.7669 114.543C39.5541 145.432 46.7618 177.299 46.2644 209.41C46.1248 218.376 45.0079 227.219 44.1004 236.151C44.1004 236.387 44.493 236.485 44.5541 236.241C46.3604 228.571 46.9538 220.568 47.2941 212.76Z" fill="#EBEBEB"/>
<path d="M30.7687 114.518C30.7687 114.518 17.4702 146.059 20.4458 153.443C23.4214 160.827 29.5645 162.408 29.5645 162.408C29.5645 162.408 21.4231 173.264 27.1125 183.443C32.8019 193.623 45.4373 193.142 46.3099 204.683C46.2837 204.74 46.9818 156.483 30.7687 114.518Z" fill="#EBEBEB"/>
<path d="M44.8345 184.813C44.856 184.76 44.856 184.702 44.8345 184.65C43.0891 163.116 38.763 141.834 31.9374 121.201C31.9374 121.144 31.8065 121.16 31.8239 121.201C34.4592 130.438 36.7862 139.713 38.8048 149.026C37.017 147.444 34.8328 146.306 32.4522 145.717C32.4522 145.717 32.3824 145.766 32.4522 145.782C34.9531 146.638 37.2016 148.034 39.0142 149.857C39.3982 151.691 39.7821 153.516 40.1399 155.35C37.1643 152.245 33.0456 150.705 28.9182 149.238C28.9088 149.241 28.9009 149.248 28.8953 149.256C28.8897 149.264 28.8867 149.273 28.8867 149.282C28.8867 149.292 28.8897 149.301 28.8953 149.309C28.9009 149.317 28.9088 149.323 28.9182 149.327C33.2201 150.957 37.4959 153.06 40.4104 156.524C41.4226 161.756 42.3127 167.008 43.0806 172.278C40.9321 170.176 38.1767 168.701 35.1486 168.032C35.0526 168.032 35.0002 168.138 35.0962 168.162C38.2069 169.018 40.984 170.7 43.0893 173.003H43.1417C43.4034 174.851 43.6536 176.706 43.8921 178.57C42.23 177.256 40.3534 176.2 38.3336 175.44C38.2812 175.44 38.2463 175.497 38.3336 175.514C40.3948 176.348 42.2824 177.515 43.9096 178.961C43.9096 178.961 43.9532 178.961 43.9794 178.961C44.1975 180.73 44.4157 182.498 44.6076 184.267C41.6112 180.884 37.7225 178.288 33.3248 176.736C33.3063 176.736 33.2886 176.743 33.2755 176.755C33.2624 176.767 33.255 176.784 33.255 176.801C33.255 176.819 33.2624 176.835 33.2755 176.847C33.2886 176.86 33.3063 176.867 33.3248 176.867C37.6673 178.654 41.4817 181.398 44.4419 184.862C44.4744 184.9 44.5184 184.928 44.5681 184.942C44.6179 184.957 44.6711 184.957 44.7211 184.943C45.0091 187.657 45.2708 190.371 45.4803 193.094C45.4803 193.134 45.5501 193.134 45.5501 193.094C45.3232 190.361 45.0847 187.6 44.8345 184.813Z" fill="white"/>
<path d="M34.1431 142.612C31.7347 141.212 28.9834 140.41 26.15 140.281C26.1361 140.281 26.1228 140.286 26.113 140.296C26.1032 140.305 26.0977 140.317 26.0977 140.33C26.0977 140.343 26.1032 140.356 26.113 140.365C26.1228 140.374 26.1361 140.379 26.15 140.379C28.8894 140.864 31.5478 141.686 34.0558 142.824C34.1606 142.849 34.2391 142.677 34.1431 142.612Z" fill="white"/>
<path d="M35.7584 176.001C33.9074 175.009 31.8691 174.359 29.7549 174.086C29.6851 174.086 29.6764 174.176 29.7549 174.192C31.8195 174.579 33.8165 175.231 35.6886 176.132C35.7672 176.172 35.837 176.042 35.7584 176.001Z" fill="white"/>
<path d="M82.2713 153.989C76.6455 157.622 71.4787 161.838 66.8698 166.557C62.1167 171.554 58.4505 177.367 56.0756 183.672C51.0214 196.809 48.3036 210.63 48.0302 224.586C47.8607 232.315 48.6543 240.036 50.395 247.594C50.4091 247.649 50.4453 247.697 50.4961 247.727C50.5468 247.758 50.6083 247.769 50.6678 247.759C50.7272 247.748 50.78 247.717 50.8153 247.671C50.8507 247.625 50.8657 247.569 50.8574 247.513C48.6914 234.176 48.7739 220.605 51.1018 207.292C53.388 194.251 56.9744 180.054 65.8576 169.45C70.6918 163.672 76.7216 159.132 82.6815 154.438C82.9956 154.177 82.5942 153.778 82.2713 153.989Z" fill="#EBEBEB"/>
<path d="M49.9805 215.18C53.1828 210.343 56.9461 205.849 61.2022 201.781C67.8602 195.563 73.4624 191.146 74.335 187.038C75.2076 182.93 67.6682 179.898 67.6682 179.898C67.6682 179.898 76.8743 181.447 79.3961 177.836C81.9179 174.226 83.1309 153.312 83.1309 153.312C83.1309 153.312 66.3768 164.486 58.5669 180.151C50.7571 195.816 49.9805 215.18 49.9805 215.18Z" fill="#EBEBEB"/>
<path d="M77.1197 172.929C76.0165 172.775 74.8982 172.74 73.7863 172.823C73.6554 172.823 73.6642 173.035 73.7863 173.043C74.8858 173.043 75.994 172.994 77.0935 173.043C77.1061 173.04 77.1175 173.034 77.1265 173.025C77.1355 173.016 77.1417 173.005 77.1444 172.993C77.1471 172.982 77.1462 172.969 77.1419 172.958C77.1375 172.946 77.1298 172.936 77.1197 172.929Z" fill="white"/>
<path d="M65.0877 193.215C63.3185 193.248 61.5697 193.574 59.9219 194.177C59.9219 194.177 59.9219 194.258 59.9219 194.25C61.6671 193.867 63.3512 193.712 65.079 193.435C65.1015 193.426 65.1209 193.411 65.1347 193.392C65.1486 193.373 65.1564 193.35 65.1573 193.327C65.1582 193.304 65.1522 193.282 65.1399 193.262C65.1276 193.242 65.1095 193.226 65.0877 193.215Z" fill="white"/>
<path d="M61.478 186.207C60.7434 186.202 60.01 186.262 59.2877 186.387C59.2743 186.391 59.2628 186.4 59.2547 186.411C59.2465 186.421 59.2422 186.434 59.2422 186.448C59.2422 186.461 59.2465 186.474 59.2547 186.485C59.2628 186.496 59.2743 186.504 59.2877 186.509C60.0191 186.548 60.753 186.518 61.478 186.419C61.508 186.419 61.5369 186.408 61.5582 186.388C61.5794 186.368 61.5914 186.341 61.5914 186.313C61.5914 186.285 61.5794 186.258 61.5582 186.238C61.5369 186.219 61.508 186.207 61.478 186.207Z" fill="white"/>
<path d="M0.863325 176.173C6.31642 177.9 11.5419 180.199 16.4394 183.027C21.5209 186.043 25.9276 189.951 29.4151 194.535C36.7528 204.075 42.3709 214.672 46.047 225.905C48.0972 232.125 49.3623 238.548 49.8166 245.042C49.8071 245.084 49.7824 245.122 49.7467 245.149C49.7109 245.176 49.6663 245.19 49.6203 245.19C49.5743 245.19 49.5297 245.176 49.494 245.149C49.4582 245.122 49.4335 245.084 49.424 245.042C47.8837 233.782 44.4622 222.817 39.2843 212.547C34.197 202.482 27.7833 191.772 17.9752 185.106C12.6348 181.479 6.63126 179.099 0.645173 176.589C0.331034 176.491 0.549186 176.075 0.863325 176.173Z" fill="#EBEBEB"/>
<path d="M42.1383 218.727C38.3472 215.505 34.189 212.682 29.7385 210.308C22.81 206.713 17.1817 204.35 15.4626 201.212C13.7436 198.074 19.0927 193.999 19.0927 193.999C19.0927 193.999 12.0245 197.259 9.09258 194.855C6.16061 192.451 0 175.824 0 175.824C0 175.824 16.3265 181.244 26.5098 192.239C36.6932 203.233 42.1383 218.727 42.1383 218.727Z" fill="#EBEBEB"/>
<path d="M28.5868 203.419C26.9816 203.314 25.3699 203.5 23.8398 203.965C23.8398 203.965 23.8398 204.038 23.8398 204.03C25.4008 203.78 26.9779 203.628 28.5607 203.574C28.6741 203.574 28.7003 203.427 28.5868 203.419Z" fill="white"/>
<path d="M14.3453 185.98C13.613 185.924 12.8761 185.962 12.155 186.094C12.0765 186.094 12.1027 186.224 12.155 186.216C12.8793 186.143 13.5861 186.167 14.3016 186.151C14.3239 186.152 14.3457 186.145 14.3634 186.133C14.3812 186.12 14.3937 186.102 14.3988 186.082C14.404 186.062 14.4015 186.041 14.3917 186.022C14.3819 186.003 14.3655 185.989 14.3453 185.98Z" fill="white"/>
<path d="M63.194 266.063H26.3438L31.5969 230.112L32.9407 220.895H56.5971L57.9409 230.112L63.194 266.063Z" fill="#DBDBDB"/>
<path d="M57.9417 230.112H31.5977L32.9415 220.895H56.5979L57.9417 230.112Z" fill="#C7C7C7"/>
<path d="M59.9738 217.699H29.5547V225.507H59.9738V217.699Z" fill="#DBDBDB"/>
<path d="M2.91406 266.062L69.241 265.866L135.568 265.793L268.222 265.654L400.876 265.793L467.203 265.866L533.53 266.062L467.203 266.266L400.876 266.331L268.222 266.469L135.568 266.331L69.241 266.257L2.91406 266.062Z" fill="#263238"/>
<path d="M269.969 326.805C408.158 326.805 520.181 315.34 520.181 301.198C520.181 287.055 408.158 275.59 269.969 275.59C131.781 275.59 19.7578 287.055 19.7578 301.198C19.7578 315.34 131.781 326.805 269.969 326.805Z" fill="#EBEBEB"/>
<path d="M211.721 296.957C209.687 297.6 151.388 297.772 149.155 296.484C148.282 295.995 147.785 288.065 147.409 278.464C147.331 276.394 147.27 274.25 147.217 272.082L142.566 243.035L181.546 242.799L185.22 271.854L185.071 278.244C185.071 278.244 207.427 287.494 209.714 289.173C212 290.852 213.754 296.313 211.721 296.957Z" fill="#EB9481"/>
<path d="M211.718 296.958C209.685 297.602 151.386 297.773 149.152 296.485C148.123 295.882 147.564 284.301 147.25 272.084L185.174 271.855L185.025 278.245C185.025 278.245 207.381 287.496 209.668 289.175C211.954 290.853 213.751 296.314 211.718 296.958Z" fill="white"/>
<path d="M211.725 296.959C209.692 297.603 151.393 297.774 149.159 296.486C148.287 295.997 147.789 288.067 147.414 278.466L184.997 278.246C184.997 278.246 207.354 287.497 209.64 289.175C211.926 290.854 213.758 296.315 211.725 296.959Z" fill="#A6A6A6"/>
<path d="M210.873 294.783C201.1 294.588 161.658 294.677 151.981 295.183C151.902 295.183 151.902 295.232 151.981 295.24C161.667 295.623 201.109 295.24 210.873 294.93C211.083 294.922 211.083 294.783 210.873 294.783Z" fill="#263238"/>
<path d="M205.912 287.226C204.825 287.204 203.745 287.392 202.74 287.779C201.735 288.166 200.828 288.744 200.074 289.476C198.701 290.782 197.925 292.536 197.91 294.366C197.91 294.423 198.015 294.423 198.024 294.366C198.348 292.563 199.288 290.906 200.704 289.643C202.119 288.38 203.934 287.578 205.877 287.357C205.896 287.361 205.915 287.358 205.932 287.349C205.948 287.34 205.96 287.325 205.964 287.308C205.969 287.291 205.966 287.272 205.956 287.257C205.946 287.242 205.93 287.231 205.912 287.226Z" fill="#263238"/>
<path d="M188.817 279.142C184.908 279.101 180.379 280.405 177.953 283.404C177.866 283.518 178.041 283.64 178.154 283.583C181.569 281.9 185.168 280.561 188.887 279.59C188.945 279.575 188.994 279.541 189.027 279.495C189.06 279.448 189.073 279.392 189.064 279.337C189.056 279.282 189.026 279.231 188.98 279.195C188.935 279.16 188.877 279.14 188.817 279.142Z" fill="#263238"/>
<path d="M191.853 280.225C187.935 280.225 183.406 281.496 180.989 284.487C180.893 284.609 181.067 284.732 181.189 284.675C184.6 282.985 188.195 281.643 191.914 280.673C191.97 280.658 192.02 280.625 192.052 280.579C192.085 280.534 192.099 280.479 192.091 280.424C192.084 280.369 192.056 280.319 192.012 280.283C191.968 280.246 191.911 280.225 191.853 280.225Z" fill="#263238"/>
<path d="M194.872 281.318C190.963 281.318 186.434 282.582 184.008 285.581C183.921 285.695 184.095 285.817 184.209 285.76C187.624 284.076 191.222 282.738 194.942 281.767C194.999 281.752 195.049 281.718 195.082 281.672C195.114 281.625 195.128 281.569 195.119 281.514C195.11 281.459 195.081 281.408 195.035 281.372C194.99 281.336 194.932 281.317 194.872 281.318Z" fill="#263238"/>
<path d="M197.899 282.411C193.981 282.37 189.452 283.674 187.035 286.674C186.939 286.788 187.122 286.91 187.235 286.853C190.65 285.168 194.248 283.829 197.968 282.859C198.026 282.845 198.076 282.811 198.108 282.764C198.141 282.718 198.154 282.662 198.146 282.606C198.137 282.551 198.107 282.501 198.062 282.465C198.016 282.429 197.958 282.41 197.899 282.411Z" fill="#263238"/>
<path d="M154.444 286.502C150.081 286.502 150.081 292.9 154.444 292.875C158.807 292.851 158.842 286.478 154.444 286.502Z" fill="#263238"/>
<path d="M193.012 269.378C191.031 267.846 188.535 269.378 187.322 270.951C185.303 273.731 184.1 276.957 183.832 280.307C183.832 280.381 183.893 280.413 183.954 280.413C183.97 280.482 184.003 280.547 184.05 280.601C184.098 280.656 184.159 280.699 184.228 280.727C184.298 280.755 184.373 280.767 184.448 280.762C184.524 280.757 184.597 280.735 184.661 280.698C187.436 278.897 190.647 277.283 192.75 274.732C193.946 273.249 194.923 270.804 193.012 269.378ZM188.247 277.153C186.904 278.074 185.516 278.93 184.207 279.9C184.905 278.074 185.507 276.232 186.398 274.472C186.809 273.628 187.281 272.811 187.811 272.027C188.684 270.812 192.488 267.748 192.89 271.717C193.117 273.893 189.844 276.061 188.247 277.153Z" fill="#263238"/>
<path d="M174.096 281.693C177.499 282.166 181.015 281.253 184.358 280.756C184.43 280.738 184.497 280.705 184.553 280.659C184.61 280.612 184.654 280.554 184.682 280.489C184.71 280.424 184.721 280.354 184.715 280.284C184.708 280.215 184.685 280.147 184.645 280.088C184.658 280.078 184.668 280.067 184.675 280.053C184.683 280.04 184.686 280.025 184.686 280.01C184.686 279.995 184.683 279.98 184.675 279.967C184.668 279.954 184.658 279.942 184.645 279.933C181.96 277.696 178.692 276.158 175.169 275.475C173.11 275.108 170.195 275.638 169.933 278.026C169.619 280.275 172.106 281.4 174.096 281.693ZM171.722 279.623C169.104 276.493 174.104 276.224 175.605 276.55C176.579 276.778 177.535 277.067 178.467 277.414C180.376 278.153 182.243 278.983 184.061 279.9C182.403 280.055 180.771 280.332 179.122 280.544C177.15 280.788 173.188 281.343 171.722 279.623Z" fill="#263238"/>
<path d="M85.2539 108.779C85.2539 108.779 130.516 180.696 131.729 185.749C133.588 193.508 143.439 270.128 143.439 270.128L190.56 269.313C190.56 269.313 182.445 201.756 174.757 179.498C169.225 163.467 129.277 110.295 129.277 110.295L85.2539 108.779Z" fill="#37474F"/>
<path d="M186.276 262.595C179.513 262.546 155.543 262.294 146.537 263.076C146.468 263.076 146.476 263.19 146.537 263.198C149.635 263.614 179.505 262.97 186.267 262.766C186.281 262.771 186.297 262.773 186.311 262.771C186.326 262.769 186.341 262.764 186.353 262.757C186.366 262.749 186.376 262.738 186.383 262.726C186.391 262.714 186.395 262.7 186.396 262.686C186.396 262.672 186.394 262.658 186.388 262.646C186.381 262.633 186.372 262.621 186.36 262.613C186.349 262.604 186.335 262.598 186.32 262.595C186.306 262.592 186.291 262.592 186.276 262.595Z" fill="#263238"/>
<path d="M92.9747 115.382C95.9416 119.726 99.083 123.98 102.102 128.292C105.121 132.603 108.158 136.915 111.151 141.218C117.12 149.911 122.937 158.662 128.603 167.47C131.369 171.552 133.734 175.859 135.671 180.339C137.44 184.819 138.769 189.44 139.642 194.145C140.567 198.864 141.178 203.632 141.745 208.4C142.327 213.469 142.934 218.541 143.569 223.616C144.808 233.999 146.05 244.383 147.295 254.766C147.443 256.037 147.591 257.309 147.731 258.588C147.731 258.776 147.391 258.808 147.364 258.588C145.977 248.278 144.825 237.928 143.569 227.618C142.94 222.472 142.315 217.33 141.692 212.19C141.108 207.405 140.549 202.613 139.755 197.862C139.027 193.172 137.918 188.54 136.439 184.006C134.81 179.312 132.627 174.802 129.93 170.559C124.476 161.765 118.699 153.125 112.923 144.478C107.146 135.831 101.212 127.11 95.1214 118.569C94.3709 117.517 93.6117 116.466 92.8264 115.431C92.7653 115.374 92.9224 115.3 92.9747 115.382Z" fill="#263238"/>
<path d="M100.089 301.196C97.942 301.074 42.4965 280.096 40.9607 278.107C40.8923 277.99 40.862 277.857 40.8735 277.724C40.8735 275.939 44.7217 269.712 47.9329 261.53C48.1336 261.008 49.5646 258.579 51.5455 255.311C57.0516 246.354 66.6503 230.926 66.6503 230.926L102.89 244.374L85.5423 268.62L82.8459 274.488C82.8459 274.488 99.8531 290.911 101.284 293.234C102.715 295.557 102.227 301.311 100.089 301.196Z" fill="#EB9481"/>
<path d="M100.089 301.196C97.942 301.074 42.4965 280.095 40.9607 278.107C40.8923 277.99 40.862 277.856 40.8735 277.723C40.8735 275.939 44.7217 269.712 47.9329 261.529C48.1336 261.008 49.5646 258.579 51.5455 255.311L85.5772 268.62L82.8808 274.488C82.8808 274.488 99.888 290.91 101.319 293.233C102.75 295.556 102.227 301.31 100.089 301.196Z" fill="white"/>
<path d="M100.089 301.198C97.9427 301.076 42.4972 280.097 40.9614 278.109C40.368 277.351 42.8462 270.285 47.9423 261.531L82.8466 274.498C82.8466 274.498 99.8537 290.904 101.294 293.244C102.733 295.583 102.227 301.312 100.089 301.198Z" fill="#A6A6A6"/>
<path d="M100.176 298.882C91.1972 295.28 54.6 281.539 45.4289 278.621C45.3504 278.621 45.3329 278.621 45.4289 278.67C54.251 282.419 90.9616 295.883 100.141 299.045C100.316 299.086 100.368 298.956 100.176 298.882Z" fill="#263238"/>
<path d="M98.6035 290.135C97.6079 289.727 96.5322 289.516 95.4447 289.516C94.3572 289.516 93.2815 289.727 92.2859 290.135C90.4956 290.867 89.0766 292.216 88.3242 293.901C88.3242 293.949 88.4028 293.99 88.4289 293.941C89.4576 292.379 91.0009 291.169 92.8274 290.495C94.6539 289.821 96.6652 289.717 98.5599 290.2C98.5746 290.197 98.5872 290.188 98.5953 290.176C98.6033 290.164 98.6063 290.149 98.6035 290.135Z" fill="#263238"/>
<path d="M86.0107 276.656C82.4068 275.246 77.6772 274.871 74.2304 276.802C74.0996 276.876 74.2304 277.047 74.3439 277.039C78.1862 276.675 82.0592 276.694 85.8972 277.096C85.9563 277.102 86.0156 277.088 86.0642 277.056C86.1128 277.024 86.1473 276.976 86.1612 276.922C86.1751 276.869 86.1675 276.812 86.1398 276.763C86.1121 276.714 86.0662 276.676 86.0107 276.656Z" fill="#263238"/>
<path d="M88.3778 278.726C84.774 277.316 80.0444 276.941 76.5976 278.873C76.4667 278.946 76.5976 279.117 76.7111 279.109C80.5532 278.741 84.4266 278.76 88.2644 279.166C88.3235 279.172 88.3828 279.158 88.4314 279.126C88.48 279.094 88.5145 279.047 88.5284 278.993C88.5423 278.939 88.5347 278.882 88.507 278.833C88.4793 278.784 88.4334 278.746 88.3778 278.726Z" fill="#263238"/>
<path d="M90.753 280.796C87.1404 279.386 82.4109 279.012 78.9728 280.943C78.8332 281.016 78.9728 281.188 79.0775 281.179C82.9197 280.811 86.7931 280.83 90.6309 281.237C90.6911 281.246 90.753 281.234 90.8042 281.203C90.8555 281.172 90.8924 281.124 90.9078 281.069C90.9231 281.013 90.9157 280.955 90.8871 280.904C90.8584 280.854 90.8106 280.816 90.753 280.796Z" fill="#263238"/>
<path d="M93.1163 282.868C89.5037 281.458 84.7829 281.083 81.3361 283.006C81.1965 283.088 81.3361 283.259 81.4408 283.251C85.2829 282.883 89.1564 282.902 92.9941 283.308C93.0544 283.317 93.1163 283.305 93.1675 283.274C93.2188 283.243 93.2557 283.195 93.271 283.14C93.2864 283.085 93.279 283.026 93.2503 282.976C93.2217 282.926 93.1739 282.887 93.1163 282.868Z" fill="#263238"/>
<path d="M51.1887 271.432C47.1137 269.916 44.5831 275.841 48.6756 277.357C52.7682 278.873 55.3074 272.947 51.1887 271.432Z" fill="#263238"/>
<path d="M93.8212 269.076C92.5908 266.965 89.685 267.487 87.9136 268.538C84.9296 270.405 82.5225 272.971 80.9327 275.979C80.9257 275.992 80.922 276.007 80.9219 276.021C80.9217 276.036 80.9251 276.051 80.9319 276.064C80.9386 276.077 80.9484 276.089 80.9606 276.098C80.9729 276.108 80.9872 276.114 81.0025 276.118C81.0025 276.387 81.1945 276.704 81.5348 276.639C84.842 275.93 88.4633 275.563 91.4302 273.933C93.1318 272.988 94.9817 271.073 93.8212 269.076ZM86.2731 274.61C84.6588 274.993 83.0357 275.303 81.4388 275.743C82.7597 274.256 84.1606 272.834 85.6361 271.48C86.3625 270.834 87.1351 270.235 87.9485 269.687C89.2138 268.872 93.9957 267.364 92.774 271.187C92.1021 273.298 88.2016 274.153 86.2731 274.61Z" fill="#263238"/>
<path d="M71.3359 273.859C74.3028 275.489 77.9241 275.872 81.2226 276.59C81.5629 276.663 81.7898 276.345 81.7636 276.068C81.78 276.066 81.7956 276.061 81.809 276.052C81.8224 276.043 81.8331 276.031 81.8402 276.017C81.8472 276.003 81.8502 275.988 81.849 275.972C81.8479 275.957 81.8425 275.942 81.8334 275.929C80.2462 272.915 77.8388 270.344 74.8525 268.472C73.1073 267.413 70.1841 266.883 68.945 268.986C67.7059 271.088 69.5994 272.906 71.3359 273.859ZM69.9746 271.105C68.7617 267.282 73.5349 268.798 74.8002 269.621C75.6126 270.17 76.3825 270.772 77.1039 271.422C78.5765 272.779 79.9745 274.204 81.2924 275.693C79.6955 275.253 78.0725 274.935 76.4581 274.552C74.5035 274.063 70.6378 273.248 69.9746 271.105Z" fill="#263238"/>
<path d="M88.3605 267.267L47.793 251.969C47.793 251.969 98.0901 182.897 98.4566 177.754C98.7882 173.206 76.6938 133.58 75.8299 122.031C74.8875 109.562 81.3098 99.9201 88.378 93.9297L130.22 110.548C130.22 110.548 125.804 117.141 118.876 120.817C118.876 120.817 140.333 166.621 139.111 180.704C137.89 194.788 88.3605 267.267 88.3605 267.267Z" fill="#37474F"/>
<path d="M90.159 260.063C84.2951 257.708 86.0141 258.303 80.1153 255.988C77.2357 254.863 58.3001 247.504 55.3856 246.893C55.3245 246.893 55.2808 246.974 55.3419 247.007C57.8638 248.449 76.9564 255.499 79.8622 256.575C85.8047 258.759 84.1205 258.075 90.0892 260.194C90.0981 260.205 90.1099 260.214 90.1235 260.219C90.1371 260.225 90.152 260.227 90.1668 260.226C90.1816 260.225 90.1959 260.22 90.2082 260.212C90.2204 260.204 90.2304 260.194 90.237 260.181C90.2437 260.169 90.2468 260.155 90.2462 260.141C90.2455 260.127 90.241 260.114 90.2332 260.102C90.2254 260.09 90.2145 260.08 90.2015 260.074C90.1885 260.067 90.1739 260.063 90.159 260.063Z" fill="#263238"/>
<path d="M125.733 119.977C121.376 120.926 117.114 122.218 112.993 123.841C112.976 123.846 112.961 123.854 112.947 123.865C112.934 123.876 112.924 123.889 112.916 123.904C112.908 123.919 112.904 123.935 112.903 123.951C112.902 123.968 112.904 123.984 112.91 124C112.915 124.015 112.924 124.029 112.936 124.042C112.948 124.054 112.962 124.064 112.978 124.071C112.993 124.078 113.011 124.083 113.028 124.084C113.046 124.085 113.063 124.082 113.08 124.077C117.356 122.912 121.701 121.819 125.907 120.442C126.23 120.336 126.064 119.912 125.733 119.977Z" fill="#263238"/>
<path d="M120.752 118.395C120.345 119.071 119.987 119.77 119.679 120.49C119.377 121.036 119.191 121.631 119.129 122.242C119.129 122.364 119.303 122.389 119.382 122.315C119.82 121.826 120.173 121.276 120.429 120.685C120.787 120.042 121.153 119.406 121.494 118.746C121.729 118.265 121.022 117.955 120.752 118.395Z" fill="#263238"/>
<path d="M121.275 114.697C121.537 114.094 121.79 113.499 122.061 112.895C122.331 112.292 122.671 111.673 122.933 111.037C122.933 110.939 123.143 111.037 123.099 111.111C122.837 111.714 122.671 112.349 122.471 112.969C122.27 113.588 122.043 114.208 121.825 114.827C121.415 115.976 120.952 117.117 120.385 118.234C121.072 118.266 121.757 118.154 122.392 117.908C123.041 117.52 123.539 116.949 123.815 116.278C124.181 115.609 124.521 114.925 124.897 114.257C125.358 113.534 125.747 112.773 126.057 111.983C126.057 111.885 126.267 111.983 126.223 112.056C125.654 113.727 124.909 115.34 123.998 116.873C123.605 117.468 123.3 118.095 122.584 118.323C121.81 118.526 120.999 118.578 120.202 118.478C120.097 118.478 119.975 118.478 120.01 118.332C120.367 117.101 120.79 115.888 121.275 114.697Z" fill="#263238"/>
<path d="M119.496 122.309C120.988 125.251 122.297 128.185 123.685 131.119C125.072 134.053 126.302 136.889 127.55 139.807C130.046 145.691 132.28 151.69 134.243 157.737C135.212 160.737 136.111 163.76 136.913 166.808C137.798 169.847 138.445 172.941 138.851 176.067C139.201 179.188 138.904 182.342 137.978 185.358C137.016 188.339 135.781 191.238 134.287 194.022C133.371 195.782 133.065 195.546 133.501 194.657C134.749 192.131 138.022 184.478 137.786 178.047C137.595 174.969 137.087 171.915 136.268 168.927C135.506 165.847 134.648 162.79 133.693 159.758C131.835 153.776 129.627 147.916 127.358 142.064C126.084 138.804 124.741 135.544 123.432 132.284C122.123 129.024 120.814 126.025 119.348 122.423C119.304 122.276 119.452 122.219 119.496 122.309Z" fill="#263238"/>
<path d="M88.6982 112.585C89.4225 112.332 90.4435 112.748 91.1764 112.862C92.1258 113.012 93.0849 113.102 94.0473 113.131C94.9995 113.162 95.9529 113.132 96.9008 113.041C97.8553 113.018 98.7907 112.786 99.632 112.365C101.012 111.426 102.196 110.257 103.122 108.917C104.227 107.548 105.139 106.053 105.836 104.467C105.836 104.369 106.02 104.467 105.985 104.532C105.679 105.437 105.452 106.35 105.112 107.238C104.736 108.073 104.286 108.877 103.768 109.642C102.928 111.183 101.686 112.5 100.156 113.473C98.4714 114.37 96.3074 114.288 94.4313 114.215C93.3432 114.155 92.2612 114.022 91.1939 113.815C90.426 113.661 89.1345 113.546 88.6459 112.919C88.6229 112.895 88.6058 112.866 88.5959 112.836C88.586 112.805 88.5834 112.772 88.5884 112.74C88.5934 112.708 88.6058 112.678 88.6248 112.651C88.6438 112.624 88.6689 112.602 88.6982 112.585Z" fill="#263238"/>
<path d="M59.3706 244.723C66.0373 235.291 72.5818 225.782 79.0042 216.197C85.4266 206.613 91.7618 196.955 98.0096 187.224C99.5018 184.901 101.221 182.586 102.181 180.011C103.228 177.215 102.634 174.501 101.692 171.763C99.9125 166.767 97.8324 161.869 95.4616 157.093C93.123 152.276 90.6012 147.541 88.123 142.789C85.6448 138.037 83.0531 133.343 81.1421 128.388C79.3969 123.652 78.6901 118.746 80.0514 113.84C81.4126 108.933 84.3446 104.597 87.4075 100.514C88.2103 99.4383 89.0392 98.3706 89.8508 97.2541C89.9118 97.1726 90.0427 97.2541 89.9817 97.3519C86.6047 101.606 83.3149 106.113 81.3341 111.109C80.3217 113.572 79.7555 116.175 79.6587 118.811C79.6422 121.487 80.0871 124.148 80.9763 126.692C82.6168 131.648 85.2085 136.334 87.6256 140.996C90.0427 145.658 92.6257 150.483 95.0079 155.283C97.4655 160.115 99.65 165.063 101.552 170.108C102.364 172.35 103.298 174.697 103.228 177.101C103.167 179.734 101.823 182.105 100.427 184.322C94.3185 193.98 88.0619 203.524 81.6919 213.011C75.3218 222.498 68.7685 231.984 62.1367 241.373L59.6236 244.919C59.4927 245.065 59.2658 244.894 59.3706 244.723Z" fill="#263238"/>
<path d="M132.538 66.6184C136.317 74.361 155.401 85.0296 164.336 86.1788C170.759 86.9938 190.288 87.2872 196.981 86.3336C204.834 85.2089 198.83 65.4448 194.197 65.9582C181.457 67.3437 170.636 68.8923 167.233 68.8923C163.08 68.8923 140.61 62.1602 137.905 61.2067C131.273 58.9002 130.401 62.2254 132.538 66.6184Z" fill="#EB9481"/>
<path d="M132.661 68.6799C137.443 75.2897 153.333 86.0968 153.333 86.0968L155.541 81.5327L162.845 66.4386C162.845 66.4386 148.246 62.1598 138.639 60.2037C137.508 59.9634 136.358 59.8108 135.201 59.7473C129.066 59.4376 128.534 62.9748 132.661 68.6799Z" fill="#FFC727"/>
<path d="M132.661 68.6812C137.443 75.291 153.333 86.0981 153.333 86.0981L155.541 81.534C149.616 75.1035 140.462 65.3641 135.201 59.7649C129.066 59.4389 128.534 62.9761 132.661 68.6812Z" fill="#263238"/>
<path d="M150.473 83.0337C151.685 80.2545 157.078 69.0644 158.422 66.7334C158.509 66.5704 158.649 66.5867 158.57 66.7334C156.231 72.2983 153.569 77.7398 150.595 83.0337C150.56 83.1315 150.42 83.0989 150.473 83.0337Z" fill="#263238"/>
<path d="M191.859 66.1622C199.608 65.2168 209.198 63.5949 217.322 66.8142C218.235 67.1485 219 67.76 219.495 68.5502C223.16 69.9357 223.561 71.9651 223.561 71.9651C226.554 74.2309 226.659 76.3662 226.659 76.3662C226.659 76.3662 230.952 77.9962 230.298 80.6206C229.582 83.522 223.701 80.6206 219.425 80.8569C209.608 81.4275 195.865 84.7935 193.029 85.2173L191.859 66.1622Z" fill="#EB9481"/>
<path d="M208.695 74.7043C211.565 74.521 214.445 74.521 217.316 74.7043C220.442 75.0706 223.534 75.6564 226.566 76.4566C226.585 76.4631 226.607 76.462 226.626 76.4536C226.645 76.4452 226.659 76.4302 226.666 76.4118C226.673 76.3934 226.672 76.3732 226.663 76.3556C226.654 76.3381 226.638 76.3245 226.618 76.3181C220.922 74.2309 214.723 73.6445 208.695 74.6228C208.555 74.6065 208.555 74.7125 208.695 74.7043Z" fill="#263238"/>
<path d="M206.867 66.2347C211.658 66.4629 214.651 67.1801 219.467 68.533V68.4841C214.162 66.414 211.989 66.2184 206.841 66.0391C206.675 66.1043 206.684 66.2347 206.867 66.2347Z" fill="#263238"/>
<path d="M207.647 82.2422C206.4 82.7882 206.705 83.3995 209.087 83.913C211.469 84.4264 221.374 84.5813 221.025 87.8087C220.675 91.0362 206.705 90.6287 202.804 89.4877C198.904 88.3467 193.031 85.217 193.031 85.217C195.797 84.785 202.29 83.1469 207.647 82.2422Z" fill="#EB9481"/>
<path d="M142.913 78.9576C142.852 80.3513 142.713 81.7694 142.503 83.1793C142.503 83.1223 142.503 83.0734 142.564 83.0245C142.852 82.291 143.14 81.5412 143.489 80.8321C143.489 80.8321 143.577 80.8321 143.568 80.8321C143.4 81.6091 143.149 82.3682 142.817 83.0979C142.66 83.4483 142.512 83.7906 142.346 84.1329C142.241 84.7605 142.119 85.3799 141.988 85.9993C141.727 87.1648 140.549 92.1201 140.243 92.9595C140.191 93.1307 139.964 93.09 139.981 92.8944C140.043 91.9815 141.029 86.8225 141.229 85.6489C141.619 83.3828 142.141 81.1382 142.791 78.925C142.835 78.8842 142.922 78.9168 142.913 78.9576Z" fill="#263238"/>
<path d="M133.841 116.016C131.511 117.133 128.509 118.869 114.984 116.383C114.111 116.22 113.291 116.024 112.436 115.788C99.757 112.235 84.5126 98.3059 83.6836 97.3197C83.6836 97.3197 103.832 66.8137 129.6 57.221C132.785 56.0392 138.056 58.3212 140.944 61.1656C141.983 62.1844 144.243 69.6744 143.379 75.7381C142.515 81.8018 136.162 114.9 133.841 116.016Z" fill="#FFC727"/>
<path d="M132.027 75.4629C132.124 76.752 131.931 78.0458 131.46 79.2609C131.349 77.9714 131.543 76.6749 132.027 75.4629Z" fill="white"/>
<path d="M123.24 96.2363C123.296 96.8779 123.272 97.5232 123.17 98.1598C123.086 98.8011 122.919 99.4305 122.673 100.034C122.613 99.3902 122.636 98.7416 122.743 98.1027C122.832 97.4649 122.999 96.8388 123.24 96.2363Z" fill="white"/>
<path d="M108.308 80.5293C108.406 81.8211 108.213 83.1178 107.741 84.3354C107.631 83.0433 107.825 81.7444 108.308 80.5293Z" fill="white"/>
<path d="M137.775 95.1758C137.831 95.82 137.808 96.4681 137.706 97.1074C137.622 97.7487 137.455 98.3781 137.208 98.9819C137.148 98.3378 137.172 97.6892 137.278 97.0503C137.366 96.4097 137.533 95.7807 137.775 95.1758Z" fill="white"/>
<path d="M118.602 77.8409C119.288 77.7863 119.979 77.8054 120.661 77.8979C121.348 77.9792 122.022 78.138 122.668 78.3706C121.288 78.4632 119.902 78.2827 118.602 77.8409Z" fill="white"/>
<path d="M101.66 92.8451C103.04 92.7543 104.426 92.9347 105.727 93.3749C104.346 93.4783 102.958 93.2974 101.66 92.8451Z" fill="white"/>
<path d="M121.625 109.088C123.005 108.995 124.391 109.176 125.691 109.618C124.311 109.72 122.923 109.539 121.625 109.088Z" fill="white"/>
<path d="M96.4297 103.187C97.8099 103.096 99.1951 103.277 100.496 103.717C99.1155 103.818 97.7278 103.638 96.4297 103.187Z" fill="white"/>
<path d="M131.895 60.8569C133.275 60.766 134.66 60.9465 135.961 61.3866C134.581 61.4775 133.195 61.297 131.895 60.8569Z" fill="white"/>
<path d="M126.965 66.0547C126.524 66.55 126.02 66.9934 125.464 67.375C124.923 67.7655 124.338 68.099 123.719 68.3693C124.157 67.8772 124.655 67.4341 125.202 67.049C125.748 66.657 126.339 66.3235 126.965 66.0547Z" fill="white"/>
<path d="M100.102 80.832C99.6559 81.323 99.1493 81.7634 98.5929 82.1442C98.0576 82.5421 97.4714 82.8761 96.8477 83.1385C97.2965 82.6496 97.8029 82.2095 98.3573 81.8264C98.8938 81.4301 99.4798 81.0963 100.102 80.832Z" fill="white"/>
<path d="M133.649 87.5C133.203 87.9936 132.696 88.4367 132.14 88.8203C131.603 89.2165 131.017 89.5504 130.395 89.8146C130.841 89.3211 131.348 88.878 131.904 88.4943C132.444 88.1021 133.029 87.7685 133.649 87.5Z" fill="white"/>
<path d="M111.923 100.279C111.476 100.773 110.97 101.216 110.413 101.6C109.876 101.995 109.29 102.328 108.668 102.594C109.114 102.1 109.621 101.657 110.178 101.274C110.717 100.881 111.303 100.548 111.923 100.279Z" fill="white"/>
<path d="M141.974 70.041C141.527 70.5346 141.021 70.9777 140.464 71.3613C139.923 71.7519 139.338 72.0853 138.719 72.3557C139.165 71.8621 139.672 71.419 140.228 71.0353C140.766 70.6403 141.352 70.3065 141.974 70.041Z" fill="white"/>
<path d="M141.521 84.8506C140.993 84.4336 140.518 83.9604 140.108 83.4406C139.683 82.9398 139.325 82.3924 139.043 81.8105C139.573 82.2226 140.048 82.6933 140.457 83.2124C140.873 83.7211 141.23 84.2703 141.521 84.8506Z" fill="white"/>
<path d="M93.0915 95.0537C92.5631 94.6367 92.0886 94.1635 91.6779 93.6437C91.2579 93.1399 90.9007 92.593 90.6133 92.0137C91.1417 92.4306 91.6161 92.9038 92.0269 93.4236C92.4499 93.9255 92.8072 94.4727 93.0915 95.0537Z" fill="white"/>
<path d="M135.631 107.19C135.1 106.778 134.626 106.307 134.217 105.788C133.799 105.283 133.442 104.737 133.152 104.158C133.681 104.575 134.155 105.048 134.566 105.568C134.987 106.068 135.344 106.613 135.631 107.19Z" fill="white"/>
<path d="M114.31 72.5924C113.782 72.1783 113.308 71.7079 112.897 71.1906C112.48 70.6844 112.123 70.1379 111.832 69.5605C112.362 69.9726 112.837 70.4433 113.246 70.9624C113.662 71.4685 114.019 72.015 114.31 72.5924Z" fill="white"/>
<path d="M114.685 114.101C114.157 113.684 113.682 113.21 113.272 112.691C112.853 112.186 112.496 111.639 112.207 111.061C112.737 111.473 113.212 111.943 113.621 112.462C114.041 112.969 114.398 113.519 114.685 114.101Z" fill="white"/>
<path d="M118.309 89.6181C117.786 89.1989 117.315 88.7259 116.904 88.2082C116.478 87.7083 116.121 87.1607 115.84 86.5781C116.366 86.9952 116.837 87.4684 117.245 87.9881C117.669 88.4892 118.026 89.0365 118.309 89.6181Z" fill="white"/>
<path d="M136.225 69.2926C132.935 68.7221 129.846 62.3731 129.453 58.1024C129.453 57.809 130.989 55.4862 132.743 52.5766C133.807 50.808 134.933 48.8113 135.832 46.9204C136.015 46.5374 137.088 47.8332 137.088 47.8332L139.427 49.4633L147.15 54.9972C145.311 57.0583 143.749 59.3218 142.499 61.7374C142.375 61.9992 142.282 62.2723 142.219 62.5524C142.216 62.5985 142.216 62.6448 142.219 62.691C141.739 64.3047 139.392 69.8387 136.225 69.2926Z" fill="#EB9481"/>
<path d="M142.218 62.5921C142.215 62.6382 142.215 62.6845 142.218 62.7306C141.76 62.6051 141.313 62.4442 140.883 62.2498C132.428 58.5496 136.154 47.9707 136.154 47.9707L139.47 49.5029L147.192 55.0369C145.353 57.098 143.791 59.3615 142.541 61.7771C142.403 62.0372 142.294 62.3104 142.218 62.5921Z" fill="#263238"/>
<path d="M156.023 32.4785C156.023 32.4785 159.889 34.7687 159.907 38.8438C159.924 42.9189 158.161 46.9043 157.795 47.051C157.428 47.1977 156.023 32.4785 156.023 32.4785Z" fill="#263238"/>
<path d="M136.843 34.5954C134.521 38.8742 134.644 52.3627 137.541 55.8347C141.747 60.8715 149.844 62.6075 154.74 57.6277C159.478 52.8028 158.989 35.2311 155.612 31.9547C150.7 27.1135 140.281 28.2627 136.843 34.5954Z" fill="#EB9481"/>
<path d="M149.164 45.3945C149.164 45.3945 149.085 45.4434 149.094 45.476C149.146 46.397 149.041 47.4565 148.16 47.7825C148.16 47.7825 148.16 47.8396 148.16 47.8314C149.251 47.6684 149.373 46.2584 149.164 45.3945Z" fill="#263238"/>
<path d="M148.268 44.4587C146.68 44.3772 146.628 47.3438 148.102 47.4172C149.577 47.4905 149.594 44.5239 148.268 44.4587Z" fill="#263238"/>
<path d="M154.547 45.3633C154.547 45.3633 154.626 45.3633 154.626 45.4448C154.573 46.3657 154.687 47.4253 155.577 47.7431C155.577 47.7431 155.577 47.8002 155.577 47.792C154.477 47.6372 154.346 46.2272 154.547 45.3633Z" fill="#263238"/>
<path d="M155.449 44.418C157.029 44.3284 157.107 47.295 155.641 47.3765C154.175 47.458 154.123 44.4914 155.449 44.418Z" fill="#263238"/>
<path d="M147.272 42.2013C147.689 42.0904 148.1 41.9599 148.503 41.8101C148.961 41.7326 149.379 41.5146 149.69 41.1906C149.765 41.072 149.796 40.9335 149.779 40.7965C149.762 40.6594 149.697 40.5316 149.594 40.4327C149.357 40.265 149.078 40.1592 148.783 40.1263C148.489 40.0933 148.19 40.1344 147.918 40.2452C147.329 40.3925 146.82 40.7379 146.487 41.2151C146.421 41.3286 146.391 41.4575 146.4 41.5866C146.41 41.7156 146.459 41.8393 146.542 41.9431C146.624 42.0469 146.737 42.1264 146.867 42.1722C146.996 42.2179 147.137 42.228 147.272 42.2013Z" fill="#263238"/>
<path d="M156.527 43.512C156.103 43.4234 155.683 43.3145 155.271 43.186C154.811 43.1292 154.384 42.9314 154.058 42.6236C153.974 42.5103 153.933 42.3737 153.943 42.2361C153.952 42.0985 154.011 41.968 154.11 41.8657C154.335 41.6859 154.608 41.5661 154.9 41.5188C155.192 41.4715 155.491 41.4984 155.768 41.5967C156.365 41.7122 156.894 42.032 157.252 42.4932C157.326 42.6024 157.366 42.7295 157.364 42.8591C157.363 42.9886 157.322 43.1151 157.245 43.2231C157.168 43.331 157.06 43.4158 156.932 43.4671C156.805 43.5184 156.664 43.534 156.527 43.512Z" fill="#263238"/>
<path d="M146.93 54.1077C147.165 54.3277 147.392 54.6211 147.75 54.6537C148.117 54.6536 148.479 54.5814 148.814 54.4418C148.814 54.4418 148.875 54.4418 148.814 54.4907C148.671 54.6699 148.479 54.8093 148.257 54.894C148.036 54.9787 147.794 55.0055 147.558 54.9716C147.358 54.9208 147.179 54.8165 147.043 54.6717C146.906 54.5268 146.818 54.3477 146.79 54.1566C146.783 54.1393 146.784 54.1201 146.792 54.1033C146.8 54.0865 146.815 54.0734 146.834 54.0669C146.852 54.0604 146.873 54.0611 146.891 54.0687C146.909 54.0764 146.923 54.0904 146.93 54.1077Z" fill="#263238"/>
<path d="M152.64 50.1786C152.64 50.1786 152.683 51.5479 152.64 52.1917C151.299 52.0588 149.945 52.1027 148.617 52.3221C148.303 52.3873 148.338 52.151 148.695 51.9961C149.765 51.5396 150.956 51.392 152.116 51.5723C152.186 51.4012 152.003 49.4533 152.116 49.4614C152.644 49.5582 153.155 49.7228 153.634 49.9504C153.634 47.0816 153.146 44.2453 153.189 41.3765C153.189 41.2787 153.355 41.2624 153.373 41.3765C153.993 44.4113 154.285 47.4967 154.245 50.5861C154.254 50.9366 152.901 50.309 152.64 50.1786Z" fill="#263238"/>
<path d="M150.672 51.7034C150.324 52.558 149.678 53.2785 148.839 53.7491C147.522 54.2463 147.094 53.1297 148.42 52.1191C149.116 51.7907 149.895 51.6469 150.672 51.7034Z" fill="#263238"/>
<path d="M149.303 53.4971C149.163 53.603 149.007 53.6883 148.84 53.7497C147.627 54.2062 147.147 53.3015 148.125 52.3887C148.788 52.4376 149.547 52.6658 149.303 53.4971Z" fill="#FF99BA"/>
<path d="M136.178 46.1287C137.775 46.5851 139.608 42.1026 140.131 40.4236C140.585 38.9077 141.109 34.0909 141.187 33.7568C141.266 33.4226 148.168 38.0193 152.165 36.9272C156.161 35.8351 158.875 32.4528 158.936 30.8798C158.997 29.3068 153.997 25.3132 149.678 25.1095C145.358 24.9057 139.503 29.9996 139.503 29.9996C140.21 29.2499 140.852 28.4486 141.423 27.6034C141.353 27.4241 138.561 28.4673 138.046 30.3256C138.046 30.3256 138.604 27.9865 138.395 27.9457C138.185 27.905 136.013 29.9018 136.501 31.4177C136.501 31.4177 133.988 33.4471 133.761 35.6721C133.534 37.8971 134.302 45.5908 136.178 46.1287Z" fill="#263238"/>
<path d="M155.029 36.0793C153.84 36.6812 152.56 37.1099 151.233 37.3507C149.743 37.4748 148.244 37.2507 146.87 36.6987C145.486 36.1993 144.2 35.4887 143.066 34.5959C142.062 33.8298 141.163 32.8926 140.09 32.2079C139.819 32.0286 139.514 32.3954 139.68 32.6236C141.47 34.986 144.029 36.7465 146.975 37.6441C148.343 38.0608 149.804 38.1387 151.214 37.8701C152.624 37.6015 153.936 36.9957 155.02 36.1119C155.02 36.1119 155.046 36.0793 155.029 36.0793Z" fill="#263238"/>
<path d="M137.843 45.7303C137.843 45.7303 135.365 41.0358 133.131 41.7938C130.897 42.5517 132.259 49.0474 134.554 50.2373C134.835 50.4072 135.15 50.5223 135.479 50.5757C135.809 50.6292 136.147 50.6198 136.473 50.5483C136.799 50.4767 137.106 50.3445 137.376 50.1594C137.646 49.9743 137.873 49.7402 138.044 49.4712L137.843 45.7303Z" fill="#EB9481"/>
<path d="M133.582 43.6406C133.582 43.6406 133.53 43.6406 133.582 43.7058C135.17 44.586 135.816 46.1509 136.2 47.7809C136.127 47.6083 136.016 47.4525 135.873 47.3242C135.73 47.1958 135.558 47.0981 135.371 47.0376C135.183 46.9772 134.984 46.9555 134.787 46.974C134.589 46.9926 134.398 47.051 134.228 47.1452C134.175 47.1452 134.228 47.2348 134.228 47.2348C134.54 47.1895 134.859 47.2357 135.142 47.3671C135.425 47.4984 135.657 47.7085 135.807 47.9684C136.057 48.4036 136.256 48.8626 136.4 49.3376C136.453 49.4924 136.741 49.4517 136.715 49.2805C137.09 47.2511 135.868 44.1785 133.582 43.6406Z" fill="#263238"/>
<path d="M121.486 66.691C119.741 75.9251 130.457 107.034 137.324 112.845C147.542 121.484 166.434 127.165 173.284 129.015C176.269 129.83 184.523 110.213 181.504 108.917C175.038 106.17 154.951 100.302 153.04 98.8352C151.129 97.3681 139.61 81.8258 134.479 72.8769C127.612 60.831 122.35 62.0209 121.486 66.691Z" fill="#EB9481"/>
<path d="M176.414 107.191C176.414 107.191 185.332 109.319 191.083 110.957C194.294 111.878 199.652 113.907 201.685 115.586C204.722 118.104 215.699 130.428 212.558 132.979C209.713 135.293 201.72 123.581 201.72 123.581C201.72 123.581 210.9 134.731 206.955 136.923C203.011 139.116 195.795 124.763 195.795 124.763C195.795 124.763 204.948 136.418 200.472 138.072C197.086 139.319 189.826 126.662 189.826 126.662C189.826 126.662 197.627 136.728 194.189 138.154C190.402 139.735 182.924 128.439 182.924 128.439C173.569 130.696 168.089 128.194 164.486 125.994C163.639 125.456 176.414 107.191 176.414 107.191Z" fill="#EB9481"/>
<path d="M198.806 119.529C199.94 120.801 201.092 122.088 202.095 123.449C203.099 124.81 204.05 126.212 204.914 127.655C206.084 129.521 207.021 131.506 207.706 133.572C206.205 129.986 202.689 125.055 201.685 123.694C200.682 122.333 199.748 120.923 198.753 119.562C198.727 119.529 198.779 119.497 198.806 119.529Z" fill="#263238"/>
<path d="M193.477 122.828C195.415 124.263 199.472 129.593 201.034 133.171C201.104 133.318 201.034 133.31 200.921 133.171C199.699 131.402 194.743 124.556 193.434 122.853C193.408 122.828 193.451 122.804 193.477 122.828Z" fill="#263238"/>
<path d="M188.355 124.917C190.762 127.275 192.663 130.042 193.957 133.067C194.018 133.214 193.896 133.19 193.8 133.067C191.993 130.321 190.597 128.177 188.259 124.99C188.224 124.917 188.302 124.844 188.355 124.917Z" fill="#263238"/>
<path d="M131.227 67.3677C123.26 56.8459 118.495 60.7417 120.092 72.1682C121.593 82.853 125.599 95.5836 125.599 95.5836L145.669 86.488C145.669 86.488 136.297 74.1079 131.227 67.3677Z" fill="#FFC727"/>
<path d="M136.067 71.5078C136.331 72.1021 136.522 72.7229 136.634 73.3579C136.757 73.995 136.801 74.6431 136.765 75.2895C136.503 74.6921 136.316 74.0686 136.207 73.4313C136.077 72.7978 136.03 72.1519 136.067 71.5078Z" fill="white"/>
<path d="M124.172 77.9049C125.453 77.4183 126.831 77.1959 128.212 77.2529C127.575 77.4973 126.911 77.6723 126.231 77.7745C125.553 77.8954 124.861 77.9392 124.172 77.9049Z" fill="white"/>
<path d="M124.689 61.5391C124.149 62.7302 123.342 63.7999 122.324 64.6769C122.865 63.4858 123.671 62.416 124.689 61.5391Z" fill="white"/>
<path d="M141.693 82.8203C141.428 83.4164 141.091 83.9824 140.689 84.5074C140.298 85.0391 139.841 85.526 139.328 85.9581C139.869 84.767 140.675 83.6973 141.693 82.8203Z" fill="white"/>
<path d="M127.731 89.2028C127.091 88.9583 126.485 88.6437 125.924 88.2656C125.355 87.9003 124.833 87.4736 124.371 86.9941C125.646 87.4989 126.792 88.2518 127.731 89.2028Z" fill="white"/>
<path d="M133.842 70.5371C134.916 71.9145 136.024 73.2593 137.123 74.6122C136.844 73.9276 136.6 73.2348 136.39 72.5339H136.443C136.661 73.0718 136.914 73.6016 137.123 74.1639L137.437 74.9789C137.465 75.0346 137.488 75.0917 137.507 75.1501C138.38 76.2015 139.253 77.2528 140.055 78.3287C141.041 79.6164 141.993 80.9204 142.952 82.2244C143.912 83.5285 144.881 85.1504 145.919 86.4625C146.015 86.5766 144.174 87.2775 143.973 87.3672C143.773 87.4568 143.668 87.302 143.86 87.2449C144.052 87.1879 145.518 86.3484 145.535 86.3321C144.575 85.0118 143.467 83.7974 142.464 82.5178C141.46 81.2383 140.465 79.9587 139.497 78.6628C137.533 76.0222 135.736 73.2837 133.781 70.6349L133.842 70.5371Z" fill="#263238"/>
<path d="M120.562 79.7305C120.868 80.2847 121.199 80.8307 121.435 81.4013L121.767 82.1103C121.304 80.0809 120.894 78.0352 120.414 76.0059C121.339 79.2659 122.273 82.5993 123.128 85.9083C123.939 89.0706 124.925 92.2654 125.397 95.4929C126.005 95.2436 126.636 95.0445 127.281 94.8979C126.634 95.2896 125.936 95.6045 125.205 95.8352C124.153 92.5532 123.279 89.2237 122.587 85.8594C122.369 84.9466 122.168 84.0338 121.959 83.1209C121.732 82.5667 121.461 82.037 121.191 81.4909C120.92 80.9449 120.676 80.3336 120.432 79.7549C120.484 79.7223 120.545 79.6897 120.562 79.7305Z" fill="#263238"/>
<path d="M125.894 92.4374C128.686 90.9704 140.353 85.3305 142.962 84.2873C143.146 84.2139 143.242 84.2873 143.058 84.4014C137.52 87.4069 131.811 90.1277 125.955 92.5515C125.885 92.5678 125.816 92.4782 125.894 92.4374Z" fill="#263238"/>
<path d="M445.64 306.708H179.773L218.212 103.076H484.078L445.64 306.708Z" fill="#FFC727"/>
<path d="M309.21 81.9824H222.203L218.215 103.075H311.331L309.21 81.9824Z" fill="#FFC727"/>
<g opacity="0.1">
<path d="M445.64 306.708H179.773L218.212 103.076H484.078L445.64 306.708Z" fill="black"/>
<path d="M309.207 81.9824H222.199L218.211 103.075H311.327L309.207 81.9824Z" fill="black"/>
</g>
<path d="M212.815 90.5887C212.233 88.2564 212.233 85.8304 212.815 83.498C213.397 85.8304 213.397 88.2564 212.815 90.5887Z" fill="#263238"/>
<path d="M205.082 92.6758C204.193 91.8153 203.428 90.851 202.804 89.8069C202.15 88.7846 201.637 87.6893 201.277 86.5469C202.168 87.4023 202.934 88.3643 203.555 89.4076C204.207 90.4335 204.72 91.5313 205.082 92.6758Z" fill="#263238"/>
<path d="M199.497 98.0941C197.045 97.3978 194.797 96.1849 192.926 94.5488C194.149 94.8809 195.322 95.3575 196.416 95.9669C197.534 96.553 198.569 97.2676 199.497 98.0941Z" fill="#263238"/>
<path d="M197.541 105.398C195.044 105.941 192.446 105.941 189.949 105.398C192.446 104.854 195.044 104.854 197.541 105.398Z" fill="#263238"/>
<path d="M199.812 112.619C198.887 113.445 197.855 114.159 196.74 114.746C195.646 115.356 194.473 115.832 193.25 116.164C194.171 115.335 195.204 114.62 196.322 114.037C197.414 113.425 198.588 112.948 199.812 112.619Z" fill="#263238"/>
<path d="M205.604 117.826C204.862 120.12 203.563 122.223 201.809 123.971C202.164 122.827 202.677 121.731 203.336 120.711C203.958 119.664 204.72 118.694 205.604 117.826Z" fill="#263238"/>
<path d="M213.423 119.627C213.727 120.787 213.874 121.978 213.859 123.172C213.878 124.367 213.731 125.558 213.423 126.718C213.11 125.559 212.964 124.367 212.987 123.172C212.972 121.978 213.119 120.787 213.423 119.627Z" fill="#263238"/>
<path d="M221.156 117.581C222.045 118.441 222.81 119.406 223.434 120.45C224.089 121.47 224.6 122.566 224.952 123.71C223.198 121.961 221.899 119.858 221.156 117.564V117.581Z" fill="#263238"/>
<path d="M226.73 112.121C227.955 112.45 229.128 112.927 230.221 113.539C231.339 114.122 232.371 114.837 233.292 115.666C232.068 115.337 230.895 114.861 229.802 114.248C228.684 113.666 227.652 112.951 226.73 112.121Z" fill="#263238"/>
<path d="M228.66 104.82C231.16 104.276 233.76 104.276 236.261 104.82C233.76 105.363 231.16 105.363 228.66 104.82Z" fill="#263238"/>
<path d="M226.428 97.598C227.351 96.7732 228.383 96.0611 229.499 95.479C230.59 94.8608 231.763 94.3811 232.99 94.0527C231.117 95.691 228.866 96.9042 226.41 97.598H226.428Z" fill="#263238"/>
<path d="M220.621 92.3906C220.98 91.2493 221.49 90.1542 222.139 89.1306C222.763 88.0865 223.528 87.1222 224.417 86.2617C224.065 87.4054 223.554 88.5013 222.899 89.5218C222.275 90.5658 221.51 91.5301 220.621 92.3906Z" fill="#263238"/>
<path d="M445.25 306.706H178.817L140.98 110.467H407.423L445.25 306.706Z" fill="#FFC727"/>
<path d="M233.312 230.429C239.427 230.429 244.385 225.799 244.385 220.087C244.385 214.375 239.427 209.744 233.312 209.744C227.196 209.744 222.238 214.375 222.238 220.087C222.238 225.799 227.196 230.429 233.312 230.429Z" fill="#263238"/>
<path d="M320.855 230.429C326.97 230.429 331.928 225.799 331.928 220.087C331.928 214.375 326.97 209.744 320.855 209.744C314.739 209.744 309.781 214.375 309.781 220.087C309.781 225.799 314.739 230.429 320.855 230.429Z" fill="#263238"/>
<path d="M292.992 232.085L292.381 231.001C292.328 230.903 286.604 221.025 275.094 221.025C264.623 221.025 262.005 230.324 261.935 230.724L261.621 231.906L259.082 231.335L259.387 230.145C259.387 230.031 262.511 218.58 275.094 218.58C288.184 218.58 294.44 229.403 294.702 229.868L295.313 230.944L292.992 232.085Z" fill="#263238"/>
<path d="M427.656 219.293L427.473 218.478C428.04 218.364 428.598 218.242 429.157 218.104L429.375 218.919C428.782 219.057 428.232 219.179 427.656 219.293Z" fill="#263238"/>
<path d="M432.755 217.982L432.475 217.215C433.566 216.865 434.657 216.482 435.713 216.066L436.053 216.816C434.98 217.24 433.872 217.631 432.755 217.982ZM439.256 215.382L438.863 214.665C439.884 214.167 440.905 213.629 441.873 213.034L442.327 213.727C441.332 214.371 440.294 214.917 439.256 215.382ZM445.259 211.934L444.744 211.274C445.687 210.63 446.594 209.954 447.449 209.261L448.025 209.872C447.109 210.614 446.236 211.307 445.25 211.967L445.259 211.934ZM450.582 207.598L449.945 207.036C450.748 206.221 451.507 205.406 452.205 204.591L452.894 205.088C452.17 205.985 451.394 206.824 450.6 207.631L450.582 207.598ZM454.901 202.382L454.16 201.95C454.763 201.04 455.299 200.092 455.765 199.114L456.568 199.448C456.075 200.468 455.515 201.459 454.893 202.415L454.901 202.382ZM457.79 196.335L456.917 196.107C457.236 195.084 457.472 194.041 457.624 192.985L458.497 193.091C458.352 194.199 458.113 195.295 457.781 196.367L457.79 196.335ZM458.758 189.815H457.886V189.578C457.886 188.592 457.825 187.59 457.72 186.604L458.593 186.522C458.707 187.537 458.766 188.557 458.767 189.578L458.758 189.815ZM457.188 183.433C456.953 182.382 456.662 181.343 456.315 180.32L457.188 180.075C457.545 181.135 457.851 182.211 458.06 183.262L457.188 183.433ZM455.12 177.296C454.701 176.334 454.247 175.348 453.689 174.354L454.474 173.987C455.006 174.998 455.495 176.008 455.922 176.986L455.12 177.296ZM452.065 171.485C451.524 170.597 450.931 169.659 450.32 168.698L451.062 168.266C451.699 169.236 452.301 170.181 452.807 171.086L452.065 171.485ZM448.418 165.951C447.781 165.055 447.135 164.15 446.472 163.245L447.196 162.789C447.859 163.693 448.505 164.598 449.142 165.511L448.418 165.951ZM444.491 160.556C443.837 159.659 443.174 158.754 442.528 157.858L443.252 157.401C443.898 158.298 444.552 159.203 445.207 160.091L444.491 160.556ZM440.591 155.128C439.954 154.215 439.334 153.286 438.723 152.357L439.465 151.933C440.076 152.862 440.695 153.775 441.324 154.687L440.591 155.128ZM436.952 149.528C436.359 148.542 435.809 147.564 435.311 146.627L436.097 146.26C436.585 147.189 437.135 148.151 437.711 149.129L436.952 149.528ZM433.854 143.66C433.392 142.642 432.982 141.606 432.598 140.596L433.47 140.335C433.837 141.321 434.247 142.34 434.701 143.342L433.854 143.66ZM431.585 137.442C431.297 136.382 431.044 135.298 430.852 134.182L431.725 134.051C431.917 135.095 432.153 136.154 432.441 137.197L431.585 137.442ZM430.416 130.922C430.329 129.919 430.285 128.909 430.285 127.898V127.629H431.158V127.89C431.158 128.876 431.158 129.87 431.289 130.848L430.416 130.922ZM431.289 124.401L430.416 124.32C430.416 124.1 430.46 123.872 430.486 123.635C430.591 122.763 430.722 121.891 430.879 121.06L431.751 121.198C431.603 122.014 431.472 122.869 431.367 123.725C431.402 123.978 431.402 124.198 431.332 124.426L431.289 124.401ZM432.502 118.061L431.629 117.841C431.952 116.765 432.327 115.713 432.746 114.711L433.557 115.004C433.161 116.014 432.823 117.042 432.545 118.085L432.502 118.061ZM475.984 113.309C475.495 113.309 474.989 113.244 474.492 113.179C473.811 113.089 473.13 112.983 472.458 112.861L472.633 112.046C473.279 112.16 473.951 112.266 474.614 112.356C475.085 112.413 475.565 112.453 476.027 112.478L475.984 113.309ZM479.57 113.056L479.387 112.241C480.482 112.03 481.532 111.65 482.493 111.117L482.947 111.81C481.919 112.404 480.793 112.833 479.614 113.081L479.57 113.056ZM435.015 112.087L434.238 111.704C434.794 110.732 435.408 109.79 436.079 108.884L436.795 109.348C436.157 110.236 435.577 111.158 435.058 112.111L435.015 112.087ZM469.046 112.038C467.92 111.704 466.813 111.315 465.731 110.872L466.088 110.122C467.137 110.558 468.212 110.936 469.308 111.255L469.046 112.038ZM485.626 109.495L484.902 109.038C485.523 108.197 485.891 107.214 485.966 106.194L486.839 106.251C486.765 107.42 486.355 108.549 485.652 109.519L485.626 109.495ZM462.589 109.373C461.568 108.818 460.58 108.211 459.631 107.555L460.146 106.903C461.07 107.54 462.031 108.127 463.025 108.664L462.589 109.373ZM438.941 106.83L438.296 106.284C439.086 105.463 439.928 104.687 440.818 103.961L441.393 104.572C440.537 105.288 439.727 106.05 438.968 106.854L438.941 106.83ZM456.908 105.452C456.039 104.705 455.215 103.913 454.439 103.081L455.093 102.543C455.849 103.351 456.65 104.121 457.493 104.849L456.908 105.452ZM485.312 103.244C484.812 102.312 484.121 101.482 483.279 100.799L483.855 100.187C484.782 100.936 485.543 101.847 486.097 102.869L485.312 103.244ZM444.107 102.6L443.61 101.932C444.586 101.309 445.597 100.735 446.638 100.212L447.048 100.929C446.046 101.446 445.073 102.012 444.133 102.624L444.107 102.6ZM452.257 100.481C451.926 100.041 451.603 99.5924 451.298 99.1279L450.163 99.5435L449.832 98.7937L450.835 98.4188C450.678 98.1743 450.521 97.9298 450.373 97.6853L451.132 97.2859C451.306 97.5712 451.481 97.8564 451.664 98.1009C452.153 97.9379 452.65 97.7831 453.156 97.6364L453.409 98.4514C452.982 98.5736 452.537 98.704 452.135 98.8426C452.406 99.242 452.685 99.6576 453.008 100.008L452.257 100.481ZM480.469 99.079C479.625 98.686 478.749 98.3535 477.851 98.0846L477.275 97.9135L477.528 97.0985L478.122 97.2778C479.057 97.5561 479.967 97.9022 480.844 98.3128L480.469 99.079ZM456.751 97.6201L456.568 96.8051C457.694 96.5687 458.863 96.3731 460.059 96.2182L460.189 97.0333C459.038 97.2044 457.895 97.4082 456.778 97.6445L456.751 97.6201ZM473.942 97.18C472.851 97.0007 471.699 96.8621 470.521 96.7643L470.591 95.9493C471.804 96.0471 472.982 96.1856 474.081 96.3731L473.942 97.18ZM463.601 96.7073L463.54 95.8922C464.579 95.8352 465.617 95.8026 466.647 95.8026H467.074V96.6176H466.656C465.669 96.6421 464.64 96.6665 463.628 96.7317L463.601 96.7073ZM448.854 94.7594C448.383 93.7651 447.982 92.73 447.589 91.6786L448.462 91.426C448.828 92.4529 449.238 93.4635 449.692 94.4334L448.854 94.7594ZM446.647 88.5001C446.385 87.4487 446.167 86.3566 446.001 85.24L446.873 85.1259C447.039 86.2017 447.249 87.2694 447.502 88.3045L446.647 88.5001ZM445.669 81.9799C445.626 81.2464 445.599 80.4966 445.599 79.7468C445.599 79.3963 445.599 79.0377 445.599 78.6873H446.472C446.472 79.0377 446.472 79.38 446.472 79.7305C446.472 80.464 446.472 81.2057 446.533 81.9147L445.669 81.9799ZM446.708 75.4598L445.835 75.3783C445.957 74.3025 446.123 73.2022 446.324 72.1182L447.196 72.2568C446.961 73.3408 446.795 74.384 446.681 75.4761L446.708 75.4598ZM447.903 69.0945L447.031 68.8989C447.31 67.8476 447.633 66.788 447.99 65.7285L448.863 65.9812C448.47 67.0488 448.147 68.0839 447.877 69.1108L447.903 69.0945ZM449.997 62.9249L449.186 62.6315C449.613 61.6127 450.058 60.5939 450.591 59.6077L451.376 59.9663C450.853 60.9444 450.39 61.9387 449.971 62.9738L449.997 62.9249ZM452.999 57.1138L452.24 56.6981C452.833 55.7609 453.47 54.8236 454.134 53.9271L454.849 54.3916C454.168 55.2882 453.549 56.201 452.973 57.1301L452.999 57.1138ZM456.935 51.808L456.254 51.2946C456.987 50.4796 457.772 49.6156 458.584 48.8495L459.212 49.4119C458.392 50.178 457.624 50.993 456.908 51.8243L456.935 51.808ZM461.682 47.1135L461.097 46.5104C461.97 45.7851 462.842 45.0679 463.776 44.3751L464.317 45.019C463.383 45.7117 462.493 46.4208 461.655 47.1298L461.682 47.1135ZM467.1 43.0874L466.603 42.4109C467.554 41.7996 468.549 41.1965 469.561 40.626L470.006 41.3188C468.994 41.8974 468.052 42.4924 467.074 43.1037L467.1 43.0874ZM473.026 39.7214L472.615 39.0041C473.645 38.4907 474.71 38.0017 475.774 37.5453L476.141 38.2869C475.033 38.7515 474.012 39.2405 472.999 39.7377L473.026 39.7214ZM479.334 37.0155L479.012 36.2494C480.111 35.85 481.219 35.4344 482.319 35.1328L482.598 35.9478C481.49 36.2575 480.39 36.6324 479.308 37.0318L479.334 37.0155Z" fill="#263238"/>
<path d="M486.058 34.9536L485.84 34.1386C486.922 33.8778 487.585 33.7637 487.585 33.7637L487.742 34.5787C487.742 34.5787 487.114 34.7009 486.058 34.9536Z" fill="#263238"/>
<path d="M501.488 29.6884C499.263 23.2498 484.359 25.5644 487.265 33.9835C490.171 42.4027 503.713 36.1352 501.488 29.6884Z" fill="#263238"/>
<path d="M479.159 27.1131C479.272 24.285 483.478 22.1089 489.429 23.1114C495.38 24.1138 500.974 27.8629 500.974 27.8629C500.974 27.8629 495.101 31.1882 489.089 31.7995C483.077 32.4107 479.045 29.9331 479.159 27.1131Z" fill="#EBEBEB"/>
<path d="M500.972 27.8447C497.883 27.8447 494.803 27.7632 491.722 27.6735C488.642 27.5839 485.553 27.4372 482.473 27.209C485.562 27.209 488.651 27.2823 491.731 27.372C494.811 27.4616 497.9 27.6083 500.972 27.8447Z" fill="#263238"/>
<path d="M485.133 24.5938C486.886 25.3773 488.54 26.3424 490.063 27.4708C489.185 27.0861 488.334 26.6506 487.515 26.1667C486.689 25.6862 485.893 25.161 485.133 24.5938Z" fill="#263238"/>
<path d="M493.226 27.5781C491.647 28.773 489.936 29.8059 488.121 30.6589C489.708 29.4625 491.428 28.4296 493.252 27.5781H493.226Z" fill="#263238"/>
<path d="M494.125 25.9883C495.006 26.3832 495.776 26.9635 496.376 27.6835C495.936 27.4894 495.523 27.2458 495.146 26.9581C494.767 26.6723 494.425 26.3469 494.125 25.9883Z" fill="#263238"/>
<path d="M484.83 43.8608C486.689 46.0939 491.462 45.556 495.659 41.4972C499.856 37.4385 502.081 31.334 502.081 31.334C502.081 31.334 495.205 31.823 489.961 34.594C484.716 37.3651 482.963 41.6195 484.83 43.8608Z" fill="#EBEBEB"/>
<path d="M502.08 31.334C499.567 32.964 497.124 34.7734 494.672 36.5256C492.22 38.2779 489.82 40.0873 487.473 41.9536C489.986 40.3236 492.429 38.5224 494.872 36.7701C497.316 35.0179 499.698 33.2085 502.08 31.334Z" fill="#263238"/>
<path d="M491.242 42.5967C491.709 41.805 492.125 40.9886 492.49 40.1516C492.861 39.3123 493.176 38.4522 493.432 37.5762C492.965 38.3672 492.548 39.1837 492.185 40.0212C491.817 40.8618 491.502 41.7217 491.242 42.5967Z" fill="#263238"/>
<path d="M495.972 35.7845C493.93 35.6826 491.882 35.7837 489.863 36.0861C490.88 36.1431 491.9 36.1431 492.917 36.0861C493.941 36.0395 494.96 35.9388 495.972 35.7845Z" fill="#263238"/>
<path d="M497.656 36.5908C497.889 36.1883 498.071 35.7616 498.197 35.3194C498.326 34.8804 498.403 34.4294 498.424 33.9746C497.96 34.7814 497.698 35.6758 497.656 36.5908Z" fill="#263238"/>
<path d="M501.489 29.6885C500.996 29.838 500.467 29.8475 499.968 29.7159C499.47 29.5842 499.024 29.3173 498.688 28.949C498.352 28.5807 498.14 28.1275 498.08 27.6468C498.02 27.1661 498.114 26.6796 498.35 26.2488C498.586 25.8181 498.954 25.4624 499.407 25.2269C499.859 24.9915 500.377 24.8867 500.893 24.926C501.409 24.9654 501.902 25.1469 502.308 25.4477C502.713 25.7486 503.015 26.1551 503.173 26.6159C503.385 27.232 503.326 27.9013 503.011 28.4772C502.695 29.0531 502.148 29.4887 501.489 29.6885Z" fill="#455A64"/>
<path d="M503.092 34.3436C502.599 34.4925 502.071 34.5016 501.572 34.3698C501.074 34.2381 500.629 33.9713 500.293 33.6033C499.958 33.2354 499.746 32.7826 499.686 32.3024C499.625 31.8222 499.719 31.3361 499.954 30.9055C500.19 30.4748 500.557 30.1191 501.008 29.8831C501.46 29.6472 501.977 29.5417 502.493 29.5799C503.009 29.6182 503.501 29.7985 503.908 30.098C504.314 30.3976 504.616 30.8029 504.776 31.2628C504.882 31.5684 504.923 31.8905 504.895 32.2107C504.868 32.531 504.774 32.8431 504.617 33.1292C504.461 33.4153 504.246 33.6698 503.984 33.8782C503.722 34.0865 503.419 34.2447 503.092 34.3436Z" fill="#455A64"/>
<path d="M217.01 32.2666C216.592 36.0101 215.068 39.5715 212.609 42.5532C210.15 45.535 206.852 47.8199 203.083 49.1529C199.315 50.486 195.224 50.8147 191.267 50.1025C187.31 49.3903 183.643 47.6651 180.674 45.1194L169.793 46.6109L175.238 37.825C173.993 34.9663 173.462 31.8801 173.685 28.8008C173.908 25.7216 174.879 22.7303 176.525 20.0542C178.171 17.3781 180.448 15.0876 183.184 13.3566C185.92 11.6256 189.042 10.4997 192.313 10.0644C195.585 9.62906 198.919 9.89581 202.064 10.8443C205.208 11.7929 208.08 13.3983 210.46 15.5385C212.841 17.6788 214.668 20.2977 215.803 23.1963C216.938 26.0948 217.351 29.1968 217.01 32.2666Z" fill="white"/>
<path d="M217.009 32.266C216.599 36.0076 215.089 39.5703 212.646 42.5597C211.452 44.0716 210.012 45.3998 208.379 46.4962C206.781 47.6337 205.018 48.553 203.143 49.2265C201.267 49.9166 199.295 50.3556 197.288 50.5305C196.284 50.6147 195.275 50.6337 194.268 50.5876C193.258 50.5633 192.252 50.4652 191.258 50.2942C187.248 49.605 183.522 47.8863 180.499 45.3307L180.752 45.4041L169.888 46.9607L169.094 47.0748L169.495 46.4228L174.905 37.6207V37.9711C173.629 35.0596 173.086 31.9128 173.319 28.7741C173.552 25.6354 174.555 22.5888 176.249 19.8696C177.942 17.159 180.268 14.8409 183.055 13.0887C185.838 11.3597 189.004 10.2416 192.315 9.8181C195.626 9.39465 198.997 9.67688 202.174 10.6436C205.318 11.6427 208.184 13.2856 210.56 15.4522C212.931 17.6134 214.745 20.2508 215.862 23.164C216.979 26.0773 217.371 29.1901 217.009 32.266ZM217.009 32.266C217.361 29.2052 216.956 26.1096 215.824 23.2183C214.693 20.327 212.865 17.7173 210.481 15.5907C208.098 13.4641 205.224 11.8774 202.08 10.9532C198.936 10.0291 195.606 9.79207 192.349 10.2606C189.124 10.7064 186.052 11.8385 183.37 13.5695C180.711 15.3141 178.489 17.5778 176.86 20.2038C175.256 22.8355 174.31 25.7723 174.094 28.794C173.881 31.8362 174.406 34.8839 175.63 37.7103L175.708 37.8896L175.603 38.0608L170.123 46.8303L169.739 46.2924L180.63 44.8662H180.778L180.883 44.9558C183.794 47.4865 187.401 49.2107 191.302 49.9356C192.274 50.1205 193.26 50.2323 194.251 50.2697C195.242 50.3349 196.236 50.3349 197.227 50.2697C199.213 50.1202 201.169 49.7171 203.038 49.0716C204.912 48.4345 206.676 47.5449 208.274 46.431C209.9 45.3434 211.342 44.0328 212.55 42.5434C215.025 39.5685 216.568 36.0109 217.009 32.266Z" fill="#263238"/>
<path d="M184.75 39.6273C184.733 39.3575 184.776 39.0873 184.875 38.8336C184.975 38.5798 185.13 38.3479 185.329 38.1523C185.529 37.9566 185.769 37.8014 186.036 37.6962C186.303 37.591 186.589 37.5382 186.879 37.5408C187.471 37.5408 188.039 37.7607 188.458 38.152C188.877 38.5432 189.113 39.0739 189.113 39.6273C189.113 40.1806 188.877 40.7113 188.458 41.1026C188.039 41.4939 187.471 41.7137 186.879 41.7137C186.589 41.7164 186.303 41.6635 186.036 41.5583C185.769 41.4532 185.529 41.2979 185.329 41.1023C185.13 40.9066 184.975 40.6747 184.875 40.421C184.776 40.1673 184.733 39.8971 184.75 39.6273ZM185.622 34.8105L185.116 18.6406H188.607L188.1 34.8105H185.622Z" fill="#FFC727"/>
<path d="M193.047 39.6273C193.03 39.3581 193.072 39.0887 193.172 38.8355C193.271 38.5823 193.424 38.3508 193.623 38.1553C193.822 37.9598 194.061 37.8044 194.327 37.6987C194.592 37.593 194.878 37.5393 195.167 37.5408C195.759 37.5408 196.328 37.7607 196.747 38.152C197.165 38.5432 197.401 39.0739 197.401 39.6273C197.401 40.1806 197.165 40.7113 196.747 41.1026C196.328 41.4939 195.759 41.7137 195.167 41.7137C194.878 41.7153 194.592 41.6616 194.327 41.5559C194.061 41.4502 193.822 41.2948 193.623 41.0993C193.424 40.9038 193.271 40.6723 193.172 40.4191C193.072 40.1659 193.03 39.8964 193.047 39.6273ZM193.919 34.8105L193.439 18.6406H196.93L196.423 34.8105H193.919Z" fill="#FFC727"/>
<path d="M201.339 39.6273C201.323 39.3575 201.366 39.0873 201.465 38.8336C201.565 38.5798 201.719 38.3479 201.919 38.1523C202.119 37.9566 202.359 37.8014 202.626 37.6962C202.892 37.591 203.179 37.5382 203.469 37.5408C204.061 37.5408 204.629 37.7607 205.048 38.152C205.467 38.5432 205.703 39.0739 205.703 39.6273C205.703 40.1806 205.467 40.7113 205.048 41.1026C204.629 41.4939 204.061 41.7137 203.469 41.7137C203.179 41.7164 202.892 41.6635 202.626 41.5583C202.359 41.4532 202.119 41.2979 201.919 41.1023C201.719 40.9066 201.565 40.6747 201.465 40.421C201.366 40.1673 201.323 39.8971 201.339 39.6273ZM202.212 34.8105L201.706 18.6406H205.196L204.699 34.8105H202.212Z" fill="#FFC727"/>
</svg>
