<svg width="229" height="221" viewBox="0 0 229 221" fill="none" xmlns="http://www.w3.org/2000/svg">
<path d="M130.313 34.7593C120.07 6.05817 146.177 -2.32227 160.511 -2.92485C187.37 -3.34203 176.655 11.2589 198.782 20.5756C220.909 29.8924 198.782 34.3422 195.024 47.9697C191.267 61.5971 221.883 54.6443 214.368 79.5354C206.853 104.426 159.12 105.956 177.072 73.9731C195.024 41.9902 143.116 70.6358 130.313 34.7593Z" stroke="white" stroke-opacity="0.3" stroke-width="2"/>
<path d="M139.882 37.7035C132.003 15.593 152.086 9.13696 163.112 8.67275C183.773 8.35137 175.53 19.5995 192.551 26.7768C209.572 33.9542 192.551 37.3822 189.66 47.8804C186.77 58.3786 210.321 53.0224 204.54 72.1977C198.76 91.373 162.042 92.5514 175.851 67.9127C189.66 43.274 149.731 65.3417 139.882 37.7035Z" stroke="white" stroke-opacity="0.3" stroke-width="2"/>
<path d="M121.455 32.0048C109.024 -2.86182 140.71 -13.0425 158.107 -13.7745C190.705 -14.2813 177.699 3.45605 204.555 14.7742C231.41 26.0923 204.555 31.498 199.994 48.0529C195.434 64.6077 232.592 56.1614 223.471 86.3994C214.351 116.637 156.418 118.496 178.206 79.6423C199.994 40.789 136.994 75.588 121.455 32.0048Z" stroke="white" stroke-opacity="0.3" stroke-width="2"/>
<path d="M114.013 29.7214C99.7435 -10.2477 136.115 -21.9182 156.085 -22.7574C193.503 -23.3383 178.575 -3.00523 209.401 9.96921C240.228 22.9437 209.401 29.1404 204.167 48.1179C198.932 67.0955 241.585 57.4131 231.116 92.0761C220.646 126.739 154.146 128.869 179.156 84.3302C204.167 39.7911 131.85 79.6826 114.013 29.7214Z" stroke="white" stroke-opacity="0.3" stroke-width="2"/>
<path d="M103.382 26.394C86.4862 -21.0161 129.552 -34.8593 153.197 -35.8547C197.502 -36.5438 179.826 -12.4253 216.326 2.96458C252.827 18.3545 216.326 25.7049 210.128 48.2155C203.93 70.7261 254.434 59.2411 242.037 100.357C229.641 141.474 150.901 144 180.515 91.1694C210.128 38.3384 124.502 85.6566 103.382 26.394Z" stroke="white" stroke-opacity="0.3" stroke-width="2"/>
<path d="M90.979 22.4997C71.0193 -33.627 121.895 -50.0155 149.828 -51.1938C202.168 -52.0096 181.286 -23.4568 224.406 -5.23737C267.525 12.9821 224.406 21.6839 217.083 48.3332C209.761 74.9825 269.424 61.3859 254.779 110.062C240.135 158.738 147.116 161.729 182.1 99.1845C217.083 36.6401 115.929 92.6581 90.979 22.4997Z" stroke="white" stroke-opacity="0.3" stroke-width="2"/>
</svg>
