<svg width="194" height="208" viewBox="0 0 194 208" fill="none" xmlns="http://www.w3.org/2000/svg">
<path d="M45.1302 103.09C21.4266 86.7138 7.38535 108.504 3.32769 121.447C-3.62535 145.872 12.3302 139.659 15.4239 162.145C18.5176 184.631 27.9955 165.514 41.3595 165.417C54.7235 165.32 40.8827 191.578 65.452 190.806C90.0213 190.034 103.098 146.818 69.4986 155.386C35.8991 163.954 74.7597 123.561 45.1302 103.09Z" stroke="white" stroke-opacity="0.3" stroke-width="2"/>
<path d="M45.4783 112.547C27.2149 99.942 16.4052 116.702 13.2833 126.657C7.93441 145.446 20.2231 140.671 22.6126 157.97C25.0021 175.27 32.2974 160.565 42.5915 160.495C52.8857 160.424 42.2317 180.62 61.1571 180.033C80.0824 179.446 90.1431 146.204 64.264 152.786C38.385 159.367 68.3076 128.304 45.4783 112.547Z" stroke="white" stroke-opacity="0.3" stroke-width="2"/>
<path d="M44.7838 94.3253C15.9854 74.4418 -1.06477 100.886 -5.99007 116.594C-14.4292 146.238 4.95077 138.702 8.71526 165.995C12.4797 193.289 23.9874 170.087 40.2212 169.974C56.4549 169.86 39.6495 201.726 69.4945 200.796C99.3395 199.866 115.212 147.416 74.3999 157.806C33.5878 168.196 80.7817 119.18 44.7838 94.3253Z" stroke="white" stroke-opacity="0.3" stroke-width="2"/>
<path d="M44.5179 86.9707C11.5098 64.1598 -8.04749 94.5186 -13.7001 112.549C-23.3866 146.578 -1.16561 137.92 3.13961 169.246C7.44484 200.572 20.6467 173.937 39.2578 173.8C57.869 173.664 38.5902 210.245 72.8062 209.166C107.022 208.087 125.239 147.881 78.4466 159.822C31.6538 171.763 85.7779 115.484 44.5179 86.9707Z" stroke="white" stroke-opacity="0.3" stroke-width="2"/>
<path d="M44.0793 76.4486C4.91879 49.4187 -18.2606 85.359 -24.9553 106.708C-36.4257 146.999 -10.0755 136.759 -4.95279 173.856C0.169938 210.954 15.8136 179.421 37.8869 179.269C59.9601 179.117 37.1143 222.426 77.6949 221.167C118.275 219.907 139.85 148.62 84.3584 162.736C28.8671 176.852 93.03 110.236 44.0793 76.4486Z" stroke="white" stroke-opacity="0.3" stroke-width="2"/>
<path d="M43.5604 64.1674C-2.81043 32.2065 -30.2251 74.656 -38.1361 99.8758C-51.6882 147.473 -20.5042 135.391 -14.4173 179.225C-8.33026 223.06 10.1672 185.813 36.295 185.647C62.4227 185.481 35.4075 236.638 83.4415 235.175C131.476 233.712 156.968 149.499 91.2924 166.143C25.6169 182.786 101.524 104.119 43.5604 64.1674Z" stroke="white" stroke-opacity="0.3" stroke-width="2"/>
</svg>
