<svg width="35" height="38" viewBox="0 0 35 38" fill="none" xmlns="http://www.w3.org/2000/svg">
<path d="M10.1641 10.2485C10.1641 9.72186 10.5679 9.29492 11.0661 9.29492H24.0658C24.564 9.29492 24.9679 9.72186 24.9679 10.2485V30.1027C24.9679 30.6294 24.564 31.0564 24.0658 31.0564H11.0661C10.5679 31.0564 10.1641 30.6294 10.1641 30.1027V10.2485Z" fill="#F1F1F1"/>
<path fill-rule="evenodd" clip-rule="evenodd" d="M7.65047 3.29754C7.65047 3.08089 7.8166 2.90527 8.02153 2.90527H9.23727C9.44219 2.90527 9.60833 3.08089 9.60833 3.29754C9.60833 3.475 9.72175 3.62844 9.8801 3.68737C10.3238 3.85252 10.7295 4.10307 11.0794 4.42037C11.207 4.53606 11.3896 4.56312 11.5352 4.47427C11.713 4.36576 11.9403 4.43015 12.043 4.61811L12.6504 5.73032C12.753 5.91805 12.6921 6.1581 12.5145 6.26648C12.3691 6.35518 12.3001 6.53556 12.3309 6.70995C12.3726 6.94747 12.3945 7.19243 12.3945 7.44277C12.3945 7.69311 12.3726 7.93805 12.3309 8.17558C12.3001 8.34997 12.3691 8.53035 12.5145 8.61905C12.6921 8.72742 12.7529 8.96748 12.6504 9.1552L12.043 10.2674C11.9403 10.4554 11.713 10.5198 11.5352 10.4113C11.3896 10.3224 11.207 10.3495 11.0794 10.4651C10.7295 10.7824 10.3238 11.033 9.8801 11.1982C9.72175 11.2571 9.60833 11.4105 9.60833 11.588C9.60833 11.8046 9.44219 11.9803 9.23727 11.9803H8.02153C7.8166 11.9803 7.65047 11.8046 7.65047 11.588C7.65047 11.4105 7.53704 11.2571 7.3787 11.1982C6.93496 11.033 6.5293 10.7824 6.17938 10.4651C6.0518 10.3495 5.86917 10.3224 5.72361 10.4112C5.54582 10.5198 5.31847 10.4554 5.21583 10.2674L4.60839 9.1552C4.50588 8.96746 4.56672 8.72742 4.7443 8.61903C4.8896 8.53035 4.95867 8.34996 4.92796 8.17558C4.88615 7.93805 4.86429 7.6931 4.86429 7.44277C4.86429 7.19243 4.88615 6.94747 4.92796 6.70995C4.95867 6.53556 4.8896 6.35518 4.7443 6.26649C4.56672 6.1581 4.50588 5.91806 4.6084 5.73033L5.21583 4.61811C5.31847 4.43015 5.54582 4.36576 5.72361 4.47428C5.86917 4.56312 6.0518 4.53606 6.17938 4.42037C6.5293 4.10309 6.93496 3.85252 7.3787 3.68737C7.53704 3.62844 7.65047 3.475 7.65047 3.29754ZM10.7779 7.44277C10.7779 8.72133 9.81709 9.75781 8.63183 9.75781C7.44656 9.75781 6.48571 8.72133 6.48571 7.44277C6.48571 6.1642 7.44656 5.12772 8.63183 5.12772C9.81709 5.12772 10.7779 6.1642 10.7779 7.44277Z" fill="#CDA365"/>
<path fill-rule="evenodd" clip-rule="evenodd" d="M17.0663 5.0762C17.1265 4.97051 17.2564 4.93649 17.3564 5.0002L17.9494 5.37817C18.0494 5.44188 18.0816 5.57921 18.0214 5.6849C17.972 5.77148 17.9847 5.88159 18.0455 5.95957C18.216 6.17811 18.3442 6.42645 18.4266 6.69004C18.4567 6.78614 18.5383 6.85612 18.634 6.85803C18.7509 6.86038 18.8439 6.96247 18.8417 7.08608L18.8286 7.81752C18.8264 7.94097 18.7299 8.03916 18.6132 8.03683C18.5176 8.03492 18.4337 8.10144 18.4002 8.19606C18.3545 8.32493 18.297 8.45123 18.2273 8.57335C18.1577 8.69549 18.0789 8.80818 17.9925 8.91106C17.9289 8.98659 17.9125 9.09606 17.9587 9.18451C18.0151 9.2926 17.978 9.42861 17.8758 9.48831L17.2701 9.84206C17.1677 9.90182 17.0389 9.86257 16.9824 9.75434C16.9361 9.66575 16.8395 9.62218 16.745 9.63894C16.486 9.68494 16.2185 9.68106 15.956 9.62366C15.8624 9.60319 15.7644 9.64278 15.7149 9.72934C15.6547 9.83504 15.5248 9.86907 15.4248 9.80535L14.8318 9.42737C14.7318 9.36366 14.6996 9.22633 14.7599 9.12064C14.8092 9.03406 14.7965 8.92395 14.7357 8.84597C14.5652 8.62743 14.437 8.37909 14.3546 8.1155C14.3245 8.0194 14.2429 7.94942 14.1472 7.94751C14.0303 7.94517 13.9373 7.84307 13.9395 7.71947L13.9526 6.98803C13.9548 6.86457 14.0513 6.76638 14.168 6.76871C14.2636 6.77063 14.3475 6.7041 14.381 6.60948C14.4267 6.48061 14.4842 6.35431 14.5539 6.23219C14.6235 6.11005 14.7023 5.99736 14.7887 5.89449C14.8523 5.81896 14.8687 5.70949 14.8225 5.62104C14.7661 5.51296 14.8032 5.37693 14.9054 5.31723L15.5111 4.9635C15.6135 4.90372 15.7423 4.94299 15.7989 5.0512C15.8451 5.13979 15.9418 5.18338 16.0362 5.1666C16.2952 5.1206 16.5627 5.12448 16.8252 5.18188C16.9188 5.20236 17.0169 5.16277 17.0663 5.0762ZM17.4293 8.06476C17.0835 8.67123 16.338 8.86648 15.7644 8.50087C15.1907 8.13526 15.0061 7.34725 15.3519 6.74078C15.6977 6.13431 16.4432 5.93906 17.0168 6.30467C17.5905 6.67028 17.7751 7.4583 17.4293 8.06476Z" fill="#6446F1"/>
<path fill-rule="evenodd" clip-rule="evenodd" d="M22.1798 5.57797C22.233 5.54847 22.2987 5.5701 22.3266 5.62628L22.4921 5.95956C22.52 6.01576 22.4996 6.0852 22.4464 6.11471C22.4029 6.13888 22.3807 6.19086 22.3878 6.24231C22.4077 6.38645 22.4015 6.53177 22.3713 6.6709C22.3603 6.72163 22.3785 6.77539 22.4201 6.80319C22.471 6.83716 22.4862 6.90824 22.454 6.96198L22.2639 7.27996C22.2318 7.33363 22.1646 7.34964 22.1139 7.31571C22.0724 7.28796 22.0187 7.29359 21.9801 7.32575C21.9275 7.36956 21.8704 7.40892 21.8089 7.44301C21.7476 7.4771 21.6844 7.50446 21.6205 7.52534C21.5736 7.54067 21.5387 7.58416 21.5367 7.63608C21.5343 7.69951 21.4838 7.74889 21.4237 7.74634L21.0682 7.73127C21.0081 7.72873 20.9613 7.67517 20.9638 7.61165C20.9658 7.55965 20.9343 7.51327 20.8884 7.49405C20.763 7.44133 20.6462 7.36424 20.5453 7.26508C20.5094 7.2297 20.4562 7.2195 20.4127 7.24366C20.3596 7.27316 20.2939 7.25153 20.2659 7.19535L20.1003 6.86207C20.0725 6.80588 20.093 6.73643 20.1461 6.70693C20.1896 6.68275 20.2118 6.63077 20.2048 6.57934C20.1848 6.4352 20.191 6.28986 20.2212 6.15072C20.2322 6.09999 20.214 6.04624 20.1723 6.01844C20.1216 5.98448 20.1064 5.91338 20.1385 5.85965L20.3287 5.54166C20.3607 5.488 20.4279 5.47199 20.4787 5.50591C20.5202 5.53367 20.5739 5.52805 20.6125 5.49588C20.665 5.45207 20.7222 5.41272 20.7835 5.37863C20.8449 5.34454 20.908 5.31718 20.972 5.2963C21.019 5.28097 21.0537 5.23747 21.0557 5.18555C21.0582 5.12211 21.1088 5.07275 21.1688 5.07529L21.5244 5.09036C21.5845 5.0929 21.6311 5.14645 21.6288 5.20998C21.6268 5.26198 21.6583 5.30836 21.704 5.32758C21.8296 5.3803 21.9462 5.4574 22.0472 5.55655C22.0832 5.59193 22.1363 5.60214 22.1798 5.57797ZM21.5862 6.99454C21.2812 7.16383 20.9042 7.03972 20.7441 6.71734C20.5839 6.39496 20.7013 5.99638 21.0063 5.82709C21.3112 5.6578 21.6883 5.78192 21.8485 6.1043C22.0085 6.42669 21.8912 6.82525 21.5862 6.99454Z" fill="#6853CC"/>
<path fill-rule="evenodd" clip-rule="evenodd" d="M6.42163 24.3034C6.47045 24.2178 6.57569 24.1903 6.65668 24.2418L7.13712 24.5481C7.21811 24.5996 7.24419 24.7109 7.19536 24.7965C7.15537 24.8667 7.16561 24.9558 7.2149 25.0191C7.35305 25.1961 7.45689 25.3972 7.52367 25.6107C7.54802 25.6887 7.6141 25.7453 7.69165 25.7469C7.78636 25.7487 7.86169 25.8315 7.85991 25.9316L7.8493 26.5241C7.84752 26.6242 7.76938 26.7037 7.67477 26.7017C7.59735 26.7002 7.5294 26.7541 7.50224 26.8307C7.46524 26.9352 7.41867 27.0374 7.36225 27.1365C7.30583 27.2354 7.24199 27.3267 7.17194 27.41C7.1205 27.4712 7.10714 27.5599 7.14458 27.6315C7.19034 27.7191 7.16028 27.8292 7.07746 27.8776L6.58675 28.1642C6.50382 28.2126 6.39946 28.1807 6.35366 28.0932C6.31615 28.0214 6.23788 27.986 6.16139 27.9997C5.9516 28.0369 5.73481 28.0337 5.52224 27.9872C5.44638 27.9707 5.36698 28.0028 5.32698 28.0728C5.27816 28.1585 5.17292 28.186 5.09193 28.1345L4.61148 27.8283C4.5305 27.7766 4.50442 27.6653 4.55325 27.5797C4.59324 27.5097 4.58299 27.4204 4.5337 27.3572C4.39555 27.1803 4.29171 26.9791 4.22493 26.7655C4.20058 26.6877 4.13451 26.6309 4.05696 26.6295C3.96224 26.6275 3.88691 26.5448 3.8887 26.4447L3.89931 25.8522C3.90109 25.7522 3.97924 25.6726 4.07384 25.6745C4.15125 25.6761 4.2192 25.6222 4.24637 25.5455C4.28337 25.4411 4.32994 25.3388 4.38636 25.2399C4.44278 25.1409 4.50662 25.0497 4.57667 24.9663C4.6281 24.9051 4.64146 24.8165 4.60402 24.7448C4.55828 24.6572 4.58833 24.5471 4.67115 24.4987L5.16186 24.2121C5.24478 24.1637 5.34914 24.1955 5.39495 24.2832C5.43245 24.3549 5.51072 24.3902 5.58721 24.3766C5.79701 24.3394 6.01379 24.3426 6.22636 24.3891C6.30223 24.4056 6.38164 24.3736 6.42163 24.3034ZM6.71577 26.7244C6.43561 27.2157 5.83175 27.3739 5.36702 27.0776C4.90229 26.7815 4.75267 26.1432 5.03283 25.6519C5.313 25.1606 5.91686 25.0024 6.38159 25.2986C6.84632 25.5948 6.99593 26.2332 6.71577 26.7244Z" fill="#6446F1"/>
<path d="M9.375 9.50731C9.375 8.98065 9.77887 8.55371 10.2771 8.55371H23.2768C23.775 8.55371 24.1789 8.98065 24.1789 9.50731V29.3616C24.1789 29.8882 23.775 30.3152 23.2768 30.3152H10.2771C9.77887 30.3152 9.375 29.8882 9.375 29.3616V9.50731Z" fill="white"/>
<path fill-rule="evenodd" clip-rule="evenodd" d="M9.28516 9.50697C9.28516 8.92765 9.72941 8.45801 10.2774 8.45801H23.2772C23.8251 8.45801 24.2694 8.92765 24.2694 9.50697V29.3613C24.2694 29.9406 23.8251 30.4102 23.2772 30.4102H10.2774C9.72941 30.4102 9.28516 29.9406 9.28516 29.3613V9.50697ZM10.2774 8.64873C9.82906 8.64873 9.46557 9.03298 9.46557 9.50697V29.3613C9.46557 29.8352 9.82906 30.2194 10.2774 30.2194H23.2772C23.7255 30.2194 24.0889 29.8352 24.0889 29.3613V9.50697C24.0889 9.03298 23.7255 8.64873 23.2772 8.64873H10.2774Z" fill="#381FAC" fill-opacity="0.28"/>
<path d="M12.5293 8.55371H21.1137L20.7826 9.53369C20.7185 9.72347 20.5485 9.85013 20.3579 9.85013H13.2851C13.0944 9.85013 12.9244 9.72347 12.8603 9.53369L12.5293 8.55371Z" fill="#381FAC" fill-opacity="0.28"/>
<path fill-rule="evenodd" clip-rule="evenodd" d="M18.6543 11.7412H21.4704V14.7182H18.6543V11.7412ZM19.1053 12.218V14.2414H21.0194V12.218H19.1053Z" fill="#E5E5E5"/>
<path d="M12.0039 11.7021H16.3837V27.3519H12.0039V11.7021Z" fill="#F2BA66"/>
<path fill-rule="evenodd" clip-rule="evenodd" d="M18.6543 18.0381H21.4704V21.0151H18.6543V18.0381ZM19.1053 18.5149V20.5383H21.0194V18.5149H19.1053ZM18.6543 24.335H21.4704V27.3121H18.6543V24.335ZM19.1053 24.8118V26.8353H21.0194V24.8118H19.1053Z" fill="#E5E5E5"/>
<path fill-rule="evenodd" clip-rule="evenodd" d="M27.5408 8.11199C27.6043 7.80318 27.8925 7.60722 28.1846 7.67429L33.3059 8.85017C33.598 8.91724 33.7833 9.22195 33.72 9.53074L32.1213 17.3119C32.0578 17.6207 31.7695 17.8166 31.4775 17.7495L26.3562 16.5737C26.0641 16.5066 25.8787 16.2019 25.9421 15.8931L27.5408 8.11199ZM28.1463 7.86067C27.9516 7.81596 27.7595 7.9466 27.7171 8.15246L26.1184 15.9336C26.0762 16.1395 26.1997 16.3427 26.3945 16.3873L31.5158 17.5632C31.7105 17.6079 31.9026 17.4773 31.945 17.2714L33.5436 9.49026C33.5859 9.28439 33.4624 9.08126 33.2676 9.03655L28.1463 7.86067Z" fill="#532FFA"/>
<path d="M3.09146 12.8135L8.58757 14.9546L5.62501 23.453L0.128906 21.312L3.09146 12.8135Z" fill="#6853CC" fill-opacity="0.21"/>
<path d="M3.69606 13.9688L7.38605 15.4068L6.74541 17.2439L3.05543 15.8057L3.69606 13.9688ZM4.97729 17.3486L6.49017 17.9381L5.86943 19.7181L4.35655 19.1284L4.97729 17.3486ZM4.11841 19.8123L5.63129 20.4019L5.01055 22.1819L3.49768 21.5922L4.11841 19.8123ZM2.81554 16.5468L4.2498 17.1059L3.62907 18.8857L2.1948 18.3267L2.81554 16.5468ZM1.95667 19.0106L3.39093 19.5696L2.77019 21.3495L1.33594 20.7904L1.95667 19.0106Z" fill="#EFB45C"/>
<path d="M24.3535 23.1846H26.2806V27.3516H24.3535V23.1846Z" fill="#6853CC"/>
<path d="M27.2441 20.499H29.1714V27.3515H27.2441V20.499Z" fill="#6446F1"/>
<path d="M30.3105 21.7959H32.2378V27.3519H30.3105V21.7959Z" fill="#532FFA" fill-opacity="0.49"/>
<path d="M17.7842 8.60008C17.7842 9.18822 17.3332 9.665 16.7769 9.665C16.2206 9.665 15.7695 9.18822 15.7695 8.60008C15.7695 8.01194 16.2206 7.53516 16.7769 7.53516C17.3332 7.53516 17.7842 8.01194 17.7842 8.60008Z" fill="#381FAC" fill-opacity="0.28"/>
<path d="M5.69553 27.3056L3.40116 34.6671C3.27047 35.0865 3.28144 35.5407 3.4322 35.9524L3.72461 36.751H8.36722L7.55272 35.3478C7.31604 34.9401 7.23263 34.454 7.32051 33.9847C7.62873 32.3385 8.1128 29.8023 8.32342 28.8799C8.63001 27.5371 9.02419 27.676 9.54977 26.5185C10.0753 25.3609 10.2067 25.3147 9.94395 25.0368C9.73372 24.8145 9.47677 25.1294 9.37457 25.3147C9.46218 24.4812 9.24318 23.8793 8.58621 23.6478C7.92924 23.4163 7.44745 23.3237 6.92188 23.5089C6.3963 23.6941 6.04591 24.6664 5.95832 25.5924C5.88824 26.3333 5.75393 27.0432 5.69553 27.3056ZM23.5889 31.2635L20.982 36.0814L22.4264 36.751H25.7551L27.9937 31.9242C28.2459 31.3804 28.2388 30.7423 27.9745 30.2049L25.5315 25.2367C25.256 24.6885 24.6949 23.5253 24.6549 23.2591C24.4767 22.117 24.3 21.3481 23.8465 20.6839C23.4838 20.1524 22.9882 20.2166 22.7858 20.3151C22.3767 20.1882 22.0945 20.4443 22.0046 20.5883C21.6177 20.5762 21.4244 20.9028 21.3762 21.0676L20.4746 19.6931C20.338 19.4735 19.9964 19.091 19.7235 19.3172C19.4505 19.5435 19.5063 19.8025 19.5682 19.9037L20.4382 21.554L20.3316 22.4858C20.2905 22.8443 20.4176 23.2316 20.6409 23.505C20.7291 23.613 20.8356 23.7454 20.9632 23.9064C21.4566 24.5291 21.8733 24.6912 22.0201 24.6944L23.7197 29.6686C23.8995 30.1947 23.8516 30.7778 23.5889 31.2635Z" fill="#E58C06"/>
<path d="M20.6366 35.2441L19.7109 36.7508H21.2439H23.7404L20.6366 35.2441Z" fill="#6853CC"/>
<path fill-rule="evenodd" clip-rule="evenodd" d="M22.2569 12.2164L20.0363 14.0024L19.3398 12.6996L19.7325 12.4649L20.1747 13.292L21.9837 11.8369L22.2569 12.2164Z" fill="#6853CC"/>
<path d="M25.8425 8.97401C25.7946 8.71559 25.9539 8.46505 26.1983 8.4144L31.3412 7.34884C31.5856 7.29818 31.8226 7.46662 31.8706 7.72503L33.3193 15.539C33.3672 15.7974 33.2079 16.0479 32.9634 16.0986L27.8206 17.1642C27.5762 17.2147 27.3391 17.0464 27.2912 16.7879L25.8425 8.97401Z" fill="#CDB086"/>
<path fill-rule="evenodd" clip-rule="evenodd" d="M31.1712 9.58055L27.2132 10.4195L27.1777 10.2325L31.1358 9.39355L31.1712 9.58055ZM31.4719 11.1659L27.5139 12.0048L27.4784 11.8178L31.4364 10.9789L31.4719 11.1659ZM31.7725 12.7512L27.8145 13.5902L27.779 13.4031L31.7371 12.5642L31.7725 12.7512ZM32.0674 14.3054L28.1093 15.1443L28.0739 14.9573L32.0319 14.1184L32.0674 14.3054Z" fill="#411DE9"/>
<path fill-rule="evenodd" clip-rule="evenodd" d="M0 36.7506C0 36.6979 0.0403867 36.6553 0.0902062 36.6553H34.9098C34.9596 36.6553 35 36.6979 35 36.7506C35 36.8033 34.9596 36.8459 34.9098 36.8459H0.0902062C0.0403867 36.8459 0 36.8033 0 36.7506Z" fill="#381FAC" fill-opacity="0.28"/>
</svg>
