<svg width="43" height="36" viewBox="0 0 43 36" fill="none" xmlns="http://www.w3.org/2000/svg">
<rect width="43" height="36" rx="0.778761" fill="#FE9B07"/>
<g clip-path="url(#clip0_9489_16004)">
<rect width="42.0531" height="28.0354" transform="translate(0.472656 3.98242)" fill="white"/>
<mask id="mask0_9489_16004" style="mask-type:luminance" maskUnits="userSpaceOnUse" x="0" y="3" width="43" height="30">
<path d="M42.5257 3.98242H0.472656V32.0178H42.5257V3.98242Z" fill="white"/>
</mask>
<g mask="url(#mask0_9489_16004)">
<mask id="mask1_9489_16004" style="mask-type:luminance" maskUnits="userSpaceOnUse" x="-13" y="-3" width="65" height="37">
<path d="M51.7773 -2.2666H-12.5172V33.8991H51.7773V-2.2666Z" fill="white"/>
</mask>
<g mask="url(#mask1_9489_16004)">
<mask id="mask2_9489_16004" style="mask-type:luminance" maskUnits="userSpaceOnUse" x="9" y="11" width="14" height="9">
<path d="M22.1328 11.8994H9.91016V19.6014H22.1328V11.8994Z" fill="white"/>
</mask>
<g mask="url(#mask2_9489_16004)">
<path d="M22.1035 19.5797L21.1666 11.9121H9.9357L10.8726 19.5797H22.1035Z" fill="#BFB1EB"/>
<path d="M11.1813 19.2313H21.7109L20.8591 12.2598H10.3295L11.1813 19.2313Z" fill="white"/>
<path d="M16.8521 12.6504L16.8598 12.7052H19.123L19.1154 12.6504H16.8521Z" fill="#BFB1EB"/>
<path d="M16.8911 12.9229L16.8989 12.9777H19.1621L19.1544 12.9229H16.8911Z" fill="#BFB1EB"/>
<path d="M16.9283 13.2021L16.936 13.257H19.1992L19.1916 13.2021H16.9283Z" fill="#BFB1EB"/>
<path d="M16.9674 13.4766L16.975 13.5314H19.2383L19.2306 13.4766H16.9674Z" fill="#BFB1EB"/>
<path d="M17.0064 13.7529L17.0141 13.8078H19.2773L19.2697 13.7529H17.0064Z" fill="#BFB1EB"/>
<path d="M17.0455 14.0303L17.0532 14.0851H19.3164L19.3087 14.0303H17.0455Z" fill="#BFB1EB"/>
<path d="M11.6627 14.8848L11.6704 14.9396H13.9336L13.9259 14.8848H11.6627Z" fill="#BFB1EB"/>
<path d="M11.6939 15.1055L11.7016 15.1603H13.9648L13.9572 15.1055H11.6939Z" fill="#BFB1EB"/>
<path d="M11.7252 15.3262L11.7329 15.381H13.9961L13.9884 15.3262H11.7252Z" fill="#BFB1EB"/>
<path d="M11.7545 15.5469L11.7621 15.6017H14.0254L14.0177 15.5469H11.7545Z" fill="#BFB1EB"/>
<path d="M11.7857 15.7676L11.7934 15.8224H14.0566L14.049 15.7676H11.7857Z" fill="#BFB1EB"/>
<path d="M15.8474 14.8848L15.8551 14.9396H16.9141L16.9064 14.8848H15.8474Z" fill="#BFB1EB"/>
<path d="M15.8787 15.1055L15.8863 15.1603H16.9453L16.9377 15.1055H15.8787Z" fill="#BFB1EB"/>
<path d="M15.9099 15.3262L15.9176 15.381H16.9766L16.9689 15.3262H15.9099Z" fill="#BFB1EB"/>
<path d="M11.7831 16.7197L12.1014 18.9993H12.1562L11.838 16.7197H11.7831Z" fill="#BFB1EB"/>
<path d="M12.8144 16.7197L13.1327 18.9993H13.1875L12.8692 16.7197H12.8144Z" fill="#BFB1EB"/>
<path d="M13.8437 16.7197L14.162 18.9993H14.2168L13.8985 16.7197H13.8437Z" fill="#BFB1EB"/>
<path d="M14.8749 16.7197L15.1933 18.9993H15.248L14.9297 16.7197H14.8749Z" fill="#BFB1EB"/>
<path d="M11.7129 16.8154L11.7206 16.8703H15.0332L15.0256 16.8154H11.7129Z" fill="#BFB1EB"/>
<path d="M11.8086 17.4951L11.8163 17.55H15.1289L15.1213 17.4951H11.8086Z" fill="#BFB1EB"/>
<path d="M11.9043 18.1729L11.912 18.2277H15.2246L15.217 18.1729H11.9043Z" fill="#BFB1EB"/>
<path d="M11.9981 18.8535L12.0057 18.9084H15.3184L15.3107 18.8535H11.9981Z" fill="#BFB1EB"/>
<path d="M17.2162 18.2027C17.2515 18.4557 17.0745 18.6614 16.8216 18.6614C16.5687 18.6614 16.3343 18.4557 16.2989 18.2027C16.2636 17.9499 16.4406 17.7441 16.6935 17.7441C16.9464 17.7441 17.1809 17.9499 17.2162 18.2027ZM16.9423 18.2027C16.9281 18.1009 16.8337 18.018 16.7318 18.018C16.6299 18.018 16.5586 18.1009 16.5728 18.2027C16.5871 18.3047 16.6815 18.3875 16.7833 18.3875C16.8852 18.3875 16.9565 18.3047 16.9423 18.2027Z" fill="#F8E9D2"/>
<path d="M18.517 18.2027C18.5523 18.4557 18.3753 18.6614 18.1224 18.6614C17.8695 18.6614 17.635 18.4557 17.5997 18.2027C17.5644 17.9499 17.7414 17.7441 17.9943 17.7441C18.2472 17.7441 18.4817 17.9499 18.517 18.2027ZM18.2431 18.2027C18.2288 18.1009 18.1344 18.018 18.0325 18.018C17.9306 18.018 17.8594 18.1009 17.8736 18.2027C17.8879 18.3047 17.9823 18.3875 18.0841 18.3875C18.186 18.3875 18.2573 18.3047 18.2431 18.2027Z" fill="#886DE3"/>
<path d="M19.8178 18.2027C19.8531 18.4557 19.6761 18.6614 19.4232 18.6614C19.1703 18.6614 18.9358 18.4557 18.9005 18.2027C18.8652 17.9499 19.0422 17.7441 19.2951 17.7441C19.548 17.7441 19.7824 17.9499 19.8178 18.2027ZM19.5439 18.2027C19.5296 18.1009 19.4352 18.018 19.3333 18.018C19.2315 18.018 19.1602 18.1009 19.1744 18.2027C19.1886 18.3047 19.2831 18.3875 19.3849 18.3875C19.4868 18.3875 19.5581 18.3047 19.5439 18.2027Z" fill="#FE9A07"/>
<path d="M13.9891 17.4723C13.825 17.8164 13.6552 18.1722 13.0295 18.1722C12.1516 18.1722 12.117 18.8956 12.1168 18.9029L12.1716 18.9068C12.1726 18.879 12.2057 18.227 13.0314 18.227C13.6905 18.227 13.8756 17.8393 14.0388 17.4972C14.1856 17.1893 14.3245 16.8985 14.7812 16.8985L14.7793 16.8438C14.2891 16.8438 14.1365 17.1633 13.9891 17.4723Z" fill="#E18C0E"/>
<path d="M14.1605 18.0764C13.9777 18.2734 13.7886 18.4771 13.1087 18.4771C12.1669 18.4771 12.1175 18.8871 12.1159 18.9046L12.1704 18.9118C12.1708 18.908 12.2222 18.5319 13.1105 18.5319C13.8138 18.5319 14.0108 18.3197 14.2013 18.1144C14.365 17.9381 14.5195 17.7716 15.0176 17.7716L15.0157 17.7168C14.4943 17.7168 14.3322 17.8915 14.1605 18.0764Z" fill="#F8E9D2"/>
<path d="M11.7565 12.6636C11.3774 12.9005 11.2833 13.4348 11.5465 13.856C11.8097 14.2772 12.3312 14.4269 12.7103 14.19C13.0894 13.9531 13.1835 13.4188 12.9203 12.9976C12.6571 12.5764 12.1356 12.4267 11.7565 12.6636Z" fill="#886DE3"/>
<path d="M13.9323 12.6636C13.5532 12.9005 13.4591 13.4348 13.7223 13.856C13.9855 14.2772 14.507 14.4269 14.8861 14.19C15.2652 13.9531 15.3592 13.4188 15.096 12.9976C14.8328 12.5764 14.3113 12.4267 13.9323 12.6636Z" fill="#FAA21E"/>
<path d="M14.4297 12.4258V13.4827L13.4226 13.5921C13.4226 13.5921 13.153 13.2002 13.2995 12.8862C13.446 12.5723 14.4297 12.4258 14.4297 12.4258Z" fill="white"/>
<path d="M12.3066 12.3867L12.2752 13.496L11.3479 14.0225C11.3479 14.0225 10.9986 13.1192 11.1451 12.8053C11.2916 12.4914 12.3066 12.3867 12.3066 12.3867Z" fill="white"/>
<path d="M19.3959 15.4872L18.4841 15.1222L17.4983 15.7461L16.2752 15.8645L15.4168 17.188H20.2246L19.8397 14.4316L19.3959 15.4872Z" fill="#BFB1EB"/>
<path d="M19.4614 16.082L19.0348 15.9771L17.9893 16.2604L16.9099 16.3663L15.4186 17.1857H20.2266L20.0047 15.5967L19.4614 16.082Z" fill="#FBF1E4"/>
</g>
<mask id="mask3_9489_16004" style="mask-type:luminance" maskUnits="userSpaceOnUse" x="20" y="13" width="16" height="20">
<path d="M35.3184 13.7422H20.3331V32.1599H35.3184V13.7422Z" fill="white"/>
</mask>
<g mask="url(#mask3_9489_16004)">
<path d="M28.9488 26.1553L26.9724 26.1632C26.7627 26.1632 26.2927 26.3306 26.2618 26.5461L25.5978 32.1317H25.8586L26.5639 26.5733C26.5821 26.4465 26.8922 26.3395 27.0155 26.3395L28.9042 26.3403C29.0275 26.3403 29.0332 26.4677 29.0514 26.5943L29.7313 32.1317H30.0957L29.3854 26.5461C29.3544 26.3306 29.1586 26.1553 28.9488 26.1553Z" fill="#18006B"/>
<path d="M33.1375 26.1436H30.7127C30.503 26.1436 30.2311 26.325 30.2001 26.5479L29.5365 32.1327H29.7972L30.5023 26.5761C30.5204 26.4449 30.6399 26.3341 30.7633 26.3341H33.0869C33.2102 26.3341 33.1524 26.4178 33.1707 26.5489L34.1924 32.1327H34.5234L33.574 26.5479C33.5432 26.325 33.3473 26.1436 33.1375 26.1436Z" fill="#18006B"/>
<path d="M33.2777 25.9492H33.5171C33.6675 25.603 33.932 24.2824 34.0562 23.2767C34.0711 23.1561 34.0827 23.0608 34.0909 23.0108L34.1055 22.9199L33.9305 22.8896C33.7651 23.9385 33.3123 25.9078 33.2777 25.9492Z" fill="#18006B"/>
<path d="M33.1478 25.9492H33.3359C33.4952 25.6231 33.7673 24.2903 33.8975 23.244C33.9122 23.1266 33.9237 23.0339 33.9316 22.9844L33.7567 22.9541C33.6442 24.3458 33.1884 25.8935 33.1478 25.9492Z" fill="#512FBF"/>
<path d="M30.1291 23.2197C30.0905 23.5123 29.8354 24.891 29.751 25.3124C29.6823 25.655 29.6221 25.8444 29.5771 25.9493H29.7563C29.9051 25.5798 30.1721 24.251 30.3048 23.2447C30.3187 23.1393 30.3516 22.92 30.3516 22.92L30.1767 22.8896C30.1767 22.8896 30.1432 23.1129 30.1291 23.2197Z" fill="#18006B"/>
<path d="M29.4073 25.9492H29.5909C29.7456 25.6114 30.0137 24.2816 30.141 23.2508C30.1559 23.1299 30.1677 23.0345 30.1758 22.9844L30.0008 22.9541C29.8103 24.9471 29.4508 25.8746 29.4073 25.9492Z" fill="#512FBF"/>
<path d="M34.7745 19.2441H31.2221C30.886 19.2441 30.5706 19.5017 30.5213 19.8168L30.0551 23.0502C30.0551 23.0502 31.2049 23.2695 32.6497 23.2695C34.0945 23.2695 34.6396 23.0502 34.6396 23.0502L35.2962 19.8168C35.3455 19.5017 35.1107 19.2441 34.7745 19.2441Z" fill="#371F8B"/>
<path d="M34.4718 19.2441H30.9194C30.5832 19.2441 30.2678 19.5017 30.2186 19.8168L29.5619 23.0502C29.5619 23.0502 30.9022 23.2695 32.3469 23.2695C33.7917 23.2695 34.3368 23.0502 34.3368 23.0502L34.9934 19.8168C35.0428 19.5017 34.808 19.2441 34.4718 19.2441Z" fill="#512FBF"/>
<path d="M29.4339 25.8945C29.4334 25.9042 29.4319 25.9135 29.4319 25.9232C29.4319 26.1527 29.5617 26.3388 29.7217 26.3388H33.4366C33.5967 26.3388 33.7266 26.1527 33.7266 25.9232C33.7266 25.9135 33.725 25.9042 33.7246 25.8945H29.4339Z" fill="#371F8B"/>
<path d="M25.7982 25.8945C25.7977 25.9042 25.7959 25.9135 25.7959 25.9232C25.7959 26.1527 25.9436 26.3388 26.1258 26.3388H30.4923C30.6745 26.3388 30.8223 26.1527 30.8223 25.9232C30.8223 25.9135 30.8205 25.9042 30.82 25.8945H25.7982Z" fill="#512FBF"/>
<path d="M27.5131 20.2206C26.7824 19.9367 24.5831 19.8203 24.2179 19.5052C23.8527 19.19 23.3627 18.9413 23.032 19.1183C22.6944 19.2991 22.6093 19.6935 23.1165 19.7995C23.3432 19.8468 23.5 20.0957 24.035 20.1421C24.5714 20.1885 26.1827 21.02 26.9501 21.1976C27.7106 21.3737 28.0075 20.4127 27.5131 20.2206Z" fill="#FBE1BB"/>
<path d="M30.1112 18.9907C29.7907 19.526 27.9335 20.8929 27.5691 21.1919C27.1298 21.5523 26.5241 21.1923 26.6541 20.6884C26.7648 20.2591 28.8541 18.2303 29.1526 18.0498C29.6915 17.7238 30.5122 18.3208 30.1112 18.9907Z" fill="#FBE1BB"/>
<path d="M28.6678 20.6082C29.2813 20.088 30.1694 18.9906 30.3319 18.7192C30.7329 18.0493 29.9122 17.4523 29.3733 17.7783C29.2052 17.8799 28.2478 18.7084 27.5653 19.4742C27.528 19.7805 28.0723 20.5358 28.6678 20.6082Z" fill="#E18C0E"/>
<path d="M31.2864 16.3934C31.2864 16.3934 31.1099 17.3817 31.5508 17.3917C31.9917 17.4018 32.8062 17.5142 33.0867 17.9038C33.3671 18.2934 33.7006 21.7165 33.3357 24.2054C33.3357 24.2054 30.3737 25.1245 28.9229 23.6261C28.9229 23.6261 28.4655 18.68 28.9096 18.0068C29.2799 17.4454 30.1704 17.4917 30.1704 17.4917C30.1704 17.4917 30.4215 17.2806 30.3348 16.8074C30.1228 15.6519 31.2864 16.3934 31.2864 16.3934Z" fill="#FC9802"/>
<path d="M33.0867 17.9038C33.029 17.8237 32.9485 17.7555 32.8535 17.6973L32.6165 20.4939C32.5155 21.6848 32.0617 22.8186 31.313 23.7502L31.0444 24.0844C32.4953 25.5827 33.3357 24.2055 33.3357 24.2055C33.7006 21.7166 33.3671 18.2935 33.0867 17.9038Z" fill="#DF8E14"/>
<path d="M31.9004 17.4165C31.5537 18.0335 30.9462 18.3733 30.4091 18.2009C30.1008 18.1021 29.872 17.8524 29.7473 17.5249C29.9839 17.4819 30.1694 17.4918 30.1694 17.4918C30.1694 17.4918 30.4203 17.2807 30.3335 16.8074C30.1216 15.6518 31.2855 16.3936 31.2855 16.3936C31.2855 16.3936 31.1088 17.3817 31.5497 17.3917C31.6503 17.3939 31.771 17.4016 31.9004 17.4165Z" fill="#FBE1BB"/>
<path d="M31.5497 17.3923C31.1088 17.3823 31.2855 16.3942 31.2855 16.3942C31.2855 16.3942 31.2255 16.356 31.1354 16.3105L31.125 16.771C31.1107 17.4025 30.5871 17.9029 29.9556 17.8886C30.0765 18.0345 30.2292 18.1439 30.4091 18.2015C30.9462 18.374 31.5537 18.0341 31.9004 17.4172C31.771 17.4022 31.6503 17.3946 31.5497 17.3923Z" fill="#DABC90"/>
<path d="M33.4248 21.2032C32.6489 21.0914 30.2211 21.4793 29.7943 21.2547C29.3674 21.0301 28.5751 20.9038 28.2929 21.1508C28.0047 21.403 28.2083 21.6213 28.5287 21.7954C28.7322 21.906 28.9692 21.9975 29.5009 21.922C30.0339 21.8463 32.3089 22.282 33.0965 22.282C33.8772 22.282 33.9498 21.2789 33.4248 21.2032Z" fill="#FBE1BB"/>
<path d="M33.164 18.2008C33.463 18.7484 33.698 21.0929 33.771 21.5587C33.859 22.1201 33.359 22.4895 32.9905 22.1221C32.6766 21.809 31.7773 18.8182 31.7729 18.4694C31.7652 17.8396 32.7898 17.5155 33.164 18.2008Z" fill="#FBE1BB"/>
<path d="M33.7786 20.2798C33.6261 19.3874 33.3613 18.4706 33.1901 18.1572C32.7833 17.412 31.6803 17.8295 31.6888 18.5142C31.6909 18.6853 31.9148 19.5913 32.1724 20.448C32.8691 20.6133 33.6728 20.3678 33.7786 20.2798Z" fill="#E28D0D"/>
<path d="M22.5294 27.6594C22.5294 27.6594 22.4974 27.8227 22.3538 27.8956C22.2101 27.9685 21.5733 28.2173 21.6463 28.4361C21.6854 28.553 21.9768 28.7738 22.0774 28.8717C22.1571 28.9492 22.2875 28.9334 22.3456 28.8387C22.4223 28.7135 22.6215 28.4473 22.6943 28.3677C22.8248 28.2249 23.3093 27.6538 23.3093 27.6538L22.7799 27.2729L22.5294 27.6594Z" fill="#FBE1BB"/>
<path d="M21.7262 28.3958C21.7128 28.2034 21.9978 28.1291 21.8602 27.9843C21.6825 28.111 21.437 28.0739 21.0902 27.7481C20.7744 27.4514 20.3399 27.757 20.3399 27.757L21.9786 29.2966C21.9786 29.2966 22.1901 29.3781 22.316 28.8329C22.1443 28.6716 21.7462 28.6861 21.7262 28.3958Z" fill="#180C40"/>
<path d="M33.3593 23.9183C33.5489 25.0774 32.4641 26.0367 31.0021 25.8761C29.54 25.7155 27.2428 24.6076 26.1902 24.3816C26.1902 24.3816 24.8526 22.6852 25.7373 22.3102C27.9447 21.3746 33.3593 23.9183 33.3593 23.9183Z" fill="#473E65"/>
<path d="M24.8671 23.2479C24.0561 24.5093 22.4969 26.8905 22.0563 27.2546C22.0563 27.2546 22.4389 27.8999 22.9781 28.3482C22.9781 28.3482 26.3816 24.6464 26.7194 24.201C27.0751 23.7321 26.7291 23.2957 26.298 22.9778C25.835 22.6364 25.1783 22.764 24.8671 23.2479Z" fill="#473E65"/>
<path d="M31.002 25.8762C31.002 25.8762 27.7662 26.3111 26.7075 26.2379C26.1972 26.2027 24.3968 25.7023 24.8567 24.5109C25.3162 23.3206 28.5098 24.1425 31.002 25.8762Z" fill="#322950"/>
<path d="M25.1229 24.1909C27.1018 23.7848 28.1293 24.7716 27.9652 25.375C27.7094 26.3158 26.3129 26.0947 26.2365 26.1452C26.429 26.1976 26.5977 26.2266 26.7075 26.2342C27.7662 26.3074 31.002 25.8724 31.002 25.8724C28.7824 24.3285 26.0471 23.4941 25.1229 24.1909Z" fill="#161518"/>
<path d="M22.9355 31.5684C23.6536 31.4777 23.8548 30.5678 23.9745 30.123L24.6504 30.3815C24.6504 30.3815 24.2478 31.1419 24.2789 31.6598C24.3099 32.1777 24.1627 32.1289 24.1627 32.1289H22.0202C22.0202 32.1289 22.2174 31.659 22.9355 31.5684Z" fill="#FBE1BB"/>
<path d="M22.9355 31.5668C23.1523 31.5394 23.376 31.4035 23.4872 31.2606C23.5593 31.1597 23.9097 31.271 23.968 31.4663C23.968 31.4663 24.1102 31.5686 24.2782 31.5529C24.2778 31.5888 24.2769 31.6244 24.2789 31.6581C24.3099 32.176 24.1628 32.1273 24.1628 32.1273H22.0202C22.0202 32.1273 22.2174 31.6574 22.9355 31.5668Z" fill="#180C40"/>
<path d="M24.7956 24.7236C24.7956 24.7236 23.9423 29.1941 23.624 30.5409C23.624 30.5409 24.3058 30.8928 24.7926 30.8178C24.7926 30.8178 27.0909 26.1146 26.2829 25.3968C25.8292 24.9937 24.7956 24.7236 24.7956 24.7236Z" fill="#332A50"/>
<path d="M29.5228 15.1346L29.8029 16.4867C29.8855 16.8855 30.2932 17.1382 30.7135 17.0512C31.1338 16.9641 31.4075 16.5702 31.3249 16.1715L31.318 16.1385C31.318 16.1385 31.7471 16.0176 31.6554 15.5752C31.5638 15.1327 31.3109 15.3734 31.3109 15.3734L31.1899 14.7894L29.5228 15.1346Z" fill="#FBE1BB"/>
<path d="M31.3111 15.3745L31.1901 14.7905L30.5983 14.9131C30.5993 14.9174 30.6007 14.9215 30.6016 14.9259L30.9185 16.4562C30.9739 16.7237 30.7688 16.9926 30.5072 17.0373C30.426 17.0512 30.3471 17.0438 30.2745 17.0201C30.4092 17.0696 30.5603 17.0841 30.7137 17.0523C31.134 16.9653 31.4077 16.5714 31.3251 16.1726L31.3183 16.1397C31.3183 16.1397 31.7473 16.0188 31.6557 15.5763C31.564 15.1339 31.3111 15.3745 31.3111 15.3745Z" fill="#DABC90"/>
<path d="M31.3028 15.3877C31.3028 15.3877 31.2574 15.8105 31.0728 15.3468C30.8881 14.883 30.7439 14.935 30.2132 15.0818C29.6825 15.2287 28.9987 15.1367 29.1516 14.4136C29.3019 13.7026 30.4383 13.9943 30.4383 13.9943C30.4383 13.9943 31.2278 13.5649 31.5073 14.201C31.7867 14.8371 31.3028 15.3877 31.3028 15.3877Z" fill="#180C40"/>
<path d="M30.2782 15.6377L30.2859 15.6746L30.1126 15.7105L30.1049 15.6736L30.2782 15.6377Z" fill="#1A0268"/>
<path d="M29.6712 15.8441L29.6636 15.8073L29.4598 15.8475L29.4674 15.8844L29.6712 15.8441Z" fill="#1A0268"/>
<path d="M30.7089 16.0355C30.9384 15.9825 30.9954 15.7164 30.9611 15.5511C30.9291 15.3966 30.7887 15.3368 30.5658 15.383C30.3429 15.4306 30.2378 15.5398 30.2698 15.6944C30.2894 15.789 30.3423 15.8842 30.4114 15.9492C30.4702 16.0045 30.5684 16.0647 30.7013 16.0372C30.7038 16.0366 30.7064 16.0361 30.7089 16.0355ZM30.5551 15.4239C30.5612 15.4225 30.5674 15.4211 30.5735 15.4199C30.7144 15.3907 30.8895 15.3911 30.9243 15.5587C30.9555 15.7094 30.9054 15.9515 30.7003 15.9988C30.6981 15.9993 30.6959 15.9998 30.6937 16.0002C30.5766 16.0245 30.4896 15.9709 30.4372 15.9217C30.3736 15.8619 30.3248 15.774 30.3067 15.6866C30.2735 15.5263 30.419 15.4553 30.5551 15.4239Z" fill="#1A0268"/>
<path d="M29.8827 16.2055C30.1122 16.1525 30.1692 15.8864 30.1349 15.7211C30.1029 15.5665 29.9625 15.5068 29.7396 15.5529C29.5168 15.5997 29.4116 15.7097 29.4436 15.8643C29.4782 16.0314 29.6393 16.256 29.8751 16.2072C29.8776 16.2066 29.8801 16.206 29.8827 16.2055ZM29.7289 15.5939C29.7351 15.5924 29.7412 15.5911 29.7473 15.5899C29.8881 15.5607 30.0633 15.5611 30.0981 15.7287C30.1296 15.881 30.0788 16.1286 29.8675 16.1702C29.6569 16.2139 29.512 16.0089 29.4805 15.8566C29.4473 15.6963 29.5929 15.6253 29.7289 15.5939Z" fill="#1A0268"/>
<path d="M31.2868 15.5088L31.2792 15.4719L30.925 15.5452L30.9327 15.5821L31.2868 15.5088Z" fill="#1A0268"/>
</g>
<mask id="mask4_9489_16004" style="mask-type:luminance" maskUnits="userSpaceOnUse" x="6" y="22" width="33" height="11">
<path d="M38.0391 22.2783H6.98013V32.1569H38.0391V22.2783Z" fill="white"/>
</mask>
<g mask="url(#mask4_9489_16004)">
<path d="M35.7874 32.1305H36.2422V22.9766H35.7874V32.1305Z" fill="#1A0268"/>
<path d="M16.7164 32.1305H17.1211V27.2185V22.9766H16.7164V32.1305Z" fill="#1A0268"/>
<path d="M31.2445 22.976H36.8105V22.7402H31.2445V22.976Z" fill="#1A0268"/>
<path d="M8.21205 22.976H31.2441V22.7402H8.21205V22.976Z" fill="#371F8B"/>
<path d="M30.0144 32.1305H30.5254V22.9766H30.0144V32.1305Z" fill="#371F8B"/>
<path d="M9.10895 32.1305H9.56445V27.2185V22.9766H9.10895V32.1305Z" fill="#371F8B"/>
<path d="M32.4633 22.741H38.0293V22.3213H32.4633V22.741Z" fill="#512FBF"/>
<path d="M6.99174 22.741H32.4941V22.3213H6.99174V22.741Z" fill="#886DE3"/>
</g>
<mask id="mask5_9489_16004" style="mask-type:luminance" maskUnits="userSpaceOnUse" x="19" y="18" width="12" height="5">
<path d="M30.2949 18.2236H19.4117V22.3258H30.2949V18.2236Z" fill="white"/>
</mask>
<g mask="url(#mask5_9489_16004)">
<path d="M25.3497 22.2911C25.3497 22.3065 25.3622 22.3191 25.3777 22.3191H30.2154C30.2463 22.3191 30.2715 22.294 30.2715 22.263V22.1279H25.3497V22.2911Z" fill="#161518"/>
<path d="M29.6398 22.0715V22.1284H29.8125V22.0527H29.6586C29.6483 22.0527 29.6398 22.0611 29.6398 22.0715Z" fill="#161518"/>
<path d="M29.4386 22.0715V22.1284H29.6113V22.0527H29.4575C29.447 22.0527 29.4386 22.0611 29.4386 22.0715Z" fill="#161518"/>
<path d="M29.2394 22.0715V22.1284H29.4121V22.0527H29.2582C29.2478 22.0527 29.2394 22.0611 29.2394 22.0715Z" fill="#161518"/>
<path d="M28.4035 22.0715V22.1284H28.5762V22.0527H28.4223C28.4119 22.0527 28.4035 22.0611 28.4035 22.0715Z" fill="#161518"/>
<path d="M28.2042 22.0715V22.1284H28.377V22.0527H28.2231C28.2127 22.0527 28.2042 22.0611 28.2042 22.0715Z" fill="#161518"/>
<path d="M25.8507 22.0715V22.1284H26.0234V22.0527H25.8696C25.8591 22.0527 25.8507 22.0611 25.8507 22.0715Z" fill="#161518"/>
<path d="M25.6515 22.0715V22.1284H25.8242V22.0527H25.6703C25.66 22.0527 25.6515 22.0611 25.6515 22.0715Z" fill="#161518"/>
<path d="M28.6093 22.0715V22.1284H29.2031V22.0527H28.6282C28.6178 22.0527 28.6093 22.0611 28.6093 22.0715Z" fill="#161518"/>
<path d="M24.9999 22.0715V22.1284H25.5938V22.0527H25.0188C25.0084 22.0527 24.9999 22.0611 24.9999 22.0715Z" fill="#161518"/>
<path d="M26.071 22.0715V22.1284H28.1328V22.0527H26.0899C26.0795 22.0527 26.071 22.0611 26.071 22.0715Z" fill="#161518"/>
<path d="M24.364 22.0527H23.9454C23.9219 22.0527 23.9027 22.0719 23.9027 22.0955V22.1285H24.3828V22.0715C24.3828 22.0611 24.3744 22.0527 24.364 22.0527Z" fill="#FBF1E4"/>
<path d="M23.7859 22.0527H23.3673C23.3437 22.0527 23.3246 22.0719 23.3246 22.0955V22.1285H23.8047V22.0715C23.8047 22.0611 23.7963 22.0527 23.7859 22.0527Z" fill="#FBF1E4"/>
<path d="M23.2076 22.0527H22.7891C22.7655 22.0527 22.7464 22.0719 22.7464 22.0955V22.1285H23.2266V22.0715C23.2266 22.0611 23.2181 22.0527 23.2076 22.0527Z" fill="#FBF1E4"/>
<path d="M22.6276 22.0527H22.2091C22.1855 22.0527 22.1664 22.0719 22.1664 22.0955V22.1285H22.6465V22.0715C22.6465 22.0611 22.6381 22.0527 22.6276 22.0527Z" fill="#FBF1E4"/>
<path d="M21.948 22.0527H21.729C21.7054 22.0527 21.6862 22.0719 21.6862 22.0955V22.1285H21.9668V22.0715C21.9668 22.0611 21.9584 22.0527 21.948 22.0527Z" fill="#FBF1E4"/>
<path d="M21.6062 22.0527H21.3872C21.3636 22.0527 21.3444 22.0719 21.3444 22.0955V22.1285H21.625V22.0715C21.625 22.0611 21.6165 22.0527 21.6062 22.0527Z" fill="#FBF1E4"/>
<path d="M21.2859 22.0527H21.0669C21.0432 22.0527 21.0241 22.0719 21.0241 22.0955V22.1285H21.3047V22.0715C21.3047 22.0611 21.2963 22.0527 21.2859 22.0527Z" fill="#FBF1E4"/>
<path d="M25.0433 18.4891C25.0008 18.3356 24.8875 18.2441 24.7103 18.2441L25.8098 22.2971C25.8098 22.2971 26.0229 22.2363 25.9701 22.0292C25.9261 21.8562 25.2726 19.3173 25.0433 18.4891Z" fill="#161518"/>
<path d="M24.6899 18.2441H19.5374C19.4654 18.2441 19.4126 18.312 19.4303 18.3818L20.3787 22.1282H25.7949L24.8416 18.3621C24.824 18.2927 24.7615 18.2441 24.6899 18.2441Z" fill="#1A0268"/>
<path d="M20.3983 22.2911C20.3983 22.3065 20.4108 22.3191 20.4263 22.3191H25.7428C25.7738 22.3191 25.7988 22.294 25.7988 22.263V22.1279H20.3983V22.2911Z" fill="#3B315D"/>
<path d="M21.7106 21.8413H20.3034L20.2042 21.4395H21.6618C21.7107 21.4395 21.7535 21.4724 21.7659 21.5198L21.8148 21.7065C21.8327 21.7747 21.7812 21.8413 21.7106 21.8413Z" fill="#BFB1EB"/>
</g>
<mask id="mask6_9489_16004" style="mask-type:luminance" maskUnits="userSpaceOnUse" x="9" y="13" width="14" height="20">
<path d="M22.3418 13.7422H9.44941V32.1599H22.3418V13.7422Z" fill="white"/>
</mask>
<g mask="url(#mask6_9489_16004)">
<path d="M14.1819 25.5186H13.8822L14.8917 32.1321H15.1914L14.1819 25.5186Z" fill="#BFB1EB"/>
<path d="M17.7073 25.5186H17.4076L18.4171 32.1321H18.7168L17.7073 25.5186Z" fill="#BFB1EB"/>
<path d="M18.2835 31.5222C18.0814 31.1706 18.0928 30.4096 18.0505 29.7691L17.141 29.814C17.2296 30.1412 17.5281 30.7233 17.297 31.6671C17.1327 32.3382 18.6607 32.1789 18.2835 31.5222Z" fill="#FBE1BB"/>
<path d="M17.8889 24.3523C17.8889 24.3523 18.0654 29.6365 18.1351 30.2277C18.1351 30.2277 17.6447 30.5025 17.1639 30.3496C17.1639 30.3496 15.999 25.1755 15.9187 24.6121C15.8385 24.0487 17.8889 24.3523 17.8889 24.3523Z" fill="#E18C0E"/>
<path d="M18.7952 31.656C18.5757 31.5922 18.3532 31.3295 18.1719 31.1435C18.1174 31.0861 18.065 31.3388 18.0051 31.4223C17.885 31.5897 17.3585 31.6698 17.1966 31.5602C17.2056 31.6077 17.2096 31.647 17.2149 31.6917C17.2961 32.3778 17.48 32.3092 17.48 32.3092L19.8174 32.26C19.8174 32.26 19.5225 31.8673 18.7952 31.656Z" fill="#180C40"/>
<path d="M15.1191 16.7926C15.1191 16.7926 14.8178 16.831 14.7783 17.0518C14.7389 17.2726 14.8689 17.4839 14.8689 17.4839C14.8689 17.4839 14.2267 17.6537 13.6536 17.4329C13.6536 17.4329 13.9441 16.8602 13.9494 16.2504C13.9546 15.6405 15.1191 16.7926 15.1191 16.7926Z" fill="#FBE1BB"/>
<path d="M14.4753 17.198C14.4786 16.9106 14.7093 16.6987 14.9766 16.6589C14.6661 16.3746 13.9524 15.7732 13.9483 16.2504C13.943 16.8603 13.6526 17.4329 13.6526 17.4329C13.9347 17.5416 14.2334 17.5555 14.4641 17.5418C14.4669 17.4272 14.474 17.3126 14.4753 17.198Z" fill="#DABC90"/>
<path d="M15.962 15.1188C15.962 15.1188 15.972 15.5279 15.8989 15.8528C15.8258 16.1778 15.8914 16.6295 15.5268 16.9602C15.1623 17.2909 14.4923 16.7832 14.3837 16.3118C14.275 15.8404 14.4678 15.5065 14.7273 15.3301C14.9869 15.1537 15.962 15.1188 15.962 15.1188Z" fill="#FBE1BB"/>
<path d="M15.2604 16.4697C15.2871 16.3083 15.6312 15.1396 15.6312 15.1396C15.3232 15.1656 14.8886 15.2206 14.728 15.3297C14.4684 15.5061 14.2756 15.84 14.3843 16.3114C14.4871 16.7576 15.0928 17.2359 15.4664 17.0052C15.3133 16.8782 15.2275 16.669 15.2604 16.4697Z" fill="#DABC90"/>
<path d="M15.5743 15.3461C15.5743 15.3461 15.4312 15.4528 15.3389 15.7314C15.2465 16.0099 15.1743 16.159 15.1017 15.9569C15.0292 15.7548 15.042 15.4481 14.7712 15.5982C14.5922 15.6974 14.5643 15.9354 14.5975 16.0719C14.6306 16.2083 14.4284 16.4733 14.1036 16.3208C13.7787 16.1684 13.6729 15.2231 13.6729 15.2231C13.6729 15.2231 15.2866 14.9391 15.5743 15.3461Z" fill="#161518"/>
<path d="M15.8782 14.2157C15.8782 14.2157 16.3192 14.3884 16.3114 14.7802C16.3044 15.1281 16.0757 15.4387 15.4704 15.3328C14.8652 15.227 14.7755 15.601 14.4406 15.6607C14.1057 15.7204 13.7941 15.5834 13.6806 15.2462C13.5627 14.8963 13.6645 14.5021 14.1017 14.2276C14.5389 13.9532 15.9076 13.6571 15.8782 14.2157Z" fill="#161518"/>
<path d="M20.7081 31.1025C20.5435 31.0653 20.2305 30.1634 20.0737 29.5685L19.2359 29.8861C19.3676 30.4991 19.697 30.8984 19.886 31.7802C19.9617 32.1338 21.1942 31.2124 20.7081 31.1025Z" fill="#FBE1BB"/>
<path d="M21.2587 31.3883C20.9986 31.4019 20.858 31.3198 20.7936 31.1819C20.6223 31.1571 20.6346 31.2582 20.5223 31.3503C20.1902 31.6228 19.8245 31.4213 19.7777 31.5079C19.473 32.0722 19.8689 32.1394 19.8689 32.1394L22.0615 32.0245C22.0615 32.0245 22.0261 31.348 21.2587 31.3883Z" fill="#180C40"/>
<path d="M18.7637 24.5146C18.7637 24.5146 20.1905 29.6404 20.3631 30.2225C20.3631 30.2225 19.9179 30.5838 19.4081 30.5137C19.4081 30.5137 17.5845 26.7612 17.406 26.2088C17.2275 25.6565 18.7637 24.5146 18.7637 24.5146Z" fill="#FE9A07"/>
<path d="M11.3327 22.7215C11.3327 23.4916 10.5107 25.3627 12.1228 25.345C13.7316 25.3273 18.6698 25.345 18.6698 25.345C18.6698 25.345 19.0063 24.6825 18.5489 24.2672C18.0915 23.8518 15.3222 23.2439 14.9847 22.8213C14.6473 22.3986 11.3327 22.7215 11.3327 22.7215Z" fill="#FE9A07"/>
<path d="M13.5755 25.1716C10.6943 25.1716 11.457 22.9661 11.7134 22.6904C11.2925 22.7194 11.3318 22.7233 11.3318 22.7233C11.3318 23.4934 10.5099 25.3645 12.122 25.3468C13.2741 25.3341 16.1334 25.3396 17.6641 25.3437C17.4911 25.3024 13.9673 25.1716 13.5755 25.1716Z" fill="#E9900B"/>
<path d="M15.024 17.4454C15.3435 17.4608 15.873 17.889 15.873 18.5417C15.873 19.404 15.715 20.6079 15.3259 21.2178C14.9368 21.8277 15.6759 22.5584 15.024 22.8213C14.3721 23.0842 11.3511 23.1211 11.2354 22.6795C11.1198 22.2378 11.7544 19.2355 11.9347 18.6415C12.1135 18.0527 12.4342 17.6216 12.676 17.5164C12.9179 17.4113 14.4374 17.4172 15.024 17.4454Z" fill="#FBA017"/>
<path d="M11.6715 21.9148C11.6548 21.543 11.6213 21.1416 11.7037 20.7783C12.277 18.2525 12.9133 17.9857 13.1679 17.7665C13.4689 17.5075 13.8315 17.6778 14.2323 17.6644C14.7741 17.6461 14.9758 17.4442 14.9805 17.4435C14.3665 17.417 12.9113 17.4137 12.6751 17.5164C12.4332 17.6216 12.1125 18.0527 11.9337 18.6415C11.7534 19.2355 11.1188 22.2378 11.2344 22.6795C11.2852 22.8731 11.8947 22.9748 12.6182 23.0057C12.1053 22.8817 11.699 22.5298 11.6715 21.9148Z" fill="#DA8910"/>
<path d="M15.0234 17.4444C14.8286 17.3433 14.6583 17.4169 14.4788 17.2433C14.1575 16.9325 13.6985 16.9565 13.6985 16.9565L13.2013 17.4471C13.2013 17.4471 14.3457 17.9057 15.0234 17.4444Z" fill="white"/>
<path d="M21.8675 21.7526C21.4351 21.835 21.3273 22.2673 20.9374 22.1783C20.5475 22.0893 20.382 22.1293 20.342 21.8264C20.3019 21.5235 20.5484 21.5013 21.0386 21.4079C21.5171 21.3167 22.5095 21.6303 21.8675 21.7526Z" fill="#FBE1BB"/>
<path d="M14.9323 17.5466C15.1919 17.3133 15.8518 17.6328 16.3039 18.2112C16.7561 18.7895 17.6988 20.9774 17.9359 21.4755C18.1567 21.9395 17.4837 22.7479 16.7476 22.0013C16.0116 21.2547 15.4549 20.1035 15.192 19.2833C14.9291 18.4631 14.6506 17.7997 14.9323 17.5466Z" fill="#FBA017"/>
<path d="M14.5466 22.2053H10.0267C9.92299 22.2053 9.83144 22.1307 9.80495 22.0247L9.4859 20.7462C9.44869 20.597 9.55346 20.4531 9.6993 20.4531H14.2193C14.323 20.4531 14.4146 20.5277 14.441 20.6337L14.76 21.9122C14.7972 22.0614 14.6925 22.2053 14.5466 22.2053Z" fill="#886DE3"/>
<path d="M14.4157 22.2053H10.0175C9.91661 22.2053 9.82875 22.1364 9.80481 22.0384L9.51603 20.8568C9.48237 20.7189 9.58677 20.5859 9.72867 20.5859H14.127C14.2279 20.5859 14.3157 20.6548 14.3396 20.7529L14.6284 21.9344C14.6621 22.0723 14.5577 22.2053 14.4157 22.2053Z" fill="#F8E9D2"/>
<path d="M18.8906 25.6011H15.4417V25.2461H18.8906V25.6011Z" fill="#512FBF"/>
<path d="M14.7394 25.5176H15.0391L14.0296 32.131H13.7299L14.7394 25.5176Z" fill="white"/>
<path d="M11.214 25.5176H11.5137L10.5042 32.131H10.2045L11.214 25.5176Z" fill="white"/>
<path d="M15.4414 25.6011H10.8593V25.2461H15.4414V25.6011Z" fill="#886DE3"/>
<path d="M14.9564 25.4858C14.9014 25.4858 14.8511 25.4487 14.8368 25.3929L13.7639 21.209C13.7469 21.1429 13.7868 21.0756 13.8529 21.0587C13.9192 21.0414 13.9864 21.0815 14.0033 21.1477L15.0762 25.3315C15.0932 25.3976 15.0533 25.465 14.9872 25.4819C14.9769 25.4845 14.9666 25.4858 14.9564 25.4858Z" fill="#BFB1EB"/>
<path d="M14.8334 25.4858C14.7783 25.4858 14.728 25.4487 14.7137 25.3929L13.6408 21.209C13.6239 21.1429 13.6638 21.0756 13.7298 21.0587C13.7962 21.0414 13.8632 21.0815 13.8802 21.1477L14.9531 25.3315C14.9701 25.3976 14.9302 25.465 14.8641 25.4819C14.8538 25.4845 14.8435 25.4858 14.8334 25.4858Z" fill="white"/>
<path d="M11.4564 25.4858C11.4014 25.4858 11.3511 25.4487 11.3368 25.3929L10.264 21.209C10.247 21.1429 10.2868 21.0756 10.3529 21.0587C10.4192 21.0414 10.4864 21.0815 10.5033 21.1477L11.5762 25.3315C11.5931 25.3976 11.5532 25.465 11.4872 25.4819C11.4769 25.4845 11.4666 25.4858 11.4564 25.4858Z" fill="#BFB1EB"/>
<path d="M11.3334 25.4858C11.2783 25.4858 11.228 25.4487 11.2138 25.3929L10.1409 21.209C10.1239 21.1429 10.1638 21.0756 10.2298 21.0587C10.2963 21.0414 10.3633 21.0815 10.3802 21.1477L11.4531 25.3315C11.4701 25.3976 11.4302 25.465 11.3641 25.4819C11.3538 25.4845 11.3435 25.4858 11.3334 25.4858Z" fill="white"/>
<path d="M17.2901 22.3027C18.0366 22.4229 19.2454 22.371 20.7603 22.3783C20.7603 22.3783 20.9606 21.8018 20.7379 21.3994C20.7379 21.3994 17.86 21.1403 17.5523 21.1375C17.2446 21.1346 16.5133 22.1777 17.2901 22.3027Z" fill="#FBA017"/>
</g>
</g>
</g>
</g>
<defs>
<clipPath id="clip0_9489_16004">
<rect width="42.0531" height="28.0354" fill="white" transform="translate(0.472656 3.98242)"/>
</clipPath>
</defs>
</svg>
