<svg width="36" height="39" viewBox="0 0 36 39" fill="none" xmlns="http://www.w3.org/2000/svg">
<g clip-path="url(#clip0_9489_15906)">
<path d="M16.0768 18.7681C18.6446 18.3236 20.4356 15.4856 20.0771 12.4293C19.7185 9.3729 17.3462 7.25557 14.7784 7.70006C12.2106 8.14455 10.4196 10.9825 10.7781 14.0389C11.1366 17.0953 13.5089 19.2126 16.0768 18.7681Z" fill="#F6921E"/>
<path d="M16.4889 18.7144C19.0567 18.2699 20.8477 15.4319 20.4892 12.3755C20.1306 9.31919 17.7583 7.20186 15.1905 7.64635C12.6227 8.09084 10.8317 10.9288 11.1902 13.9852C11.5487 17.0416 13.921 19.1589 16.4889 18.7144Z" fill="#6D4EFC"/>
<path d="M11.1797 13.7909C13.1758 11.7939 15.1719 9.79977 17.1705 7.80273C17.457 7.90598 17.797 8.06232 18.1588 8.30126C18.3676 8.4399 18.5498 8.58444 18.7076 8.72603L11.7309 15.8292C11.7309 15.8292 11.2185 15.1449 11.1797 13.7909Z" fill="#6E4FFE"/>
<path d="M13.3027 17.9006C15.5951 15.6027 17.8875 13.3018 20.1774 11.0039C20.2746 11.29 20.3693 11.6352 20.4373 12.0304C20.4713 12.234 20.4955 12.4287 20.5125 12.6086C18.5529 14.6027 16.5932 16.5997 14.6335 18.5938C14.4829 18.5496 14.3178 18.4876 14.1454 18.4109C13.8078 18.2575 13.5286 18.0746 13.3027 17.9006Z" fill="#421BF5"/>
<path d="M15.8775 17.4989C17.8249 17.4989 19.4035 15.5813 19.4035 13.2158C19.4035 10.8502 17.8249 8.93262 15.8775 8.93262C13.9302 8.93262 12.3516 10.8502 12.3516 13.2158C12.3516 15.5813 13.9302 17.4989 15.8775 17.4989Z" fill="#593FD2"/>
<path d="M16.5497 17.2753C18.3926 16.9563 19.6732 14.879 19.41 12.6355C19.1468 10.392 17.4395 8.8319 15.5966 9.15091C13.7537 9.46991 12.4731 11.5472 12.7363 13.7907C12.9995 16.0342 14.7068 17.5943 16.5497 17.2753Z" fill="#6140FD"/>
<path d="M15.8574 11.422C15.8574 11.422 16.1683 11.5311 16.3382 11.658C16.5082 11.7848 16.8312 11.655 16.7583 11.2745C16.6855 10.894 16.3649 10.7524 16.1634 10.7052C15.9618 10.658 15.8671 10.658 15.8671 10.658L15.8113 10.6432L15.7554 10.1772C15.7554 10.1772 15.6486 10.0651 15.4495 10.0415C15.2503 10.0179 15.1629 10.2951 15.1629 10.2951L15.2358 10.8084C15.2358 10.8084 14.2498 11.1506 14.398 12.242C14.5461 13.3335 15.4203 13.2892 15.4203 13.2892C15.4203 13.2892 16.6078 13.0503 16.7316 13.9234C16.8555 14.7966 16.2241 15.1181 15.9303 15.0473C15.6364 14.9765 15.3183 15.0149 15.0803 14.4898C14.8424 13.9647 14.4781 14.4869 14.4757 14.5872C14.4733 14.6874 14.7355 15.419 15.1653 15.6815C15.1653 15.6815 15.3887 15.8054 15.5587 15.8113C15.7287 15.8143 15.7797 15.7907 15.7797 15.7907L15.8526 16.3453C15.8526 16.3453 15.8963 16.4278 16.1367 16.4603C16.3771 16.4927 16.4694 16.2479 16.4694 16.2479L16.4087 15.6668C16.4087 15.6668 17.159 15.5458 17.3897 14.2479C17.6204 12.95 16.4548 12.4987 16.0056 12.5252C15.5563 12.5547 15.0415 12.7258 15.0488 11.9677C15.0512 11.8586 15.2892 11.3482 15.8574 11.422Z" fill="#593FD2"/>
<path d="M16.0898 11.3956C16.0898 11.3956 16.4007 11.5048 16.5707 11.6316C16.7406 11.7584 17.0636 11.6287 16.9908 11.2481C16.9179 10.8676 16.5974 10.726 16.3958 10.6788C16.1943 10.6316 16.0996 10.6316 16.0996 10.6316L16.0437 10.6169L15.9879 10.1508C15.9879 10.1508 15.881 10.0387 15.6819 10.0151C15.4828 9.9915 15.3953 10.2688 15.3953 10.2688L15.4682 10.7821C15.4682 10.7821 14.4823 11.1242 14.6304 12.2157C14.7785 13.3071 15.6527 13.2629 15.6527 13.2629C15.6527 13.2629 16.8402 13.0239 16.9641 13.8971C17.0879 14.7702 16.4565 15.0918 16.1627 15.021C15.8689 14.9502 15.5507 14.9885 15.3128 14.4634C15.0748 13.9384 14.7105 14.4605 14.7081 14.5608C14.7057 14.6611 14.9679 15.3926 15.3978 15.6552C15.3978 15.6552 15.6212 15.7791 15.7912 15.785C15.9611 15.7879 16.0121 15.7643 16.0121 15.7643L16.085 16.3189C16.085 16.3189 16.1287 16.4015 16.3691 16.4339C16.6095 16.4664 16.7018 16.2215 16.7018 16.2215L16.6411 15.6404C16.6411 15.6404 17.3914 15.5195 17.6221 14.2216C17.8553 12.9266 16.6872 12.4723 16.238 12.4989C15.7887 12.5284 15.2739 12.6994 15.2812 11.9413C15.2812 11.8322 15.5192 11.3219 16.0898 11.3956Z" fill="#7051FE"/>
<path d="M19.0605 32.8909L19.233 33.8909L19.2815 34.4071L20.1169 34.3422C20.1169 34.3422 20.0319 33.0325 19.9469 32.7257C19.8619 32.4189 19.0605 32.8909 19.0605 32.8909Z" fill="#BAABFE"/>
<path d="M25.3055 31.5727L25.9952 31.7202L25.9854 32.791L24.8223 32.6287L25.0384 31.7202L25.07 31.5107L25.3055 31.5727Z" fill="#BAABFE"/>
<path d="M19.1973 8.07705C19.2191 8.45758 19.2434 8.8381 19.2653 9.21863C19.3308 9.34253 19.3964 9.46642 19.4644 9.59031C19.9282 9.56081 20.392 9.53426 20.8534 9.50477L20.8267 9.41627L20.3507 7.80566L19.1973 8.07705Z" fill="#BAABFE"/>
<path d="M19.3418 9.30078C19.3418 9.30078 19.5434 9.33618 19.8348 9.39813C20.1262 9.46007 20.4151 9.44827 20.5147 9.42467C20.6143 9.40107 20.8182 9.36273 20.8182 9.36273L20.8547 9.50432C20.8547 9.50432 19.7886 9.56627 19.7619 9.56627C19.7352 9.56627 19.4802 9.45417 19.4802 9.45417L19.3418 9.30078Z" fill="#A18DFE"/>
<path d="M19.2674 9.21875C19.2601 9.2394 19.2528 9.26595 19.2552 9.30135C19.2625 9.39574 19.3451 9.45769 19.3694 9.47539C19.3791 9.48424 19.4835 9.64648 19.6923 9.96801C19.6923 9.96801 19.8939 10.2807 20.1051 10.8677C20.3067 11.4282 20.5471 12.7615 20.4694 14.4842C20.45 14.9267 20.3407 16.6641 19.7482 18.3485C19.6413 18.6523 19.5466 18.8853 19.4835 19.0358C19.1678 19.7998 18.5 21.1892 18.5 21.1892C18.5 21.1892 18.653 21.6464 20.1464 21.4517C21.6399 21.257 21.9337 20.8027 21.9337 20.8027L21.9483 20.7319L21.7807 15.0624L20.8919 9.42819C20.7171 9.48423 20.4524 9.54323 20.1294 9.51373C19.7385 9.47833 19.4422 9.32494 19.2674 9.21875Z" fill="white"/>
<path d="M18.2907 19.2366C18.2907 19.2366 15.3233 24.9151 15.1946 26.2395C15.0659 27.564 15.5176 27.8885 15.7118 28.1333C15.9061 28.3782 19.046 33.2188 19.046 33.2188C19.046 33.2188 19.5511 33.328 19.9178 33.2188C20.2844 33.1097 20.3379 32.8796 20.3379 32.8796C20.3379 32.8796 17.8755 27.4431 17.8172 26.6938C17.7517 25.8826 19.3495 23.0213 19.3495 23.0213C19.3495 23.0213 20.3014 28.8826 20.3646 29.2484C20.4277 29.6141 24.8716 33.1628 24.8716 33.1628C24.8716 33.1628 25.163 32.9474 25.4423 32.3368C25.7215 31.7292 25.7215 31.2542 25.7215 31.2542L22.1713 28.1215C22.1713 28.1215 22.6885 23.6879 22.6885 22.036C22.6885 22.036 22.6667 21.4018 22.6351 21.1717C22.6035 20.9416 20.8721 19.508 19.6773 19.1717C18.4826 18.8325 18.2907 19.2366 18.2907 19.2366Z" fill="#2D264F"/>
<path d="M19.9037 3.9802C19.8721 3.9212 18.9324 4.85335 18.6215 5.89169C18.3107 6.93003 18.5074 7.73238 18.9639 7.96542C19.4205 8.19845 19.9547 8.03621 20.1247 7.94182C20.2971 7.84742 20.7342 7.58194 20.7536 7.51409C20.7731 7.4433 20.943 7.59079 21.2029 7.35775C21.4627 7.12472 21.4506 6.86513 21.2782 6.579L21.1762 6.41381C21.1762 6.41381 21.4433 5.64685 21.4579 5.38137C21.4724 5.11883 21.3292 5.04214 21.1713 4.97724C21.0183 4.91234 20.3335 4.81795 19.9037 3.9802Z" fill="#BAABFE"/>
<path d="M19.7885 3.9209C19.7885 3.9209 19.7497 4.05069 19.8517 4.26308C19.9536 4.47547 20.2645 4.81175 20.5365 4.92384C20.8084 5.03593 21.2504 5.04183 21.2674 5.22767C21.2844 5.41351 21.2115 5.81174 21.1873 5.90908C21.1605 6.00643 21.1873 6.32796 21.1873 6.32796C21.1873 6.32796 21.5151 5.62 21.5151 5.53741C21.5151 5.45481 21.5879 5.10378 21.35 4.93269C21.112 4.7616 20.6749 4.70555 20.6579 4.69375C20.6384 4.6849 19.7885 3.9209 19.7885 3.9209Z" fill="#A18DFE"/>
<path d="M20.0926 2.35143C20.0926 2.35143 19.6652 2.75556 19.6264 3.42812C19.59 4.10068 20.2772 4.6464 20.5249 4.76144C20.7726 4.87944 21.1951 4.98858 21.1951 4.98858C21.1951 4.98858 21.4185 5.13017 21.3821 5.4576C21.3457 5.78503 21.1296 6.39565 21.1296 6.39565C21.1296 6.39565 21.4477 6.72013 21.3214 7.10656C21.1951 7.49298 20.8187 7.50478 20.7362 7.46939C20.7362 7.46939 20.503 7.67587 20.4253 7.72602C20.4253 7.72602 20.5759 8.01805 21.37 7.73782C22.164 7.45759 22.4919 6.55789 22.5744 6.27766C22.657 5.99742 22.7274 5.14197 22.3267 4.6582C21.9261 4.17443 21.6516 4.26587 21.6978 3.54611C21.7439 2.82635 21.2874 2.83225 21.2607 2.83225C21.234 2.83225 20.6633 2.965 20.6633 2.965C20.6633 2.965 20.4545 2.80866 20.3865 2.55497C20.3185 2.30128 20.1946 2.22754 20.1946 2.22754L20.0926 2.35143Z" fill="#2D264F"/>
<path d="M21.3191 19.9944C21.3191 19.9944 21.2341 21.4103 21.6688 22.1625C22.1035 22.9176 22.6037 22.8852 22.6037 22.8852C22.6037 22.8852 22.7567 21.2952 22.543 20.8616C22.3293 20.428 21.2754 19.9619 21.2754 19.9619L21.3191 19.9944Z" stroke="white" stroke-width="3" stroke-miterlimit="10"/>
<path d="M20.8884 9.42825C20.8884 9.42825 21.7699 9.09787 22.5033 10.0123C23.2342 10.9238 24.0574 12.325 24.412 14.5256C24.7665 16.7261 24.4387 18.5963 24.0307 19.3692C23.6203 20.142 23.1371 20.7497 22.7656 21.0653C22.394 21.381 22.394 21.381 22.394 21.381C22.394 21.381 21.8088 20.7969 21.6776 19.6258C21.5465 18.4547 21.7796 17.8707 21.7796 17.8707L20.8544 9.50495C20.8544 9.50495 20.8447 9.42235 20.8884 9.42825Z" fill="#F6921E"/>
<path d="M21.0488 17.0302C21.1484 16.9919 22.0299 16.7736 22.6175 15.9447C23.2052 15.1158 23.3801 13.0273 23.2246 11.9831C23.0692 10.9388 22.7657 10.2132 22.3504 9.85331C21.9352 9.49343 21.0488 17.0302 21.0488 17.0302Z" fill="#F6921E"/>
<path d="M17.6182 18.151C17.6036 18.1628 17.2466 18.4489 17.0888 18.4194C16.9309 18.3899 16.4428 18.0507 16.2194 18.1746C15.996 18.2985 15.9645 18.6082 16.1733 18.7704C16.3821 18.9356 16.5327 18.9622 16.5327 18.9622C16.5327 18.9622 16.0106 19.3073 15.9232 19.2778C15.8358 19.2483 15.724 19.1362 15.6293 19.1893C15.5371 19.2424 15.3452 20.1362 15.9037 20.499C16.4623 20.8619 16.9552 20.9268 17.3753 20.7557C17.793 20.5846 18.2034 20.44 18.422 20.2247C18.6405 20.0094 18.6599 19.8914 18.6599 19.8914L18.6454 19.7675L17.6182 18.151Z" fill="#BAABFE"/>
<path d="M18.1479 18.7139C18.1382 18.7463 18.2766 19.8407 17.8322 20.1917C17.3903 20.5428 16.8706 20.708 16.6666 20.7198C16.4627 20.7316 16.0547 20.5959 16.0547 20.5959C16.0547 20.5959 16.6812 20.9941 17.3951 20.7374C17.3951 20.7374 17.9877 20.5605 18.3446 20.2891C18.7016 20.0177 18.7016 19.7611 18.7016 19.7611L18.1479 18.7139Z" fill="#A18DFE"/>
<path d="M21.251 9.39304C21.251 9.39304 20.5954 9.72637 20.5104 11.1836C20.4278 12.6408 20.4837 14.1688 20.3161 14.7057C20.1485 15.2425 17.5332 17.8413 17.5332 17.8413C17.5332 17.8413 17.5429 18.6142 18.1112 19.2809C18.6794 19.9475 18.66 19.8295 18.66 19.8295C18.66 19.8295 21.6299 17.8885 21.8654 17.6231C22.5405 16.8738 22.5818 15.8443 22.7445 14.9889C22.929 14.0243 23.116 12.4225 22.7979 10.396C22.6352 10.1541 22.4798 9.9771 22.3608 9.85616C22.1641 9.65852 21.9892 9.52873 21.8168 9.43434C21.5813 9.30749 21.438 9.28979 21.3166 9.34879C21.2875 9.36649 21.2656 9.38124 21.251 9.39304Z" fill="#F6921E"/>
<path d="M19.603 4.58789C19.603 4.58789 19.9162 4.79438 19.9867 4.93597C20.0571 5.07756 20.1202 5.18671 20.1081 5.28995C20.0959 5.39614 19.9648 5.79732 19.8968 5.92121C19.8288 6.04511 19.671 6.26044 19.6321 6.29879C19.5957 6.33714 19.5957 6.33714 19.5957 6.33714M20.5282 5.59083C20.5282 5.59083 20.7492 5.55543 20.8609 5.67638C20.9726 5.79732 21.0333 6.07166 21.0333 6.07166" stroke="#2D264F" stroke-miterlimit="10"/>
<path d="M19.6371 5.4938C19.7057 5.32423 19.6707 5.13255 19.5588 5.06566C19.4469 4.99877 19.3005 5.082 19.2318 5.25157C19.1631 5.42113 19.1981 5.61282 19.3101 5.67971C19.422 5.7466 19.5684 5.66336 19.6371 5.4938Z" fill="#2D264F"/>
<path d="M20.7972 6.38052C20.8659 6.21095 20.8309 6.01927 20.7189 5.95237C20.607 5.88548 20.4606 5.96872 20.3919 6.13828C20.3233 6.30785 20.3583 6.49954 20.4702 6.56643C20.5821 6.63332 20.7285 6.55008 20.7972 6.38052Z" fill="#2D264F"/>
<path d="M18.9368 6.66723C19.1058 6.66723 19.2428 6.4995 19.2428 6.2926C19.2428 6.0857 19.1058 5.91797 18.9368 5.91797C18.7678 5.91797 18.6309 6.0857 18.6309 6.2926C18.6309 6.4995 18.7678 6.66723 18.9368 6.66723Z" fill="#A18DFE"/>
<path d="M20.263 7.4934C20.432 7.4934 20.569 7.32567 20.569 7.11877C20.569 6.91187 20.432 6.74414 20.263 6.74414C20.094 6.74414 19.957 6.91187 19.957 7.11877C19.957 7.32567 20.094 7.4934 20.263 7.4934Z" fill="#A18DFE"/>
<path d="M19.1914 6.66406C19.1914 6.66406 19.2934 6.9679 19.4051 7.07409C19.5168 7.18028 19.7111 7.19503 19.7111 7.19503" stroke="#2D264F" stroke-miterlimit="10"/>
<path d="M25.8773 31.5928C25.8142 31.5987 25.8555 32.6488 25.8555 32.6488L25.4257 32.6636C25.4257 32.6636 25.3722 32.8258 25.416 33.0146C25.4597 33.2034 25.7705 33.758 25.7705 33.758C25.7705 33.758 25.7608 35.3391 25.8239 35.5013C25.8871 35.6636 26.1785 35.2565 26.3509 34.7992C26.5233 34.3391 26.8511 32.7373 26.9167 32.3863C26.9822 32.0353 26.9822 31.9143 26.9822 31.9143C26.9822 31.9143 27.0138 31.463 25.8773 31.5928ZM19.2188 33.6901C19.2188 33.6901 19.4033 34.2476 19.5733 34.2476C19.7433 34.2476 20.0808 33.8111 20.0808 33.8111C20.0808 33.8111 20.2338 33.7491 20.2581 33.8199C20.2824 33.8907 20.3067 35.4335 20.3067 35.4335C20.3067 35.4335 19.0002 35.3509 18.4028 35.342C17.8055 35.3332 17.4509 35.1709 17.4024 35.047C17.3538 34.9261 17.4266 34.7845 17.5068 34.7845C17.5869 34.7845 18.2644 34.6577 18.4053 34.6075C18.5461 34.5574 19.1508 33.6488 19.1508 33.6488L19.2188 33.6901Z" fill="#F6921E"/>
<path d="M19.1973 8.06246C19.1973 8.06246 19.5639 8.03886 19.7509 7.96512C19.9379 7.89137 20.1055 7.78223 20.1055 7.78223C20.1055 7.78223 20.069 8.09196 19.7072 8.2424C19.3454 8.39284 19.2215 8.38399 19.2215 8.38399L19.1973 8.07721V8.06246Z" fill="#A18DFE"/>
<path d="M20.9795 6.65527C20.9795 6.65527 21.1567 6.80277 21.1373 6.96796C21.1179 7.13315 21.0426 7.20099 20.9746 7.15084C20.9066 7.1007 20.8483 6.97386 20.8799 6.92961C20.9115 6.88536 21.0256 6.81456 21.0378 6.91191C21.0475 7.0063 20.977 6.9945 20.977 6.9945" stroke="#A18DFE" stroke-miterlimit="10"/>
<path d="M18.9043 34.2981C18.9539 34.2981 18.9942 34.2585 18.9942 34.2096C18.9942 34.1607 18.9539 34.1211 18.9043 34.1211C18.8547 34.1211 18.8145 34.1607 18.8145 34.2096C18.8145 34.2585 18.8547 34.2981 18.9043 34.2981Z" fill="#E1DCF9"/>
<path d="M18.7613 34.502C18.8042 34.502 18.839 34.4677 18.839 34.4253C18.839 34.383 18.8042 34.3486 18.7613 34.3486C18.7184 34.3486 18.6836 34.383 18.6836 34.4253C18.6836 34.4677 18.7184 34.502 18.7613 34.502Z" fill="#E1DCF9"/>
<path d="M18.6017 34.6759C18.6406 34.6759 18.6721 34.6415 18.6721 34.5992C18.6721 34.5568 18.6406 34.5225 18.6017 34.5225C18.5628 34.5225 18.5312 34.5568 18.5312 34.5992C18.5312 34.6415 18.5628 34.6759 18.6017 34.6759Z" fill="#E1DCF9"/>
<path d="M25.6755 32.9543C25.6925 32.8977 25.6757 32.8382 25.6379 32.8214C25.6001 32.8047 25.5557 32.837 25.5386 32.8936C25.5216 32.9502 25.5384 33.0097 25.5762 33.0265C25.614 33.0432 25.6585 33.0109 25.6755 32.9543Z" fill="#E1DCF9"/>
<path d="M25.782 33.1886C25.7967 33.1396 25.7821 33.0881 25.7494 33.0736C25.7166 33.0591 25.6781 33.087 25.6634 33.1359C25.6487 33.1849 25.6633 33.2364 25.696 33.2509C25.7288 33.2655 25.7673 33.2376 25.782 33.1886Z" fill="#E1DCF9"/>
<path d="M25.8615 33.4293C25.8749 33.3849 25.8591 33.3372 25.8264 33.3227C25.7936 33.3081 25.7563 33.3323 25.7429 33.3767C25.7296 33.4211 25.7453 33.4688 25.7781 33.4834C25.8108 33.4979 25.8482 33.4737 25.8615 33.4293Z" fill="#E1DCF9"/>
<path d="M2.23191 30.3925C2.23191 30.3925 3.32468 31.2214 4.70399 30.5282C4.70399 30.5282 5.25279 30.2214 5.69719 29.36C6.14158 28.4987 6.12943 28.5016 6.38441 28.655C6.63696 28.8084 6.63696 31.6963 6.63696 31.6963L6.98664 31.7229C6.98664 31.7229 6.98665 29.1949 6.68067 28.4249C6.68067 28.4249 6.59568 27.7848 6.38441 27.7317C6.17314 27.6786 5.75061 27.6432 4.99053 28.0533C4.23045 28.4633 4.14546 27.8733 3.14255 28.3482C2.13964 28.8232 1.77052 29.54 1.66368 30.0415C1.55683 30.5429 1.80209 31.0945 1.80209 31.0945C1.80209 31.0945 1.7681 30.7317 2.23191 30.3925Z" fill="#5F529A"/>
<path d="M1.88281 30.3983C1.91438 30.2833 2.16693 30.0001 3.75265 29.7435C5.33594 29.4868 5.8119 28.3069 6.04502 28.2686" stroke="#42328A" stroke-width="3" stroke-miterlimit="10"/>
<path d="M3.61547 24.445C3.70046 24.4273 3.8583 25.1765 4.77622 25.7665C5.69414 26.3565 6.16039 26.4214 6.44451 26.3447C6.72863 26.268 6.93018 25.9199 7.02489 25.973C7.11959 26.0261 7.11959 31.5924 7.11959 31.5924H7.45713C7.45713 31.5924 7.40371 25.858 7.36243 25.7429C7.32115 25.6279 7.18273 25.2178 6.34737 24.5512C5.51202 23.8845 4.90978 23.1648 3.85587 23.4745C3.85587 23.4745 3.39206 23.681 3.15893 24.091C2.92581 24.501 3.06423 24.7577 3.06423 24.7577C3.06423 24.7577 3.02295 24.56 3.61547 24.445Z" fill="#5F529A"/>
<path d="M3.41406 24.1653C3.41406 24.1653 4.6501 23.947 5.4636 24.6785C6.2771 25.4101 6.67778 25.7051 6.67778 25.7051" stroke="#42328A" stroke-width="3" stroke-miterlimit="10"/>
<path d="M7.66735 31.6434C7.57264 31.431 7.62849 24.6965 7.66735 24.493C7.7062 24.2895 7.73777 23.9915 8.49056 23.6759C9.24335 23.3603 10.9942 21.4635 11.7227 21.5697C12.4512 21.6759 13.2356 22.5402 13.221 22.8293C13.204 23.1184 12.7766 23.0033 12.3978 23.0505C12.0165 23.0977 11.8028 23.7231 11.305 24.552C10.8048 25.3809 9.93544 25.6877 9.03937 25.3219C8.14331 24.9561 8.02432 24.7437 8.02432 24.7437L7.87376 31.6817L7.66735 31.6434Z" fill="#42328A"/>
<path d="M8.17977 31.6961C8.12635 31.5427 8.58045 27.1032 8.33762 25.525C8.09478 23.9469 8.17977 23.5251 7.63096 23.2684C7.08216 23.0118 5.8874 21.9852 5.63485 20.9587C5.3823 19.9322 5.35073 19.354 5.31917 19.292C5.2876 19.2301 5.23417 19.0354 4.98162 19.3422C4.72907 19.649 4.62223 19.2154 4.99134 18.6106C5.36045 18.0059 5.72956 17.8407 6.3755 18.3658C7.02145 18.8909 8.0875 20.354 8.33033 21.1121C8.57317 21.8702 8.30848 23.0236 8.33033 23.3569C8.35219 23.6902 8.73101 25.5899 8.80629 26.9498C8.87914 28.3097 8.56346 31.6843 8.56346 31.6843L8.17977 31.6961Z" fill="#5F529A"/>
<path d="M8.14095 24.6579C8.14095 24.6579 9.68539 25.0149 10.1929 24.7169C10.7004 24.419 11.4751 22.2922 11.951 22.1771C12.427 22.0621 13.2187 22.8792 13.2187 22.8792C13.2187 22.8792 13.2357 23.0709 12.7184 23.0532C12.2012 23.0355 12.1016 23.1299 11.7519 23.7553C11.4022 24.3806 11.0938 25.1417 10.3338 25.3511C9.57368 25.5635 9.07344 25.3718 8.67762 25.1771C8.28179 24.9854 8.01953 24.7435 8.01953 24.7435L8.14095 24.6579Z" fill="#5F529A"/>
<path d="M5.61133 18.6611C5.61133 18.6611 7.0902 20.5726 7.41803 21.5225C7.74586 22.4723 7.88185 23.0239 7.88185 23.0239" stroke="#42328A" stroke-width="3" stroke-miterlimit="10"/>
<path d="M4.76758 19.3008C4.77729 19.1474 5.24354 17.9144 6.00361 18.6991C6.76369 19.4837 6.75398 20.2271 7.34407 20.8672C7.93659 21.5073 8.14786 21.8937 8.11629 22.3686C8.08472 22.8436 8.13814 23.4335 8.27413 23.702C8.41255 23.9704 8.44412 23.9586 8.41255 23.9704C8.38098 23.9822 8.30084 23.289 8.30084 23.289C8.30084 23.289 8.65053 21.6341 8.26928 20.9232C7.88802 20.2123 6.79526 18.3362 5.93319 18.0855C5.0687 17.8348 4.76758 19.3008 4.76758 19.3008ZM13.6724 28.6105C13.6724 28.6105 12.5796 29.3892 11.2003 28.7373C11.2003 28.7373 10.6515 28.4482 10.2071 27.637C9.91571 27.1061 9.821 26.9232 9.71658 26.8996C9.71658 26.8996 9.6243 26.8878 9.51988 26.9704C9.12649 27.2772 9.22605 30.7668 9.26248 31.7698C9.16534 31.7845 9.06821 31.7992 8.97107 31.814C8.88365 30.9232 8.8448 29.8229 8.95893 28.578C9.01964 27.9055 9.11677 27.2949 9.22605 26.7521C9.22605 26.7521 9.31104 26.1474 9.52231 26.1002C9.73358 26.053 10.1561 26.0146 10.9162 26.4011C11.6763 26.7875 11.7613 26.2329 12.7642 26.6783C13.7671 27.1267 14.1362 27.8022 14.243 28.2742C14.3475 28.7462 14.1046 29.2653 14.1046 29.2653C14.1046 29.2653 14.1362 28.9291 13.6724 28.6105Z" fill="#42328A"/>
<path d="M13.9643 28.4751C13.9035 28.3276 13.6121 28.012 12.2498 28.0857C10.8875 28.1595 10.1469 26.6845 9.94531 26.6934" stroke="#5F529A" stroke-width="3" stroke-miterlimit="10"/>
<path d="M9.65761 36.7638H5.91065C5.76009 36.7638 5.63867 36.6164 5.63867 36.4335V31.9202C5.63867 31.7373 5.76009 31.5898 5.91065 31.5898H9.65761C9.80817 31.5898 9.92959 31.7373 9.92959 31.9202V36.4335C9.93202 36.6134 9.80817 36.7638 9.65761 36.7638Z" fill="#BAABFE"/>
<path d="M6.48633 36.7045C6.50333 36.6573 7.11285 35.2886 7.88749 34.4331C8.66457 33.5777 9.93217 33.3564 9.93217 33.3564L9.94917 36.3682C9.94917 36.3682 9.92489 36.7517 9.4975 36.7723L6.48633 36.7045Z" fill="#A18DFE"/>
<path d="M11.2691 6.23343H4.84367C4.58627 6.23343 4.375 5.97975 4.375 5.66412V4.36619C4.375 4.05351 4.58384 3.79688 4.84367 3.79688H11.2691C11.5265 3.79688 11.7378 4.05056 11.7378 4.36619V5.66412C11.7378 5.97975 11.5265 6.23343 11.2691 6.23343Z" fill="#B7AAF1"/>
<path d="M11.039 4.84075H6.62421C6.59264 4.84075 6.56836 4.81125 6.56836 4.7729V4.48972C6.56836 4.45137 6.59264 4.42188 6.62421 4.42188H11.039C11.0705 4.42188 11.0948 4.45137 11.0948 4.48972V4.7729C11.0948 4.81125 11.0681 4.84075 11.039 4.84075ZM11.073 5.6726H6.66064C6.62907 5.6726 6.60478 5.6431 6.60478 5.60476V5.32157C6.60478 5.28323 6.62907 5.25373 6.66064 5.25373H11.0754C11.107 5.25373 11.1313 5.28323 11.1313 5.32157V5.60476C11.1288 5.6431 11.1045 5.6726 11.073 5.6726Z" fill="#E1DCF9"/>
<path d="M5.60551 5.89397C6.00249 5.89397 6.32431 5.52814 6.32431 5.07687C6.32431 4.62559 6.00249 4.25977 5.60551 4.25977C5.20853 4.25977 4.88672 4.62559 4.88672 5.07687C4.88672 5.52814 5.20853 5.89397 5.60551 5.89397Z" fill="#E9E5FA"/>
<path d="M5.60652 4.25977V5.13292L4.89258 5.01197C4.89501 5.00902 4.92172 4.29811 5.60652 4.25977Z" fill="#9B8BE6"/>
<path d="M2.87109 11.4924C2.87109 11.4924 3.39805 11.2181 3.62631 11.2417C3.85458 11.2653 3.98086 11.5278 4.18727 11.5603C4.39368 11.5957 4.78221 11.2181 5.11247 11.2741C5.44516 11.3302 5.44516 11.5485 5.69528 11.5603C5.94783 11.5721 6.12996 11.1827 6.54035 11.2505C6.95317 11.3184 6.72248 11.5131 7.1013 11.5131C7.48012 11.5131 7.53598 11.2741 7.83224 11.3066C8.1285 11.339 8.17464 11.4098 8.17464 11.4098M3.01922 11.8788C3.35191 11.7313 3.56803 11.7756 3.7623 11.8346C3.95657 11.8906 3.95657 12.2446 4.28926 12.1089C4.62194 11.9732 4.87206 11.7431 5.03234 11.7785C5.19261 11.8139 5.45487 12.0647 5.67342 12.0765C5.88955 12.0883 6.22223 11.8375 6.4165 11.8375C6.61077 11.8375 6.87303 12.0647 7.13773 12.0322C7.39999 11.9968 7.62825 11.7697 7.78853 11.7697C7.9488 11.7697 8.14307 11.8847 8.14307 11.8847" stroke="#F6921E" stroke-width="4" stroke-miterlimit="10"/>
<path d="M26.9894 26.0026H25.3891C25.2288 26.0026 25.0977 25.8433 25.0977 25.6486V23.2563C25.0977 23.0616 25.2288 22.9023 25.3891 22.9023H26.9894C27.1496 22.9023 27.2808 23.0616 27.2808 23.2563V25.6486C27.2808 25.8433 27.1496 26.0026 26.9894 26.0026Z" fill="#E1DCF9"/>
<path d="M26.202 25.2383C25.7066 24.79 25.4395 24.2885 25.5439 23.9906C25.5755 23.9021 25.6678 23.7487 25.8159 23.7192C26.0077 23.6808 26.1534 23.8726 26.168 23.8932C26.1947 23.8549 26.3064 23.7074 26.4861 23.6897C26.5177 23.6867 26.6998 23.669 26.8067 23.8165C26.8067 23.8165 26.8577 23.8873 26.8747 23.9965C26.9135 24.2325 26.6464 24.7133 26.202 25.2383Z" fill="#F6921E"/>
<path d="M29.0586 18.0979C29.0586 18.0979 29.5855 17.8235 29.8138 17.8471C30.0421 17.8707 30.1684 18.1333 30.3748 18.1657C30.5812 18.2011 30.9697 17.8235 31.3 17.8796C31.6327 17.9356 31.6327 18.1539 31.8828 18.1657C32.1353 18.1775 32.3175 17.7881 32.7278 17.856C33.1382 17.9238 32.91 18.1185 33.2888 18.1185C33.6676 18.1185 33.7235 17.8796 34.0197 17.912C34.316 17.9474 34.3621 18.0153 34.3621 18.0153M29.2067 18.4873C29.5394 18.3398 29.7555 18.384 29.9498 18.443C30.1441 18.4991 30.1441 18.853 30.4768 18.7173C30.8094 18.5817 31.0596 18.3516 31.2198 18.387C31.3801 18.4224 31.6424 18.6731 31.8609 18.6849C32.0795 18.6967 32.4097 18.446 32.604 18.446C32.7983 18.446 33.0605 18.6731 33.3252 18.6406C33.5899 18.6082 33.8158 18.3781 33.976 18.3781C34.1363 18.3781 34.3306 18.4932 34.3306 18.4932" stroke="#9B8BE6" stroke-width="4" stroke-miterlimit="10"/>
<path d="M28.7581 18.9237L28.3332 18.6671L27.9179 18.9473L27.9859 18.378L27.6387 17.9857L28.1073 17.8884L28.3065 17.3633L28.5275 17.8736L28.9986 17.9444L28.6659 18.3574L28.7581 18.9237Z" fill="#9B8BE6"/>
<path d="M9.55528 18.8171C10.0971 18.8171 10.5363 18.2835 10.5363 17.6253C10.5363 16.9671 10.0971 16.4336 9.55528 16.4336C9.01345 16.4336 8.57422 16.9671 8.57422 17.6253C8.57422 18.2835 9.01345 18.8171 9.55528 18.8171Z" fill="#B7AAF1"/>
<path d="M10.0733 18.0445L9.68723 17.9766L9.42011 18.3218L9.35454 17.8557L9 17.6551L9.34726 17.4339L9.39339 16.9648L9.67266 17.2952L10.0563 17.2038L9.88392 17.6286L10.0733 18.0445Z" fill="#6140FD"/>
<path d="M31.1865 13.634H26.6989C26.4123 13.634 26.1816 13.3538 26.1816 13.0057V7.36269C26.1816 7.01461 26.4123 6.73438 26.6989 6.73438H31.1865C31.473 6.73438 31.7037 7.01461 31.7037 7.36269V13.0028C31.7037 13.3508 31.473 13.634 31.1865 13.634Z" fill="#B7AAF1"/>
<path d="M28.716 8.12977C28.7403 8.13272 28.7112 7.43066 28.7112 7.43066L29.2673 7.43951L29.2648 8.17107C29.2648 8.17107 29.6364 8.23892 29.7675 8.37461C29.8987 8.51325 29.9594 8.5988 29.9594 8.5988L29.481 9.20056C29.481 9.20056 29.09 8.78464 28.6966 9.11502C28.6966 9.11502 28.5023 9.60764 28.8617 9.74333C28.8617 9.74333 29.2503 9.73153 29.4931 9.83772C29.7359 9.94392 30.2556 10.3982 30.0881 11.2389C29.9205 12.0796 29.3328 12.2566 29.3328 12.2566L29.277 12.2713L29.3061 12.876C29.3061 12.876 28.7816 12.9114 28.7573 12.8967C28.733 12.8819 28.7476 12.2212 28.7476 12.2212C28.7476 12.2212 28.3445 12.1622 28.0167 11.8318L27.905 11.6548L28.4198 11.0442C28.4198 11.0442 28.682 11.4365 29.1216 11.4041C29.5611 11.3687 29.4445 10.6932 29.2284 10.6578C29.0123 10.6224 28.3129 10.6755 27.9875 9.83772C27.6573 9.00292 28.3008 8.10323 28.716 8.12977Z" fill="#4C2DDC"/>
</g>
<defs>
<clipPath id="clip0_9489_15906">
<rect width="36" height="38" fill="white" transform="translate(0 0.5)"/>
</clipPath>
</defs>
</svg>
