<svg width="24" height="24" viewBox="0 0 24 24" fill="none" xmlns="http://www.w3.org/2000/svg">
<path fill-rule="evenodd" clip-rule="evenodd" d="M21.9998 8.37653C21.9975 8.57192 21.9179 8.75844 21.7785 8.89539C21.6391 9.03234 21.4512 9.1086 21.2558 9.10753H16.2938C16.0983 9.10887 15.9101 9.03272 15.7705 8.89575C15.6309 8.75877 15.5512 8.5721 15.5488 8.37653C15.5488 7.97253 15.8828 7.64453 16.2938 7.64453H21.2558C21.6658 7.64453 21.9998 7.97253 21.9998 8.37653ZM21.9998 12.7655C21.9975 12.9609 21.9179 13.1474 21.7785 13.2844C21.6391 13.4213 21.4512 13.4976 21.2558 13.4965H17.2858C17.0904 13.4976 16.9025 13.4213 16.7631 13.2844C16.6238 13.1474 16.5442 12.9609 16.5418 12.7655C16.5418 12.3615 16.8748 12.0335 17.2858 12.0335H21.2558C21.6658 12.0335 21.9998 12.3615 21.9998 12.7655Z" fill="#381F8C"/>
<path d="M12.5871 8.238L12.9511 8.595C14.4691 10.087 15.2291 10.834 15.2281 11.642C15.2281 11.907 15.1731 12.168 15.0671 12.411C14.7421 13.154 13.7441 13.544 11.7491 14.325L11.6041 14.381C11.0391 14.602 10.7561 14.713 10.5281 14.891C10.3562 15.0259 10.2076 15.188 10.0881 15.371C9.9311 15.611 9.8481 15.9 9.6811 16.475C9.4231 17.368 9.2951 17.815 9.0201 18.012C8.81486 18.16 8.56114 18.2247 8.3101 18.193C7.9721 18.153 7.6381 17.824 6.9701 17.168L5.9441 16.158L3.2711 18.786C3.13027 18.9234 2.94133 19.0003 2.7446 19.0003C2.54787 19.0003 2.35893 18.9234 2.2181 18.786C2.14907 18.7186 2.09421 18.6382 2.05675 18.5493C2.0193 18.4604 2 18.3649 2 18.2685C2 18.1721 2.0193 18.0766 2.05675 17.9877C2.09421 17.8988 2.14907 17.8184 2.2181 17.751L4.8811 15.114L3.8641 14.114C3.1971 13.459 2.8631 13.131 2.8211 12.798C2.78956 12.5506 2.85555 12.3006 3.0051 12.101C3.2071 11.831 3.6611 11.704 4.5691 11.451C5.1551 11.288 5.4481 11.206 5.6931 11.052C5.87977 10.9347 6.04243 10.7903 6.1811 10.619C6.3621 10.395 6.4751 10.117 6.7001 9.561L6.7571 9.419C7.5511 7.459 7.9481 6.478 8.7051 6.159C8.9521 6.054 9.2181 6 9.4861 6C10.3101 6 11.0691 6.745 12.5871 8.238Z" fill="#381F8C"/>
<path fill-rule="evenodd" clip-rule="evenodd" d="M22.0001 17.1549C21.9977 17.3502 21.9181 17.5368 21.7788 17.6737C21.6394 17.8107 21.4515 17.8869 21.2561 17.8859H12.3241C12.1287 17.8869 11.9408 17.8107 11.8014 17.6737C11.662 17.5368 11.5825 17.3502 11.5801 17.1549C11.5801 16.7509 11.9131 16.4229 12.3241 16.4229H21.2561C21.6661 16.4229 22.0001 16.7509 22.0001 17.1549Z" fill="#381F8C"/>
</svg>
