<svg width="70" height="70" viewBox="0 0 70 70" fill="none" xmlns="http://www.w3.org/2000/svg">
<circle cx="35" cy="35" r="35" fill="#C1F6C3" fill-opacity="0.6"/>
<circle cx="34.5" cy="34.5" r="22.5" fill="#A6F8AA"/>
<path d="M52 34.9924L48.2291 30.742L48.7545 25.1156L43.1755 23.8619L40.2545 19L35 21.2322L29.7455 19L26.8245 23.8619L21.2455 25.1003L21.7709 30.7267L18 34.9924L21.7709 39.2427L21.2455 44.8844L26.8245 46.1381L29.7455 51L35 48.7525L40.2545 50.9847L43.1755 46.1228L48.7545 44.8691L48.2291 39.2427L52 34.9924ZM31.9091 42.6369L25.7273 36.5213L27.9064 34.3655L31.9091 38.3101L42.0936 28.2346L44.2727 30.4056L31.9091 42.6369Z" fill="#4CAF50"/>
</svg>
