<svg width="97" height="59" viewBox="0 0 97 59" fill="none" xmlns="http://www.w3.org/2000/svg">
<rect width="97" height="59" rx="16" fill="white"/>
<path d="M36.8621 23.6552C37.5259 23.6552 38.0943 23.419 38.5674 22.9467C39.0405 22.4744 39.2767 21.906 39.2759 21.2414C39.2751 20.5768 39.0389 20.0087 38.5674 19.5372C38.0959 19.0657 37.5275 18.8292 36.8621 18.8276C36.1967 18.826 35.6286 19.0625 35.1579 19.5372C34.6872 20.012 34.4507 20.58 34.4483 21.2414C34.4459 21.9028 34.6824 22.4712 35.1579 22.9467C35.6334 23.4222 36.2015 23.6584 36.8621 23.6552ZM30.8276 35.7241V33.3103H35.6552V29.569C34.6695 29.3477 33.7897 28.9305 33.0157 28.3174C32.2417 27.7043 31.6732 26.9347 31.3103 26.0086C29.8017 25.8276 28.5397 25.169 27.5243 24.0329C26.5089 22.8968 26.0008 21.564 26 20.0345V16.4138H30.8276V14H42.8965V16.4138H47.7241V20.0345C47.7241 21.5632 47.216 22.896 46.1998 24.0329C45.1836 25.1698 43.9216 25.8284 42.4138 26.0086C42.0517 26.9339 41.4837 27.7035 40.7097 28.3174C39.9356 28.9313 39.0554 29.3485 38.069 29.569V33.3103H42.8965V35.7241H30.8276ZM30.8276 23.4138V18.8276H28.4138V20.0345C28.4138 20.7988 28.6351 21.488 29.0776 22.1019C29.5201 22.7158 30.1034 23.1531 30.8276 23.4138ZM36.8621 27.2759C37.8678 27.2759 38.7227 26.9238 39.4267 26.2198C40.1307 25.5158 40.4828 24.6609 40.4828 23.6552V16.4138H33.2414V23.6552C33.2414 24.6609 33.5934 25.5158 34.2974 26.2198C35.0014 26.9238 35.8563 27.2759 36.8621 27.2759ZM42.8965 23.4138C43.6207 23.1523 44.204 22.7146 44.6465 22.1007C45.0891 21.4868 45.3103 20.798 45.3103 20.0345V18.8276H42.8965V23.4138Z" fill="#381F8C"/>
<path d="M59.7955 42.9657L61.6783 38.8382L65.83 36.9313L61.6783 35.0485L59.7955 30.8968L57.9007 35.0485L53.7611 36.9313L57.9007 38.8382L59.7955 42.9657ZM55.1731 25.7795C56.6396 25.176 58.2097 24.8645 59.7955 24.8623C61.3766 24.8623 62.9455 25.1761 64.4179 25.7795C65.8783 26.383 67.2059 27.2761 68.3283 28.3985C69.4507 29.5209 70.3438 30.8485 70.9473 32.3089C71.5507 33.7813 71.8645 35.3502 71.8645 36.9313C71.8645 40.1295 70.5973 43.2071 68.3283 45.464C67.209 46.5864 65.879 47.4766 64.4147 48.0835C62.9504 48.6903 61.3806 49.0019 59.7955 49.0002C58.2097 48.9981 56.6396 48.6865 55.1731 48.083C53.7104 47.4751 52.3817 46.5852 51.2628 45.464C50.1404 44.3448 49.2502 43.0148 48.6433 41.5505C48.0365 40.0861 47.7249 38.5164 47.7266 36.9313C47.7266 33.733 48.9938 30.6554 51.2628 28.3985C52.3852 27.2761 53.7128 26.383 55.1731 25.7795ZM52.9645 43.7623C54.7748 45.5726 57.2369 46.5864 59.7955 46.5864C62.3542 46.5864 64.8162 45.5726 66.6266 43.7623C68.4369 41.952 69.4507 39.4899 69.4507 36.9313C69.4507 34.3726 68.4369 31.9106 66.6266 30.1002C65.7292 29.2039 64.6641 28.4931 63.492 28.0086C62.3199 27.524 61.0638 27.2751 59.7955 27.2761C57.2369 27.2761 54.7748 28.2899 52.9645 30.1002C52.0682 30.9976 51.3574 32.0627 50.8728 33.2348C50.3883 34.4069 50.1394 35.663 50.1404 36.9313C50.1404 39.4899 51.1542 41.952 52.9645 43.7623Z" fill="#381F8C"/>
</svg>
