<svg width="88" height="69" viewBox="0 0 88 69" fill="none" xmlns="http://www.w3.org/2000/svg">
<rect width="88" height="69" rx="6" transform="matrix(-1 0 0 1 88 0)" fill="#A6F8AA" fill-opacity="0.42"/>
<path fill-rule="evenodd" clip-rule="evenodd" d="M39.9091 16C39.1858 16 38.4921 16.2784 37.9806 16.7741C37.4692 17.2697 37.1818 17.9419 37.1818 18.6429V19.9801C37.1861 20.6783 37.4754 21.3465 37.9864 21.8387C38.4974 22.3309 39.1886 22.6072 39.9091 22.6071H48.0909C48.8142 22.6071 49.5079 22.3287 50.0194 21.8331C50.5308 21.3374 50.8182 20.6652 50.8182 19.9643V18.6429C50.8182 17.9419 50.5308 17.2697 50.0194 16.7741C49.5079 16.2784 48.8142 16 48.0909 16H39.9091ZM34.4545 18.6429H33.0909C32.0059 18.6429 30.9654 19.0605 30.1982 19.804C29.431 20.5474 29 21.5557 29 22.6071V49.0357C29 50.0871 29.431 51.0954 30.1982 51.8389C30.9654 52.5823 32.0059 53 33.0909 53H54.9091C55.9941 53 57.0346 52.5823 57.8018 51.8389C58.569 51.0954 59 50.0871 59 49.0357V22.6071C59 21.5557 58.569 20.5474 57.8018 19.804C57.0346 19.0605 55.9941 18.6429 54.9091 18.6429H53.5455V19.9643C53.5455 21.3661 52.9708 22.7106 51.9479 23.7019C50.9249 24.6931 49.5375 25.25 48.0909 25.25H39.9091C38.4625 25.25 37.0751 24.6931 36.0521 23.7019C35.0292 22.7106 34.4545 21.3661 34.4545 19.9643V18.6429ZM37.2827 33.3609C37.2683 33.0888 37.3112 32.8168 37.4087 32.5612C37.5062 32.3057 37.6563 32.0721 37.85 31.8745C38.0436 31.677 38.2767 31.5197 38.535 31.4123C38.7934 31.3048 39.0716 31.2494 39.3527 31.2494C39.6339 31.2494 39.9121 31.3048 40.1704 31.4123C40.4288 31.5197 40.6618 31.677 40.8555 31.8745C41.0491 32.0721 41.1993 32.3057 41.2968 32.5612C41.3943 32.8168 41.4371 33.0888 41.4227 33.3609C41.3955 33.8751 41.1655 34.3595 40.7803 34.7142C40.3951 35.0688 39.884 35.2665 39.3527 35.2665C38.8214 35.2665 38.3104 35.0688 37.9252 34.7142C37.5399 34.3595 37.31 33.8751 37.2827 33.3609ZM39.3527 28.0488C37.8989 28.0488 36.5045 28.6085 35.4765 29.6047C34.4485 30.6009 33.8709 31.9521 33.8709 33.3609C33.8709 34.7698 34.4485 36.121 35.4765 37.1172C36.5045 38.1134 37.8989 38.6731 39.3527 38.6731C40.8066 38.6731 42.2009 38.1134 43.229 37.1172C44.257 36.121 44.8345 34.7698 44.8345 33.3609C44.8345 31.9521 44.257 30.6009 43.229 29.6047C42.2009 28.6085 40.8066 28.0488 39.3527 28.0488ZM53.2618 39.4976C53.4201 39.651 53.5457 39.8331 53.6314 40.0336C53.7171 40.234 53.7612 40.4488 53.7612 40.6658C53.7612 40.8827 53.7171 41.0976 53.6314 41.298C53.5457 41.4984 53.4201 41.6805 53.2618 41.8339L51.0527 43.972L53.2564 46.1048C53.4147 46.2582 53.5402 46.4403 53.6259 46.6407C53.7116 46.8412 53.7557 47.056 53.7557 47.2729C53.7557 47.4899 53.7116 47.7047 53.6259 47.9051C53.5402 48.1056 53.4147 48.2877 53.2564 48.4411C53.0981 48.5945 52.9101 48.7162 52.7033 48.7992C52.4965 48.8822 52.2748 48.9249 52.0509 48.9249C51.827 48.9249 51.6054 48.8822 51.3985 48.7992C51.1917 48.7162 51.0038 48.5945 50.8455 48.4411L48.6445 46.3056L46.4436 48.4411C46.2853 48.5945 46.0974 48.7162 45.8906 48.7992C45.6837 48.8822 45.4621 48.9249 45.2382 48.9249C45.0143 48.9249 44.7926 48.8822 44.5858 48.7992C44.379 48.7162 44.191 48.5945 44.0327 48.4411C43.8744 48.2877 43.7489 48.1056 43.6632 47.9051C43.5775 47.7047 43.5334 47.4899 43.5334 47.2729C43.5334 47.056 43.5775 46.8412 43.6632 46.6407C43.7489 46.4403 43.8744 46.2582 44.0327 46.1048L46.2336 43.972L44.0273 41.8313C43.8614 41.6796 43.7287 41.4972 43.6369 41.2949C43.5451 41.0925 43.4961 40.8744 43.4929 40.6534C43.4896 40.4325 43.5322 40.2131 43.6181 40.0083C43.7039 39.8036 43.8313 39.6176 43.9926 39.4614C44.154 39.3052 44.3461 39.182 44.5575 39.099C44.7689 39.0161 44.9953 38.9751 45.2233 38.9785C45.4514 38.9818 45.6764 39.0295 45.8851 39.1187C46.0937 39.2079 46.2818 39.3367 46.4382 39.4976L48.6445 41.6357L50.8509 39.495C51.0092 39.3416 51.1971 39.2199 51.404 39.1368C51.6108 39.0538 51.8325 39.011 52.0564 39.011C52.2802 39.011 52.5019 39.0538 52.7088 39.1368C52.9156 39.2199 53.1035 39.3442 53.2618 39.4976Z" fill="#4CAF50"/>
</svg>
