<svg width="88" height="69" viewBox="0 0 88 69" fill="none" xmlns="http://www.w3.org/2000/svg">
<rect width="88" height="69" rx="6" transform="matrix(-1 0 0 1 88 0)" fill="#381F8C" fill-opacity="0.1"/>
<path d="M50.84 43.2L50.16 42.52C49.92 42.28 49.6336 42.16 49.3008 42.16C48.968 42.16 48.6811 42.28 48.44 42.52C48.1989 42.76 48.0789 43.04 48.08 43.36C48.0811 43.68 48.2011 43.96 48.44 44.2L50 45.76C50.24 46 50.52 46.12 50.84 46.12C51.16 46.12 51.44 46 51.68 45.76L55.56 41.96C55.8 41.72 55.92 41.4331 55.92 41.0992C55.92 40.7653 55.8 40.4789 55.56 40.24C55.32 40.0011 55.0331 39.8811 54.6992 39.88C54.3653 39.8789 54.0789 39.9989 53.84 40.24L50.84 43.2ZM50.4 28.6C50.8533 28.6 51.2336 28.4464 51.5408 28.1392C51.848 27.832 52.0011 27.4523 52 27C51.9989 26.5477 51.8453 26.168 51.5392 25.8608C51.2331 25.5536 50.8533 25.4 50.4 25.4H34.4C33.9467 25.4 33.5669 25.5536 33.2608 25.8608C32.9547 26.168 32.8011 26.5477 32.8 27C32.7989 27.4523 32.9525 27.8325 33.2608 28.1408C33.5691 28.4491 33.9488 28.6021 34.4 28.6H50.4ZM52 51C49.7867 51 47.9003 50.2197 46.3408 48.6592C44.7813 47.0987 44.0011 45.2123 44 43C43.9989 40.7877 44.7792 38.9013 46.3408 37.3408C47.9024 35.7803 49.7888 35 52 35C54.2112 35 56.0981 35.7803 57.6608 37.3408C59.2235 38.9013 60.0032 40.7877 60 43C59.9968 45.2123 59.2165 47.0992 57.6592 48.6608C56.1019 50.2224 54.2155 51.0021 52 51ZM28 49.2V22.2C28 21.32 28.3136 20.5669 28.9408 19.9408C29.568 19.3147 30.3211 19.0011 31.2 19H53.6C54.48 19 55.2336 19.3136 55.8608 19.9408C56.488 20.568 56.8011 21.3211 56.8 22.2V31C56.8 31.4533 56.6133 31.8203 56.24 32.1008C55.8667 32.3813 55.4533 32.4544 55 32.32C54.2533 32.1333 53.4933 32 52.72 31.92C51.9467 31.84 51.1733 31.8 50.4 31.8H34.4C33.9467 31.8 33.5669 31.9536 33.2608 32.2608C32.9547 32.568 32.8011 32.9477 32.8 33.4C32.7989 33.8523 32.9525 34.2325 33.2608 34.5408C33.5691 34.8491 33.9488 35.0021 34.4 35H44.16C43.7067 35.4533 43.2869 35.9467 42.9008 36.48C42.5147 37.0133 42.1744 37.5867 41.88 38.2H34.4C33.9467 38.2 33.5669 38.3536 33.2608 38.6608C32.9547 38.968 32.8011 39.3477 32.8 39.8C32.7989 40.2523 32.9525 40.6325 33.2608 40.9408C33.5691 41.2491 33.9488 41.4021 34.4 41.4H40.92C40.8667 41.6667 40.8336 41.9269 40.8208 42.1808C40.808 42.4347 40.8011 42.7077 40.8 43C40.8 43.6933 40.8667 44.3733 41 45.04C41.1333 45.7067 41.3067 46.3733 41.52 47.04C41.6533 47.3333 41.6 47.5669 41.36 47.7408C41.12 47.9147 40.8933 47.8944 40.68 47.68L40.56 47.56C40.4 47.4 40.2133 47.32 40 47.32C39.7867 47.32 39.6 47.4 39.44 47.56L38.16 48.84C38 49 37.8133 49.08 37.6 49.08C37.3867 49.08 37.2 49 37.04 48.84L35.76 47.56C35.6 47.4 35.4133 47.32 35.2 47.32C34.9867 47.32 34.8 47.4 34.64 47.56L33.36 48.84C33.2 49 33.0133 49.08 32.8 49.08C32.5867 49.08 32.4 49 32.24 48.84L30.96 47.56C30.8 47.4 30.6133 47.32 30.4 47.32C30.1867 47.32 30 47.4 29.84 47.56L28.56 48.84L28 49.2Z" fill="#381F8C"/>
</svg>
