<svg width="88" height="69" viewBox="0 0 88 69" fill="none" xmlns="http://www.w3.org/2000/svg">
<rect width="88" height="69" rx="6" transform="matrix(-1 0 0 1 88 0)" fill="#FCF4E6"/>
<path d="M32.475 25.25C31.739 25.25 31.0332 24.9576 30.5128 24.4372C29.9924 23.9168 29.7 23.211 29.7 22.475C29.7 21.739 29.9924 21.0332 30.5128 20.5128C31.0332 19.9924 31.739 19.7 32.475 19.7C33.211 19.7 33.9168 19.9924 34.4372 20.5128C34.9576 21.0332 35.25 21.739 35.25 22.475C35.25 23.211 34.9576 23.9168 34.4372 24.4372C33.9168 24.9576 33.211 25.25 32.475 25.25ZM61.9085 33.723L45.2585 17.073C44.5925 16.407 43.6675 16 42.65 16H29.7C27.6465 16 26 17.6465 26 19.7V32.65C26 33.6675 26.407 34.5925 27.0915 35.2585L43.723 51.9085C44.4075 52.5745 45.3325 53 46.35 53C47.3675 53 48.2925 52.5745 48.9585 51.9085L61.9085 38.9585C62.593 38.2925 63 37.3675 63 36.35C63 35.314 62.5745 34.389 61.9085 33.723Z" fill="#FE9B07"/>
</svg>
