<svg width="88" height="69" viewBox="0 0 88 69" fill="none" xmlns="http://www.w3.org/2000/svg">
<rect width="88" height="69" rx="6" transform="matrix(-1 0 0 1 88 0)" fill="#9D6FFA" fill-opacity="0.15"/>
<path d="M28 51V22.2C28 21.32 28.3136 20.5669 28.9408 19.9408C29.568 19.3147 30.3211 19.0011 31.2 19H56.8C57.68 19 58.4336 19.3136 59.0608 19.9408C59.688 20.568 60.0011 21.3211 60 22.2V41.4C60 42.28 59.6869 43.0336 59.0608 43.6608C58.4347 44.288 57.6811 44.6011 56.8 44.6H34.4L28 51ZM39.32 38.6L44 35.76L48.68 38.6L47.44 33.28L51.6 29.68L46.12 29.24L44 24.2L41.88 29.24L36.4 29.68L40.56 33.28L39.32 38.6Z" fill="#9D6FFA"/>
</svg>
