<svg width="24" height="24" viewBox="0 0 24 24" fill="none" xmlns="http://www.w3.org/2000/svg">
<circle cx="12" cy="12" r="12" fill="#4CAF50"/>
<path fill-rule="evenodd" clip-rule="evenodd" d="M17.4871 7.42993C17.5619 7.49406 17.6234 7.5723 17.6679 7.66019C17.7125 7.74808 17.7393 7.84389 17.7469 7.94215C17.7544 8.0404 17.7425 8.13918 17.7118 8.23283C17.6811 8.32647 17.6323 8.41316 17.5681 8.48793L11.5681 15.4879C11.5008 15.5664 11.4181 15.6301 11.325 15.6751C11.2319 15.7201 11.1306 15.7453 11.0273 15.7493C10.924 15.7532 10.821 15.7358 10.7248 15.698C10.6285 15.6603 10.5412 15.6031 10.4681 15.5299L6.9681 12.0299C6.83155 11.8884 6.75604 11.6989 6.75784 11.5023C6.75964 11.3056 6.83861 11.1176 6.97773 10.9786C7.11685 10.8396 7.305 10.7608 7.50165 10.7592C7.6983 10.7576 7.88772 10.8332 8.0291 10.9699L10.9571 13.8969L16.4301 7.51193C16.5596 7.36112 16.7436 7.26787 16.9418 7.25268C17.14 7.23749 17.3362 7.30061 17.4871 7.42993Z" fill="white"/>
</svg>
